<?xml version="1.0" standalone="no"?>
<!DOCTYPE svg PUBLIC "-//W3C//DTD SVG 1.1//EN" "http://www.w3.org/Graphics/SVG/1.1/DTD/svg11.dtd" >
<!--
2013-9-30: Created.
-->
<svg>
<metadata>
Created by iconfont
</metadata>
<defs>

<font id="iconfont" horiz-adv-x="1024" >
  <font-face
    font-family="iconfont"
    font-weight="500"
    font-stretch="normal"
    units-per-em="1024"
    ascent="896"
    descent="-128"
  />
    <missing-glyph />
    
    <glyph glyph-name="x" unicode="x" horiz-adv-x="1001"
d="M281 543q-27 -1 -53 -1h-83q-18 0 -36.5 -6t-32.5 -18.5t-23 -32t-9 -45.5v-76h912v41q0 16 -0.5 30t-0.5 18q0 13 -5 29t-17 29.5t-31.5 22.5t-49.5 9h-133v-97h-438v97zM955 310v-52q0 -23 0.5 -52t0.5 -58t-10.5 -47.5t-26 -30t-33 -16t-31.5 -4.5q-14 -1 -29.5 -0.5
t-29.5 0.5h-32l-45 128h-439l-44 -128h-29h-34q-20 0 -45 1q-25 0 -41 9.5t-25.5 23t-13.5 29.5t-4 30v167h911zM163 247q-12 0 -21 -8.5t-9 -21.5t9 -21.5t21 -8.5q13 0 22 8.5t9 21.5t-9 21.5t-22 8.5zM316 123q-8 -26 -14 -48q-5 -19 -10.5 -37t-7.5 -25t-3 -15t1 -14.5
t9.5 -10.5t21.5 -4h37h67h81h80h64h36q23 0 34 12t2 38q-5 13 -9.5 30.5t-9.5 34.5q-5 19 -11 39h-368zM336 498v228q0 11 2.5 23t10 21.5t20.5 15.5t34 6h188q31 0 51.5 -14.5t20.5 -52.5v-227h-327z" />
    

    
    <glyph glyph-name="appreciate" unicode="&#58948;" d="M873.6 480h-188.8c12.8 44.8 28.8 115.2 19.2 188.8-6.4 60.8-41.6 105.6-92.8 124.8-38.4 12.8-76.8 6.4-99.2-16-25.6-25.6-38.4-76.8-51.2-128-9.6-35.2-16-70.4-28.8-89.6-32-54.4-102.4-76.8-115.2-80h-92.8c-19.2 0-32-12.8-32-32v-448c0-19.2 12.8-32 32-32h547.2c124.8 0 188.8 390.4 188.8 412.8 0 57.6-44.8 99.2-86.4 99.2zM771.2 35.2h-515.2v380.8h76.8c22.4 6.4 108.8 38.4 150.4 108.8 16 25.6 25.6 64 35.2 105.6 9.6 38.4 19.2 86.4 35.2 99.2 3.2 3.2 19.2 6.4 38.4 0 16-3.2 41.6-19.2 48-67.2 12.8-102.4-32-201.6-32-201.6-3.2-9.6-3.2-22.4 3.2-32 6.4-9.6 16-16 25.6-16h236.8c6.4 0 25.6-12.8 25.6-32-3.2-67.2-83.2-345.6-128-345.6zM96 480c-19.2 0-32-12.8-32-32v-448c0-19.2 12.8-32 32-32s32 12.8 32 32v448c0 19.2-12.8 32-32 32z"  horiz-adv-x="1024" />

    
    <glyph glyph-name="favorfill" unicode="&#58955;" d="M957.216 491.68c-3.808 11.36-13.632 19.68-25.504 21.504l-270.336 41.728-120.8 258.624C535.328 824.768 524.032 831.968 511.648 832c0 0-0.032 0-0.064 0-12.384 0-23.648-7.136-28.928-18.336l-121.856-258.016-270.72-40.8c-11.872-1.792-21.728-10.048-25.568-21.408-3.84-11.36-0.992-23.936 7.36-32.512l196.448-202.08L221.44-25.952c-1.984-12.096 3.104-24.256 13.12-31.328 9.984-7.072 23.168-7.808 33.888-1.92l241.824 133.024 241.312-133.856C756.416-62.656 761.76-64 767.104-64c0.256 0 0.48 0 0.64 0 17.696 0 32 14.304 32 32 0 3.968-0.704 7.776-2.016 11.296l-44.896 278.688 196.928 201.248C958.08 467.776 960.992 480.32 957.216 491.68z"  horiz-adv-x="1024" />

    
    <glyph glyph-name="favor" unicode="&#58956;" d="M767.104-63.936c-5.344 0-10.688 1.344-15.52 4.032l-241.312 133.856-241.824-133.024c-10.72-5.92-23.904-5.152-33.888 1.92-10.016 7.072-15.104 19.264-13.12 31.328l46.88 284.736-196.448 202.08c-8.256 8.512-11.168 20.928-7.456 32.192 3.68 11.296 13.312 19.616 25.024 21.632l155.072 26.592c17.632 2.944 33.984-8.736 36.96-26.144 2.976-17.408-8.704-33.952-26.144-36.96l-95.168-16.32 165.344-170.08c7.072-7.296 10.272-17.504 8.64-27.488l-38.816-235.68 199.616 109.824c9.632 5.312 21.344 5.312 30.944-0.064l199.168-110.464-38.016 235.776c-1.632 10.016 1.632 20.224 8.704 27.456l164.672 168.256-225.664 34.816c-10.56 1.632-19.584 8.416-24.128 18.08l-99.2 212.384-100.064-211.84c-7.552-16-26.624-22.816-42.624-15.264-15.968 7.552-22.816 26.624-15.264 42.624l129.152 273.44c5.312 11.2 16.576 18.336 28.928 18.336 0 0 0.032 0 0.064 0 12.416-0.032 23.68-7.232 28.928-18.464l120.8-258.624 270.336-41.728c11.872-1.824 21.696-10.144 25.504-21.504 3.776-11.36 0.864-23.936-7.488-32.48l-196.928-201.216 45.92-284.864c1.952-12.096-3.2-24.256-13.216-31.296C780-62.016 773.568-63.936 767.104-63.936z"  horiz-adv-x="1024" />

    
    <glyph glyph-name="upload" unicode="&#58887;" d="M296.703945 540.133152c-19.056543 0-31.238542 5.118187-36.532762 15.35456-5.29422 10.232403-1.586942 23.467952 11.121832 39.706646 13.411582 16.937532 28.942175 37.411602 46.587808 61.411623 17.645634 23.998697 35.999369 48.882852 55.06253 74.645848 19.056543 25.76829 37.586312 50.827155 55.589305 75.179241 17.996376 24.356057 34.055067 45.356902 48.174751 63.002536 12.708774 16.234724 24.884155 24.708123 36.532762 25.412254 11.641989 0.708102 24.17473-6.706453 37.584988-22.237046 13.411582-16.234724 28.766142-35.82466 46.061033-58.764513s35.115235-46.943845 53.46897-72.004033c18.353736-25.054894 36.532762-49.586984 54.529138-73.587004 18.002994-23.998697 34.060361-44.824833 48.180045-62.470467 15.530593-19.061837 21.528944-34.944496 17.997699-47.647976-3.52595-12.70745-15.174557-18.705801-34.939202-18.00167-11.999349 0-27.531265-0.352066-46.587808-1.060167-19.061837-0.702808-34.944496-1.060167-47.647976-1.060167-14.119683-0.702808-22.76382-5.112893-25.944323-13.235549-3.173885-8.117362-4.76215-19.232576-4.76215-33.352259L611.180585 439.542981c0-19.057867 0.176033-38.47177 0.526775-58.236415 0.352066-19.765969 0.526775-39.179872 0.526775-58.236415l0-52.942195c0-7.057195-0.526775-14.471749-1.586942-22.237046s-3.52595-14.822491-7.40926-21.176878-9.533566-11.648607-16.942826-15.882659c-7.414554-4.234052-17.468277-6.354387-30.178375-6.354387-14.822491 0-28.410106-0.176033-40.766814-0.526775-12.351414-0.352066-26.996549-0.526775-43.940699-0.526775-23.297213 0-38.998545 5.470252-47.121201 16.409433-8.116039 10.940505-12.175381 28.414076-12.175381 52.41542l0 41.292265c0 16.236048-0.176033 33.528292-0.526775 51.883351-0.352066 18.353736-0.533393 36.707471-0.533393 55.061207l0 49.763016c0 21.176878-2.113717 37.943671-6.347769 50.295086-4.24067 12.356708-13.768941 18.177703-28.591433 17.469601-10.588439 0-23.471922 0.35736-38.646479 1.060167C322.290908 539.781086 308.703294 540.133152 296.703945 540.133152L296.703945 540.133152zM1007.189529-0.9374080000000049c4.234052-16.942826 3.349917-33.17755-2.64711-48.708143-6.002321-15.525299-15.355884-29.118207-28.05804-40.76152-12.708774-11.64993-28.239367-20.824813-46.593103-27.532589-18.348441-6.703805-38.11441-10.060341-59.291288-10.060341l-717.898815 0c-25.41093 0-47.824009 4.591412-67.237912 13.767618-19.408609 9.17753-34.939202 20.468776-46.587808 33.880358-11.648607 13.411582-19.408609 28.05804-23.290595 43.940699-3.88331 15.882659-3.356535 30.178375 1.586942 42.884502 4.234052 9.881661 8.468104 20.118034 12.702156 30.706473 3.531244 9.17753 7.76662 19.588612 12.708774 31.238542 4.942154 11.643312 10.236373 23.466628 15.882659 35.4673l40.233421 97.416286 120.713499 0-45.534259-133.415656 681.894152 0-45.527641 133.415656 115.412662 0c14.822491-36.000693 28.239367-68.472788 40.238716-97.416286 4.93686-12.704803 9.880337-25.056217 14.822491-37.059537 4.942154-11.999349 9.352239-22.76382 13.235549-32.292092 3.88331-9.529595 7.057195-17.645634 9.528272-24.350763S1007.189529-0.22930599999995138 1007.189529-0.9374080000000049L1007.189529-0.9374080000000049zM1007.189529-0.9374080000000049"  horiz-adv-x="1024" />

    
    <glyph glyph-name="community" unicode="&#59201;" d="M704 163.2c51.2 0 96 41.6 96 96v412.8c0 51.2-41.6 96-96 96h-547.2c-51.2 0-96-41.6-96-96v-412.8c0-51.2 41.6-96 96-96h35.2v-160c0-12.8 9.6-25.6 22.4-32h9.6c9.6 0 19.2 3.2 25.6 12.8l131.2 179.2h323.2zM233.6 224c-3.2 3.2-9.6 3.2-12.8 3.2h-64c-16 0-32 12.8-32 32v412.8c0 16 12.8 32 32 32h547.2c16 0 32-12.8 32-32v-412.8c0-16-12.8-32-32-32h-348.8c-3.2-3.2-3.2-3.2-6.4-3.2s-3.2-3.2-6.4-3.2l-3.2-3.2s-3.2 0-3.2-3.2l-80-115.2v92.8c0 16-9.6 25.6-22.4 32zM864 643.2c-19.2 0-32-12.8-32-32s16-32 32-32 32-12.8 32-32v-348.8c0-19.2-16-25.6-32-25.6h-32c-19.2 0-32-12.8-32-32v-3.2c0-3.2-3.2-6.4-3.2-9.6v-60.8l-73.6 57.6c-3.2 3.2-9.6 3.2-16 3.2h-163.2c-19.2 0-32-12.8-32-32s12.8-32 32-32h153.6l115.2-89.6c6.4-3.2 12.8-6.4 19.2-6.4 3.2 0 9.6 0 12.8 3.2 9.6 6.4 19.2 16 19.2 28.8v108.8c54.4 0 96 38.4 96 89.6v348.8c0 51.2-44.8 96-96 96z"  horiz-adv-x="1024" />

    
    <glyph glyph-name="error" unicode="&#58912;" d="M881.510752 238.613908c-15.745612 6.138814-21.400403 6.851035-48.313356 8.439206-26.912953 1.588171-31.004131-0.221034-59.474556-2.077312-128.870066-0.884137-257.154801-16.884552-382.724705-47.590901-80.273255-19.629059-159.52218-45.809325-235.43001-78.411861-48.994877-21.038152-57.654095-69.491701-15.294334-103.485933 50.149167-40.246633 118.762871 8.394181 164.725692 31.022551 78.463026 38.626739 315.544653 119.546723 404.01766 135.841851 99.574856 18.339694 186.075953 8.589632 187.662077 32.692586C894.074905 220.138114 897.256364 232.475094 881.510752 238.613908zM912.098397 233.35923c-23.939225-14.811334 6.349615-37.685297 27.733645-32.69975 25.548886 5.955642 18.216897 25.934672-0.203638 34.332946C929.971463 239.389574 919.367965 237.852568 912.098397 233.35923M271.709285 424.583436c19.113313 8.293897 38.860053 15.419178 57.628512 24.099884 26.979468 12.481266 54.486962 30.454616 58.508555 62.534242 4.055362 32.310893-16.281825 58.32743-43.281759 73.349565-64.283072 35.768645-136.454812 2.146896-194.184631-30.063713-30.356378-16.941857-53.135174-43.911092-66.342987-75.990718-34.590819-83.989903-7.642051-197.990307 18.917862-254.121721 18.296715-38.675858 60.662615-56.901964 101.754498-55.561433 22.150486 0.723477 45.067428 6.814196 65.925479 13.956873 13.036921 4.461615 25.762757 9.830903 38.068014 16.030092 6.14393 3.099594 12.186554 6.405897 18.096147 9.934257 4.305049 2.569522 10.900258 9.100262 15.659655 10.091846 1.880837 0.38988 3.752464 1.033539 5.611811 1.943258 18.915815 9.314133 29.03836 26.543539 27.069519 46.076408-1.451048 14.461363-13.455453 29.566386-42.797735 28.596292-7.640004-0.252757-15.519462-1.623987-22.781866-3.963265-15.020088-4.845355-100.891851-58.340733-110.154819-37.502126-5.955642 13.403265 32.605605 27.402093 41.409109 31.347962 21.132296 9.466606 44.182268 13.373589 65.581648 22.104437 26.91193 10.980076 71.130014 32.04074 75.275427 65.014736 5.104251 40.612976-44.633546 45.369304-72.502267 40.136116-27.031657-5.078669-52.896744-12.673647-77.589123-25.018813-1.862417-0.933255-3.859911-1.889023-5.930059-1.648546-13.731746 1.593288 2.78237 15.542998 6.14086 17.753339C244.361427 411.953791 257.868045 418.572536 271.709285 424.583436M566.432727 446.341996c-12.226462 11.811-32.686447 10.939143-48.75747 11.757788-20.536732 1.043772-41.192168-0.070608-61.497633-3.350304-75.191516-12.137435-54.967916-133.555785-40.393989-185.121208 6.725168-23.793916 40.133046-46.989197 57.488319-19.673062 9.198499 14.473643 1.916653 33.547047 1.585101 49.431829-0.313132 15.392572-0.656963 30.79026-0.86981 46.182832-0.319272 23.76424 8.90788 46.573735 31.006178 57.501622 22.234397 10.998495 53.559846 0.539282 64.325028 29.865191 0.887206 2.419096 1.520633 5.052063 0.957815 7.571443C569.845453 442.429897 568.390311 444.450926 566.432727 446.341996M582.388117 419.737058c-11.023054-13.939477-10.873652-47.750537-11.437493-64.707744-0.586354-17.634636 1.388627-35.198663 4.034896-52.608172 0.832971-5.485945 2.725064-43.529399 16.673751-33.727149 3.596921 2.52859 8.435113 0.706081 12.378935 5.194302 12.890588 14.678304 17.025769 34.983769 18.679431 53.875025 0.952698 10.960633-2.405793 22.618137 0.553609 33.388435 4.76042 17.334807 17.551748 12.81998 31.66314 17.21508 25.586748 7.980765 41.24231 30.269397 12.945847 45.13906C649.435139 433.198651 597.08791 438.327462 582.388117 419.737058zM736.139873 315.727193c-3.832282-2.353604-8.368598-3.053546-13.228279-1.078565-24.283056 9.867742-4.149507 47.554062 21.378913 36.992519-0.147356-0.293689-0.25992-0.595564-0.38681-0.896416 0.309038-0.308015 0.688685-0.539282 0.949628-0.917906C751.596913 339.931454 746.357586 321.988804 736.139873 315.727193zM752.159732 398.31312c-15.767102 6.786567-31.175023 7.724938-45.830815-2.731204-10.084683-7.192819-17.23657-17.887392-22.060435-29.274744-10.021238-23.608697-19.142989-51.077306 2.40477-70.483284 13.657045-12.298094 37.884842-25.13547 56.625672-18.027585 13.382798 5.070482 22.468734 17.929348 28.14399 30.451546 11.054777 24.421202 15.767102 65.370847-8.566096 83.972507C759.845785 394.538143 756.147556 396.598059 752.159732 398.31312zM831.934636 329.888727c0.164752 0.167822 0.306992 0.357134 0.477884 0.522909 17.013489 16.610306 39.110763 10.090822 60.309574 12.124132 3.007497 0.289596 5.5279 3.162016 3.490497 6.037507-9.083889 12.839423-22.604834 18.491143-37.19104 23.449062-8.798387 2.995217-16.394389-3.368724-21.968337-10.380418-1.974981 12.604062-8.864902 22.789029-24.152073 16.647145-22.857591-9.17701-22.583344-48.02069-21.716604-67.3929 0.652869-14.504342 5.808286-45.686529 25.759687-29.064966 10.776438 8.977465 11.877515 33.568537 14.491039 45.938262C831.585689 328.489868 831.766814 329.187763 831.934636 329.888727"  horiz-adv-x="1024" />

    
    <glyph glyph-name="500" unicode="&#58907;" d="M1060.571429 91.42857100000003C1060.571429 46.793142999999986 1047.094857 5.266286000000036 1024.109714-29.40342899999996 1024.109714-29.40342899999996 1025.060571-30.006856999999968 1025.060571-30.006856999999968 1025.060571-30.006856999999968 1012.096-46.08000000000004 1012.096-46.08000000000004 1011.712-46.555429000000004 1011.273143-46.95771400000001 1010.889143-47.43314299999997 1006.866286-52.315428999999995 1002.605714-56.978286000000026 998.180571-61.513143000000014 994.761143-65.024 991.158857-68.297143 987.538286-71.55200000000002 984.886857-73.94742900000006 982.308571-76.39771399999995 979.529143-78.66514299999994 976.182857-81.38971400000003 972.672-83.87657100000001 969.179429-86.39999999999998 966.582857-88.28342899999996 963.986286-90.18514300000004 961.298286-91.95885699999997 957.714286-94.31771400000002 954.020571-96.51199999999994 950.290286-98.65142900000001 947.437714-100.297143 944.548571-101.90628600000002 941.604571-103.42399999999998 937.929143-105.32571399999995 934.217143-107.13599999999997 930.432-108.81828599999994 927.140571-110.29942900000003 923.776-111.63428599999997 920.393143-112.95085700000004 916.790857-114.35885699999994 913.206857-115.74857099999997 909.531429-116.93714299999999 905.618286-118.23542899999995 901.613714-119.29600000000005 897.609143-120.35657100000003 894.281143-121.25257099999999 890.989714-122.22171400000002 887.606857-122.93485699999997 882.761143-123.99542899999994 877.824-124.708571 872.868571-125.44000000000005 870.162286-125.82399999999996 867.492571-126.39085699999998 864.749714-126.68342900000005 856.996571-127.50628600000005 849.133714-128 841.142857-128 833.170286-128 825.289143-127.50628600000005 817.536-126.68342900000005 814.793143-126.39085699999998 812.123429-125.82399999999996 809.417143-125.44000000000005 804.461714-124.708571 799.524571-123.99542899999994 794.678857-122.93485699999997 791.296-122.22171400000002 788.004571-121.25257099999999 784.676571-120.35657100000003 780.672-119.29600000000005 776.667429-118.23542899999995 772.754286-116.93714299999999 769.078857-115.74857099999997 765.494857-114.35885699999994 761.892571-112.95085700000004 758.509714-111.63428599999997 755.163429-110.29942900000003 751.853714-108.81828599999994 748.068571-107.13599999999997 744.356571-105.32571399999995 740.681143-103.42399999999998 737.737143-101.90628600000002 734.866286-100.297143 731.995429-98.65142900000001 728.265143-96.51199999999994 724.571429-94.31771400000002 720.969143-91.95885699999997 718.299429-90.18514300000004 715.721143-88.28342899999996 713.124571-86.41828599999997 709.613714-83.894857 706.102857-81.40800000000002 702.756571-78.66514299999994 699.977143-76.39771399999995 697.398857-73.94742900000006 694.747429-71.55200000000002 691.145143-68.315429 687.561143-65.06057099999998 684.141714-61.567999999999984 679.716571-57.014857000000006 675.419429-52.333713999999986 671.396571-47.414856999999984 671.012571-46.95771400000001 670.573714-46.555429000000004 670.189714-46.08000000000004 670.189714-46.08000000000004 657.225143-30.006856999999968 657.225143-30.006856999999968 657.225143-30.006856999999968 658.176-29.40342899999996 658.176-29.40342899999996 635.190857 5.266286000000036 621.714286 46.793142999999986 621.714286 91.42857100000003 621.714286 136.06399999999996 635.190857 177.59085700000003 658.176 212.26057100000003 658.176 212.26057100000003 657.225143 212.86400000000003 657.225143 212.86400000000003 657.225143 212.86400000000003 670.189714 228.95542899999998 670.189714 228.95542899999998 670.573714 229.41257099999996 671.030857 229.81485699999996 671.414857 230.29028600000004 675.382857 235.13599999999997 679.606857 239.74400000000003 683.977143 244.22400000000005 687.451429 247.808 691.108571 251.13599999999997 694.802286 254.46400000000006 697.435429 256.822857 699.995429 259.273143 702.738286 261.504 706.102857 264.26514299999997 709.632 266.75199999999995 713.142857 269.293714 715.721143 271.158857 718.299429 273.042286 720.969143 274.79771400000004 724.571429 277.174857 728.265143 279.369143 732.013714 281.52685699999995 734.866286 283.17257099999995 737.737143 284.763429 740.662857 286.28114300000004 744.356571 288.182857 748.068571 289.99314300000003 751.872 291.675429 755.163429 293.156571 758.509714 294.49142900000004 761.874286 295.808 765.494857 297.216 769.078857 298.60571400000003 772.772571 299.79428600000006 776.667429 301.092571 780.672 302.153143 784.676571 303.213714 788.004571 304.10971400000005 791.296 305.07885699999997 794.678857 305.79200000000003 799.524571 306.852571 804.461714 307.56571399999996 809.417143 308.297143 812.123429 308.681143 814.793143 309.24800000000005 817.536 309.540571 825.289143 310.363429 833.170286 310.85714299999995 841.142857 310.85714299999995 849.133714 310.85714299999995 856.996571 310.363429 864.749714 309.540571 867.492571 309.24800000000005 870.162286 308.681143 872.868571 308.297143 877.824 307.56571399999996 882.761143 306.852571 887.606857 305.79200000000003 890.989714 305.07885699999997 894.281143 304.10971400000005 897.609143 303.213714 901.613714 302.153143 905.618286 301.092571 909.531429 299.79428600000006 913.206857 298.60571400000003 916.790857 297.216 920.393143 295.808 923.776 294.49142900000004 927.122286 293.156571 930.432 291.675429 934.217143 289.99314300000003 937.929143 288.182857 941.604571 286.28114300000004 944.548571 284.763429 947.419429 283.15428599999996 950.290286 281.50857099999996 954.020571 279.369143 957.714286 277.174857 961.316571 274.81600000000003 963.986286 273.042286 966.564571 271.158857 969.161143 269.27542900000003 972.672 266.75199999999995 976.182857 264.246857 979.547429 261.504 982.290286 259.273143 984.850286 256.822857 987.483429 254.46400000000006 991.195429 251.11771399999998 994.870857 247.771429 998.363429 244.16914299999996 1002.697143 239.70742900000005 1006.921143 235.11771399999998 1010.870857 230.30857100000003 1011.254857 229.83314299999995 1011.712 229.43085699999995 1012.096 228.95542899999998 1012.096 228.95542899999998 1025.060571 212.86400000000003 1025.060571 212.86400000000003 1025.060571 212.86400000000003 1024.109714 212.26057100000003 1024.109714 212.26057100000003 1047.094857 177.59085700000003 1060.571429 136.06399999999996 1060.571429 91.42857100000003ZM965.376 225.206857C960.658286 229.61371399999996 955.721143 233.72799999999995 950.582857 237.56799999999998 948.900571 238.82971399999997 947.254857 240.14628600000003 945.517714 241.35314300000005 939.117714 245.81485699999996 932.461714 249.87428599999998 925.586286 253.45828600000004 925.147429 253.67771400000004 924.708571 253.86057100000005 924.288 254.08000000000004 931.693714 242.029714 938.185143 228.27885700000002 943.707429 213.22971399999994 952.356571 216.009143 960.694857 219.02628600000003 968.356571 222.50057100000004 967.405714 223.43314299999997 966.363429 224.29257099999995 965.376 225.206857ZM756.699429 253.45828600000004C749.824 249.87428599999998 743.168 245.81485699999996 736.768 241.37142900000003 735.030857 240.14628600000003 733.366857 238.82971399999997 731.684571 237.549714 726.564571 233.72799999999995 721.645714 229.61371399999996 716.928 225.243429 715.940571 224.31085700000006 714.898286 223.45142899999996 713.929143 222.50057100000004 721.590857 219.02628600000003 729.929143 216.009143 738.578286 213.22971399999994 744.100571 228.27885700000002 750.592 242.029714 757.997714 254.08000000000004 757.577143 253.86057100000005 757.12 253.67771400000004 756.699429 253.45828600000004ZM716.928-42.38628600000004C721.645714-46.75657100000001 726.564571-50.870857 731.684571-54.692571000000044 733.366857-55.972571000000016 735.030857-57.28914299999997 736.768-58.51428599999997 743.168-62.95771400000001 749.824-67.01714300000003 756.699429-70.60114299999998 757.12-70.82057099999997 757.577143-71.00342899999998 757.997714-71.22285699999998 750.592-59.17257099999995 744.100571-45.42171399999995 738.578286-30.372570999999994 729.929143-33.152000000000044 721.590857-36.16914299999996 713.929143-39.64342899999997 714.898286-40.59428600000001 715.940571-41.45371399999999 716.928-42.38628600000004ZM925.586286-70.60114299999998C932.461714-67.01714300000003 939.117714-62.95771400000001 945.517714-58.49599999999998 947.254857-57.28914299999997 948.900571-55.972571000000016 950.582857-54.71085700000003 955.721143-50.870857 960.658286-46.75657100000001 965.376-42.34971399999995 966.363429-41.435429 967.405714-40.57600000000002 968.356571-39.64342899999997 960.694857-36.16914299999996 952.356571-33.152000000000044 943.707429-30.372570999999994 938.185143-45.42171399999995 931.693714-59.17257099999995 924.288-71.22285699999998 924.708571-71.00342899999998 925.147429-70.82057099999997 925.586286-70.60114299999998ZM992.420571-11.154285999999956C1009.097143 13.366856999999982 1019.977143 42.111999999999966 1023.067429 73.14285700000005 1023.067429 73.14285700000005 963.529143 73.14285700000005 963.529143 73.14285700000005 962.450286 48.89599999999996 959.158857 25.984000000000037 954.166857 4.754285999999979 968.064 0.34742900000003374 980.608-5.156570999999985 992.420571-11.154285999999956ZM859.428571 162.15771400000006C859.428571 162.15771400000006 859.428571 109.71428600000002 859.428571 109.71428600000002 859.428571 109.71428600000002 926.628571 109.71428600000002 926.628571 109.71428600000002 925.568 131.18171400000006 922.642286 151.03999999999996 918.4 169.14285700000005 899.620571 165.43085699999995 879.835429 163.053714 859.428571 162.15771400000006ZM907.483429 204.17828599999996C894.829714 236.726857 877.549714 259.894857 859.428571 269.293714 859.428571 269.293714 859.428571 199.03999999999996 859.428571 199.03999999999996 876.013714 199.82628599999998 892.214857 201.38057100000003 907.483429 204.17828599999996ZM859.428571 73.14285700000005C859.428571 73.14285700000005 859.428571 20.69942900000001 859.428571 20.69942900000001 879.835429 19.80342900000005 899.620571 17.426286000000005 918.4 13.714286000000016 922.642286 31.817142999999987 925.568 51.67542900000001 926.628571 73.14285700000005 926.628571 73.14285700000005 859.428571 73.14285700000005 859.428571 73.14285700000005ZM859.428571-16.182857000000013C859.428571-16.182857000000013 859.428571-86.43657099999996 859.428571-86.43657099999996 877.549714-77.03771400000005 894.829714-53.869714000000045 907.483429-21.321143000000006 892.214857-18.523428999999965 876.013714-16.96914300000003 859.428571-16.182857000000013ZM763.885714 169.14285700000005C759.643429 151.03999999999996 756.717714 131.18171400000006 755.638857 109.71428600000002 755.638857 109.71428600000002 822.857143 109.71428600000002 822.857143 109.71428600000002 822.857143 109.71428600000002 822.857143 162.15771400000006 822.857143 162.15771400000006 802.450286 163.053714 782.665143 165.43085699999995 763.885714 169.14285700000005ZM822.857143 199.03999999999996C822.857143 199.03999999999996 822.857143 269.293714 822.857143 269.293714 804.736 259.894857 787.456 236.708571 774.802286 204.17828599999996 790.070857 201.38057100000003 806.272 199.82628599999998 822.857143 199.03999999999996ZM755.638857 73.14285700000005C756.717714 51.67542900000001 759.643429 31.817142999999987 763.885714 13.714286000000016 782.665143 17.426286000000005 802.450286 19.80342900000005 822.857143 20.69942900000001 822.857143 20.69942900000001 822.857143 73.14285700000005 822.857143 73.14285700000005 822.857143 73.14285700000005 755.638857 73.14285700000005 755.638857 73.14285700000005ZM774.802286-21.321143000000006C787.456-53.85142900000005 804.736-77.03771400000005 822.857143-86.43657099999996 822.857143-86.43657099999996 822.857143-16.182857000000013 822.857143-16.182857000000013 806.272-16.96914300000003 790.070857-18.523428999999965 774.802286-21.321143000000006ZM728.118857 4.754285999999979C723.126857 25.984000000000037 719.835429 48.89599999999996 718.756571 73.14285700000005 718.756571 73.14285700000005 659.218286 73.14285700000005 659.218286 73.14285700000005 662.308571 42.111999999999966 673.188571 13.366856999999982 689.865143-11.154285999999956 701.677714-5.156570999999985 714.221714 0.34742900000003374 728.118857 4.754285999999979ZM718.756571 109.71428600000002C719.835429 133.961143 723.126857 156.87314300000003 728.118857 178.10285699999997 714.221714 182.50971400000003 701.677714 188.01371400000005 689.865143 194.01142900000002 673.188571 169.49028599999997 662.308571 140.74514299999998 659.218286 109.71428600000002 659.218286 109.71428600000002 718.756571 109.71428600000002 718.756571 109.71428600000002ZM954.166857 178.10285699999997C959.158857 156.87314300000003 962.450286 133.961143 963.529143 109.71428600000002 963.529143 109.71428600000002 1023.067429 109.71428600000002 1023.067429 109.71428600000002 1019.977143 140.74514299999998 1009.097143 169.49028599999997 992.420571 194.01142900000002 980.608 188.01371400000005 968.064 182.50971400000003 954.166857 178.10285699999997ZM859.428571 576C869.485714 576 877.714286 567.771429 877.714286 557.714286 877.714286 547.657143 869.485714 539.4285709999999 859.428571 539.4285709999999 849.371429 539.4285709999999 841.142857 547.657143 841.142857 557.714286 841.142857 567.771429 849.371429 576 859.428571 576ZM859.428571 512C869.485714 512 877.714286 503.771429 877.714286 493.714286 877.714286 483.657143 869.485714 475.428571 859.428571 475.428571 849.371429 475.428571 841.142857 483.657143 841.142857 493.714286 841.142857 503.771429 849.371429 512 859.428571 512ZM872.411429 378.697143C875.702857 375.222857 877.714286 370.468571 877.714286 365.714286 877.714286 360.96000000000004 875.702857 356.20571399999994 872.411429 352.73142900000005 868.937143 349.44000000000005 864.182857 347.42857100000003 859.428571 347.42857100000003 854.674286 347.42857100000003 849.92 349.44000000000005 846.445714 352.73142900000005 843.154286 356.20571399999994 841.142857 360.96000000000004 841.142857 365.714286 841.142857 370.468571 843.154286 375.222857 846.445714 378.697143 853.394286 385.462857 865.462857 385.462857 872.411429 378.697143ZM859.428571 448C869.485714 448 877.714286 439.771429 877.714286 429.714286 877.714286 419.657143 869.485714 411.428571 859.428571 411.428571 849.371429 411.428571 841.142857 419.657143 841.142857 429.714286 841.142857 439.771429 849.371429 448 859.428571 448ZM859.428571 603.4285709999999C809.014857 603.4285709999999 768 644.443429 768 694.857143 768 745.270857 809.014857 786.285714 859.428571 786.285714 909.842286 786.285714 950.857143 745.270857 950.857143 694.857143 950.857143 644.443429 909.842286 603.4285709999999 859.428571 603.4285709999999ZM859.428571 749.714286C829.184 749.714286 804.571429 725.101714 804.571429 694.857143 804.571429 664.612571 829.184 640 859.428571 640 889.673143 640 914.285714 664.612571 914.285714 694.857143 914.285714 725.101714 889.673143 749.714286 859.428571 749.714286ZM722.285714 676.571429C712.228571 676.571429 704 684.8 704 694.857143 704 704.914286 712.228571 713.142857 722.285714 713.142857 732.342857 713.142857 740.571429 704.914286 740.571429 694.857143 740.571429 684.8 732.342857 676.571429 722.285714 676.571429ZM658.285714 676.571429C648.228571 676.571429 640 684.8 640 694.857143 640 704.914286 648.228571 713.142857 658.285714 713.142857 668.342857 713.142857 676.571429 704.914286 676.571429 694.857143 676.571429 684.8 668.342857 676.571429 658.285714 676.571429ZM594.285714 676.571429C584.228571 676.571429 576 684.8 576 694.857143 576 704.914286 584.228571 713.142857 594.285714 713.142857 604.342857 713.142857 612.571429 704.914286 612.571429 694.857143 612.571429 684.8 604.342857 676.571429 594.285714 676.571429ZM585.142857 73.14285700000005C585.142857 68.38857099999996 583.131429 63.652570999999966 579.84 60.15999999999997 576.365714 56.868570999999974 571.611429 54.85714299999995 566.857143 54.85714299999995 562.102857 54.85714299999995 557.348571 56.868570999999974 553.874286 60.15999999999997 550.582857 63.652570999999966 548.571429 68.38857099999996 548.571429 73.14285700000005 548.571429 77.89714300000003 550.582857 82.669714 553.874286 86.12571400000002 560.822857 92.89142900000002 572.891429 92.89142900000002 579.84 86.12571400000002 583.131429 82.669714 585.142857 77.89714300000003 585.142857 73.14285700000005ZM530.285714 676.571429C525.531429 676.571429 520.777143 678.582857 517.302857 681.874286 514.011429 685.348571 512 690.102857 512 694.857143 512 699.611429 514.011429 704.365714 517.302857 707.84 524.068571 714.605714 536.32 714.605714 543.268571 707.84 546.56 704.365714 548.571429 699.611429 548.571429 694.857143 548.571429 690.102857 546.56 685.348571 543.268571 681.874286 539.794286 678.418286 535.04 676.571429 530.285714 676.571429ZM521.142857 73.14285700000005C521.142857 63.08571400000005 512.914286 54.85714299999995 502.857143 54.85714299999995 492.8 54.85714299999995 484.571429 63.08571400000005 484.571429 73.14285700000005 484.571429 83.20000000000005 492.8 91.42857100000003 502.857143 91.42857100000003 512.914286 91.42857100000003 521.142857 83.20000000000005 521.142857 73.14285700000005ZM420.571429 530.285714C420.571429 530.285714 292.571429 530.285714 292.571429 530.285714 292.571429 530.285714 292.571429 493.714286 292.571429 493.714286 292.571429 493.714286 310.857143 493.714286 310.857143 493.714286 320.950857 493.714286 329.142857 485.540571 329.142857 475.428571 329.142857 465.316571 320.950857 457.142857 310.857143 457.142857 310.857143 457.142857 164.571429 457.142857 164.571429 457.142857 154.477714 457.142857 146.285714 465.316571 146.285714 475.428571 146.285714 485.540571 154.477714 493.714286 164.571429 493.714286 164.571429 493.714286 182.857143 493.714286 182.857143 493.714286 182.857143 493.714286 182.857143 530.285714 182.857143 530.285714 182.857143 530.285714 54.857143 530.285714 54.857143 530.285714 24.612571 530.285714 0 554.898286 0 585.142857 0 585.142857 0 841.142857 0 841.142857 0 871.387429 24.612571 896 54.857143 896 54.857143 896 420.571429 896 420.571429 896 450.816 896 475.428571 871.387429 475.428571 841.142857 475.428571 841.142857 475.428571 585.142857 475.428571 585.142857 475.428571 554.898286 450.816 530.285714 420.571429 530.285714ZM219.428571 493.714286C219.428571 493.714286 256 493.714286 256 493.714286 256 493.714286 256 530.285714 256 530.285714 256 530.285714 219.428571 530.285714 219.428571 530.285714 219.428571 530.285714 219.428571 493.714286 219.428571 493.714286ZM438.857143 841.142857C438.857143 851.236571 430.646857 859.428571 420.571429 859.428571 420.571429 859.428571 54.857143 859.428571 54.857143 859.428571 44.781714 859.428571 36.571429 851.236571 36.571429 841.142857 36.571429 841.142857 36.571429 640 36.571429 640 36.571429 640 438.857143 640 438.857143 640 438.857143 640 438.857143 841.142857 438.857143 841.142857ZM438.857143 603.4285709999999C438.857143 603.4285709999999 36.571429 603.4285709999999 36.571429 603.4285709999999 36.571429 603.4285709999999 36.571429 585.142857 36.571429 585.142857 36.571429 575.049143 44.781714 566.857143 54.857143 566.857143 54.857143 566.857143 420.571429 566.857143 420.571429 566.857143 430.646857 566.857143 438.857143 575.049143 438.857143 585.142857 438.857143 585.142857 438.857143 603.4285709999999 438.857143 603.4285709999999ZM237.714286 192C227.657143 192 219.428571 200.228571 219.428571 210.28571399999998 219.428571 220.34285699999998 227.657143 228.57142899999997 237.714286 228.57142899999997 247.771429 228.57142899999997 256 220.34285699999998 256 210.28571399999998 256 200.228571 247.771429 192 237.714286 192ZM237.714286 256C227.657143 256 219.428571 264.228571 219.428571 274.285714 219.428571 284.342857 227.657143 292.57142899999997 237.714286 292.57142899999997 247.771429 292.57142899999997 256 284.342857 256 274.285714 256 264.228571 247.771429 256 237.714286 256ZM224.731429 389.302857C221.44 392.777143 219.428571 397.531429 219.428571 402.285714 219.428571 407.04 221.44 411.812571 224.731429 415.268571 231.497143 422.034286 243.931429 422.034286 250.697143 415.268571 253.988571 411.812571 256 407.04 256 402.285714 256 397.531429 253.988571 392.777143 250.697143 389.302857 247.222857 386.011429 242.468571 384 237.714286 384 232.96 384 228.205714 386.011429 224.731429 389.302857ZM237.714286 320C227.657143 320 219.428571 328.228571 219.428571 338.285714 219.428571 348.342857 227.657143 356.57142899999997 237.714286 356.57142899999997 247.771429 356.57142899999997 256 348.342857 256 338.285714 256 328.228571 247.771429 320 237.714286 320ZM237.714286 164.57142899999997C288.128 164.57142899999997 329.142857 123.55657099999996 329.142857 73.14285700000005 329.142857 22.729143000000022 288.128-18.285713999999984 237.714286-18.285713999999984 187.300571-18.285713999999984 146.285714 22.729143000000022 146.285714 73.14285700000005 146.285714 123.55657099999996 187.300571 164.57142899999997 237.714286 164.57142899999997ZM237.714286 18.285713999999984C267.958857 18.285713999999984 292.571429 42.898285999999985 292.571429 73.14285700000005 292.571429 103.387429 267.958857 128 237.714286 128 207.469714 128 182.857143 103.387429 182.857143 73.14285700000005 182.857143 42.898285999999985 207.469714 18.285713999999984 237.714286 18.285713999999984ZM374.857143 91.42857100000003C384.914286 91.42857100000003 393.142857 83.20000000000005 393.142857 73.14285700000005 393.142857 63.08571400000005 384.914286 54.85714299999995 374.857143 54.85714299999995 364.8 54.85714299999995 356.571429 63.08571400000005 356.571429 73.14285700000005 356.571429 83.20000000000005 364.8 91.42857100000003 374.857143 91.42857100000003ZM438.857143 91.42857100000003C448.914286 91.42857100000003 457.142857 83.20000000000005 457.142857 73.14285700000005 457.142857 63.08571400000005 448.914286 54.85714299999995 438.857143 54.85714299999995 428.8 54.85714299999995 420.571429 63.08571400000005 420.571429 73.14285700000005 420.571429 83.20000000000005 428.8 91.42857100000003 438.857143 91.42857100000003Z"  horiz-adv-x="1061" />

    
    <glyph glyph-name="asterisk" unicode="&#58905;" d="M883.374592 295.972864q26.284032-14.856192 33.997824-44.28288t-7.1424-55.71072l-36.569088-62.85312q-14.856192-26.284032-44.28288-33.997824t-55.71072 7.1424l-151.990272 87.422976 0-175.417344q0-29.712384-21.712896-51.42528t-51.42528-21.712896l-73.138176 0q-29.712384 0-51.42528 21.712896t-21.712896 51.42528l0 175.417344-151.990272-87.422976q-26.284032-14.856192-55.71072-7.1424t-44.28288 33.997824l-36.569088 62.85312q-14.856192 26.284032-7.1424 55.71072t33.997824 44.28288l151.990272 87.994368-151.990272 87.994368q-26.284032 14.856192-33.997824 44.28288t7.1424 55.71072l36.569088 62.85312q14.856192 26.284032 44.28288 33.997824t55.71072-7.1424l151.990272-87.422976 0 175.417344q0 29.712384 21.712896 51.42528t51.42528 21.712896l73.138176 0q29.712384 0 51.42528-21.712896t21.712896-51.42528l0-175.417344 151.990272 87.422976q26.284032 14.856192 55.71072 7.1424t44.28288-33.997824l36.569088-62.85312q14.856192-26.284032 7.1424-55.71072t-33.997824-44.28288l-151.990272-87.994368z"  horiz-adv-x="1024" />

    
    <glyph glyph-name="calendar" unicode="&#58900;" d="M795.660478 409.385157l-154.723897 0 0-78.169337 154.723897 0L795.660478 409.385157zM589.361949 409.385157l-154.723897 0 0-78.169337 154.723897 0L589.361949 409.385157zM795.660478 280.448576l-154.723897 0 0-78.169337 154.723897 0L795.660478 280.448576zM731.277122 614.071979l0.63445 0c21.411659 0 38.765909 17.355273 38.765909 38.765909l0 79.608106c0 21.411659-17.355273 38.768979-38.765909 38.768979l-0.63445 0c-21.411659 0-38.765909-17.35732-38.765909-38.768979l0-79.608106C692.511213 631.427252 709.865463 614.071979 731.277122 614.071979zM292.892747 614.071979l0.63445 0c21.411659 0 38.765909 17.355273 38.765909 38.765909l0 79.608106c0 21.411659-17.355273 38.768979-38.765909 38.768979l-0.63445 0c-21.408589 0-38.765909-17.35732-38.765909-38.768979l0-79.608106C254.126838 631.427252 271.484158 614.071979 292.892747 614.071979zM589.361949 280.448576l-154.723897 0 0-78.169337 154.723897 0L589.361949 280.448576zM847.235111 718.832951l-26.591635 0L820.643476 603.679281c0-21.408589-17.35732-38.763862-38.765909-38.763862l-102.174054 0c-21.408589 0-38.765909 17.355273-38.765909 38.763862L640.937604 718.832951 382.2591 718.832951 382.2591 603.679281c0-21.408589-17.35732-38.763862-38.765909-38.763862l-102.174054 0c-21.408589 0-38.765909 17.355273-38.765909 38.763862L202.553229 718.832951l-25.787316 0c-42.727127 0-77.361949-34.634822-77.361949-77.361949l0-618.895589c0-42.727127 34.634822-77.361949 77.361949-77.361949l670.470221 0c42.727127 0 77.361949 34.634822 77.361949 77.361949l0 618.895589C924.597059 684.19813 889.962238 718.832951 847.235111 718.832951zM873.022427-2.404514l-722.044854 0 0 489.959008 722.044854 0L873.022427-2.404514zM383.063419 151.511995l-154.723897 0 0-78.166267 154.723897 0L383.063419 151.511995zM383.063419 280.448576l-154.723897 0 0-78.169337 154.723897 0L383.063419 280.448576zM589.361949 151.511995l-154.723897 0 0-78.166267 154.723897 0L589.361949 151.511995z"  horiz-adv-x="1024" />

    
    <glyph glyph-name="charge1" unicode="&#59041;" d="M537.6-25.6c-116.226 0-225.544 45.247-307.749 127.451-82.204 82.204-127.451 191.523-127.451 307.749 0 116.226 45.247 225.544 127.451 307.749 82.204 82.204 191.523 127.451 307.749 127.451 92.394 0 180.815-28.668 255.421-82.895 11.571-8.462 14.161-24.523 5.699-36.267-8.462-11.571-24.523-14.161-36.267-5.699-65.625 47.837-143.34 73.051-224.853 73.051-211.383 0-383.39-172.008-383.39-383.39 0-211.383 172.008-383.39 383.39-383.39 211.383 0 383.39 172.008 383.39 383.39 0 70.634-19.342 139.713-55.954 199.639-7.426 12.262-3.627 28.15 8.635 35.576 12.262 7.426 28.15 3.627 35.576-8.635 41.62-68.043 63.553-146.448 63.553-226.58 0-116.226-45.247-225.544-127.451-307.749-82.204-82.204-191.523-127.451-307.749-127.451v0 0zM542.436 94.598c29.704 0 53.709 24.005 53.709 53.709v70.806h107.937c29.877 0 53.882 24.005 53.882 53.709 0 29.531-24.005 53.709-53.882 53.709h-107.937v53.709h107.937c29.877 0 53.882 24.005 53.882 53.709 0 29.704-24.005 53.709-53.882 53.709h-81.168l93.084 93.257c20.897 20.897 20.897 54.918 0 76.16-20.897 20.897-55.091 20.897-75.987 0l-90.149-90.149-90.149 90.149c-20.897 21.069-54.918 21.069-75.987 0-21.069-21.069-21.069-55.091 0-76.16l93.257-93.257h-95.33c-29.531 0-53.709-24.005-53.709-53.709 0-29.704 24.178-53.709 53.709-53.709h107.073v-53.709h-107.073c-29.531 0-53.709-24.178-53.709-53.709 0-29.704 24.178-53.709 53.709-53.709h107.073v-70.806c-0.173-29.704 24.005-53.709 53.709-53.709v0 0z"  horiz-adv-x="1024" />

    
    <glyph glyph-name="email" unicode="&#58913;" d="M999.144727 435.6096L1441.233455 866.9184c12.511418-12.436945 20.293818-29.677382 20.293818-48.761018l0-868.296145c0-18.0224-7.056291-34.313309-18.357527-46.545455L999.144727 435.6096zM31.967418 868.873309C44.032 879.839418 59.857455 886.690909 77.377164 886.690909l1316.082036 0c17.519709 0 33.363782-6.851491 45.409745-17.8176L735.418182 315.447855 31.967418 868.873309zM27.666618-96.68421799999999c-11.301236 12.232145-18.357527 28.523055-18.357527 46.545455L9.309091 818.138764c0 19.083636 7.7824 36.324073 20.293818 48.761018l442.088727-431.290182L27.666618-96.68421799999999zM735.418182 178.34356400000001l184.599273 180.093673 520.117527-458.267927c-12.194909-11.617745-28.560291-18.860218-46.675782-18.860218L77.377164-118.69090900000003c-18.115491 0-34.480873 7.242473-46.675782 18.860218l520.098909 458.267927L735.418182 178.34356400000001z"  horiz-adv-x="1471" />

    
    <glyph glyph-name="edit" unicode="&#59060;" d="M249.6 57.60000000000002c19.2 0 38.4 6.4 57.6 19.2l6.4 0L134.4 256l0-6.4c-12.8-19.2-19.2-38.4-19.2-57.6l-64-198.4L249.6 57.60000000000002 249.6 57.60000000000002 249.6 57.60000000000002 249.6 57.60000000000002zM889.6 774.4L832 832c-32 32-83.2 32-115.2 0l-57.6-57.6L832 601.6l57.6 57.6C921.6 691.2 921.6 742.4 889.6 774.4L889.6 774.4 889.6 774.4 889.6 774.4zM774.4 544L601.6 716.8 198.4 313.6l172.8-172.8L774.4 544 774.4 544 774.4 544 774.4 544zM0-64l1024 0 0-64L0-128 0-64 0-64z"  horiz-adv-x="1024" />

    
    <glyph glyph-name="team" unicode="&#58952;" d="M999.038492 162.215778c-11.493775 52.060703-40.348963 99.338473-81.498152 133.418662-13.077853 10.831696-27.231201 20.163225-42.163285 27.907607 54.177923 35.82288 89.99364 97.275487 89.99364 166.946266 0 106.172111-83.165118 193.250352-187.768501 199.600991 0.016373-0.085958 0.014326-0.185218 0.027629-0.274246-15.863293-0.728594-28.502148-13.817704-28.502148-29.861098 0-16.066931 12.675694-29.169343 28.571732-29.863145l0-0.10847c71.473845-6.271844 127.73215-66.418712 127.73215-139.493008 0-77.235059-62.836117-140.070152-140.071176-140.070152-4.01443 0-7.981788 0.198521-11.908214 0.544399-1.62194 0.264013-3.28379 0.406253-4.980431 0.406253-17.017582 0-30.812773-13.795191-30.812773-30.812773 0-17.017582 13.795191-30.812773 30.812773-30.812773 0.589424 0 1.173732 0.020466 1.75497 0.053212l0-0.01842c5.000897 0.440022 10.042727 0.699941 15.133675 0.699941 81.950454 0 153.85511-56.668651 173.880189-135.831618-7.305383-3.559059-22.191418-9.125845-50.508347-14.280238-9.829879-1.789763-20.410865-3.344165-31.535227-4.660136-16.166191-0.397043-29.150924-13.616112-29.150924-29.877471 0-16.512069 13.384845-29.896914 29.896914-29.896914 0.171915 0 0.340761 0.010233 0.511653 0.013303 0-0.004093-0.002047-0.008186-0.002047-0.013303 0.106424 0.00614 0.215918 0.01535 0.322341 0.021489 0.813528 0.022513 1.61887 0.071631 2.415003 0.157589 19.046798 1.327228 41.401945 5.553483 56.814983 9.067516 21.595854 4.922103 39.024805 10.909467 51.80283 17.795295 26.428929 14.241352 31.977295 32.16763 31.977295 44.698015C1001.787092 152.56395399999997 1000.86407 157.43796099999997 999.038492 162.215778zM24.961508 162.215778c11.492752 52.060703 40.348963 99.338473 81.498152 133.418662 13.077853 10.831696 27.231201 20.163225 42.163285 27.907607C94.445022 359.36492699999997 58.629305 420.817534 58.629305 490.488313c0 106.172111 83.165118 193.250352 187.768501 199.600991-0.016373-0.085958-0.014326-0.185218-0.027629-0.274246 15.863293-0.728594 28.502148-13.817704 28.502148-29.861098 0-16.066931-12.675694-29.169343-28.571732-29.863145l0-0.10847c-71.473845-6.271844-127.731126-66.418712-127.731126-139.493008 0-77.235059 62.836117-140.070152 140.071176-140.070152 4.01443 0 7.981788 0.198521 11.908214 0.544399 1.62194 0.264013 3.28379 0.406253 4.980431 0.406253 17.017582 0 30.812773-13.795191 30.812773-30.812773 0-17.017582-13.795191-30.812773-30.812773-30.812773-0.589424 0-1.173732 0.020466-1.75497 0.053212l0-0.01842c-5.000897 0.440022-10.042727 0.699941-15.133675 0.699941-81.950454 0-153.85511-56.668651-173.880189-135.831618 7.305383-3.559059 22.191418-9.125845 50.508347-14.280238 9.829879-1.789763 20.410865-3.344165 31.535227-4.660136 16.166191-0.397043 29.150924-13.616112 29.150924-29.877471 0-16.512069-13.384845-29.896914-29.896914-29.896914-0.171915 0-0.340761 0.010233-0.511653 0.013303 0-0.004093 0.002047-0.008186 0.002047-0.013303-0.106424 0.00614-0.215918 0.01535-0.322341 0.021489-0.813528 0.022513-1.61887 0.071631-2.415003 0.157589-19.046798 1.327228-41.401945 5.553483-56.814983 9.067516-21.595854 4.922103-39.024805 10.909467-51.80283 17.795295-26.428929 14.241352-31.977295 32.16763-31.977295 44.698015C22.211884 152.56395399999997 23.134907 157.43796099999997 24.961508 162.215778zM695.364191 272.50055699999996c-18.431791 15.264659-38.530548 28.030403-59.974953 38.130436 16.734126 9.970072 32.344662 22.086018 46.477544 36.2189 44.655036 44.655036 69.24713 104.027262 69.24713 167.178557s-24.592095 122.523521-69.24713 167.178557c-44.655036 44.655036-104.027262 69.248154-167.17958 69.248154s-122.523521-24.593118-167.17958-69.248154c-44.655036-44.655036-69.248154-104.027262-69.248154-167.17958s24.593118-122.523521 69.248154-167.178557c14.132882-14.132882 29.743418-26.248827 46.477544-36.2189-21.444405-10.100032-41.543162-22.865777-59.97393-38.130436-48.989761-40.573067-83.308381-96.907097-96.885608-158.914336-2.046612-5.207605-3.081175-10.503215-3.081175-15.794731 0-13.465686 6.15007-32.830733 35.452443-48.621371 15.005762-8.085142 35.622312-15.151072 61.278645-20.998243 49.469692-11.276834 114.783233-17.486256 183.912683-17.486256 69.128427 0 134.442992 6.209422 183.912683 17.486256 25.656333 5.847172 46.273906 12.913101 61.278645 20.998243 29.30135 15.790638 35.452443 35.155684 35.452443 48.621371 0 5.291516-1.035586 10.586103-3.082198 15.794731C778.672572 175.59448299999997 744.353952 231.92748900000004 695.364191 272.50055699999996zM338.198605 514.0294719999999c0 97.315396 79.172177 176.487573 176.487573 176.487573s176.487573-79.172177 176.487573-176.487573S612.002598 337.54189899999994 514.687202 337.54189899999994 338.198605 416.714076 338.198605 514.0294719999999zM668.401096 83.12034800000004c-42.926672-8.057513-97.515964-12.495592-153.714917-12.495592s-110.787222 4.438079-153.713894 12.495592c-36.939307 6.933923-56.408731 14.919804-64.819285 19.776416 23.245424 101.514021 114.400516 174.704974 218.533179 174.704974 104.133685 0 195.288778-73.190953 218.532155-174.704974C724.808804 98.04015300000003 705.340403 90.055295 668.401096 83.12034800000004z"  horiz-adv-x="1024" />

    
    <glyph glyph-name="map" unicode="&#58893;" d="M1045.712039 329.650985C1123.920209 430.209436 1183.979182 515.562502 1183.979182 612.114744 1183.979182 768.947798 1051.528898 896 887.956366 896 724.400646 896 591.942892 768.860463 591.942892 612.114744 591.942892 525.433087 643.427882 442.659158 710.725237 353.21254899999997L629.754341 327.430475 472.807499 376.772255C492.202632 409.052341 504.622764 440.342023 504.622764 474.036174 504.622764 563.0405390000001 432.223982 635.137438 343.028412 635.137438 253.737577 635.137438 181.434061 563.0405390000001 181.434061 474.036174 181.434061 436.872824 197.793743 400.863396 221.477735 363.612712L220.76417 363.527236 0-127.777826 333.555937-2.598655000000008 637.08052-127.777826 922.0188-2.598655000000008 1251.28401-127.777826 1045.712039 329.650985 1045.712039 329.650985ZM888.051633 750.011212C967.417944 750.011212 1031.769511 688.314477 1031.769511 612.114744 1031.769511 535.922442 967.332017 474.13094 888.051633 474.13094 808.597527 474.13094 744.335623 535.922442 744.335623 612.114744 744.335623 688.314477 808.597527 750.011212 888.051633 750.011212L888.051633 750.011212ZM343.12368 552.2761760000001C386.378393 552.2761760000001 421.591496 517.246001 421.591496 474.036174 421.591496 430.913681 386.378393 395.805464 343.12368 395.805464 299.771831 395.805464 264.646523 430.921113 264.646523 474.036174 264.646523 517.246001 299.771831 552.2761760000001 343.12368 552.2761760000001L343.12368 552.2761760000001ZM916.297207 71.81537800000001L636.904931-48.56600300000002 339.094468 71.81537800000001 116.996567-28.822974000000045 244.266969 297.82243400000004 265.003305 301.735734C290.301222 268.128917 317.911688 232.64906699999995 343.116207 193.27263900000003 374.490633 243.14399600000002 407.465907 284.575557 435.623687 322.62525400000004L629.92993 260.56431699999996 751.574006 299.95746799999995C796.083997 243.14399600000002 843.986219 183.21809399999995 887.956366 117.16024000000004 929.161917 180.11309600000004 971.796465 235.05167800000004 1011.74674 285.998913L1140.09683-32.82174999999995 916.297207 71.81537800000001 916.297207 71.81537800000001Z"  horiz-adv-x="1252" />

    
    <glyph glyph-name="user" unicode="&#58946;" d="M983.60513 76.36222299999997c3.382822-10.148465 5.969685-23.281772 7.561601-39.200933 1.591916-15.919161 2.387874-3.183832 2.387874-19.102993 0-15.919161-1.193937-31.042363-3.382822-45.369607-2.387874-14.327244-5.969685-25.072678-10.546444-32.43529-3.382822-4.775748-13.133307-9.750486-29.052468-15.322192-15.919161-5.571706-182.075398-52.931209-415.689079-52.931209-213.51574 0-397.382044 34.624174-426.633502 41.190828-29.251457 6.566654-46.762534 12.13836-52.931209 16.715119-7.561601 5.571706-13.133307 22.087835-16.715119 49.747377-3.581811 27.858531-2.188885 34.823164 4.576759 78.202876 4.17878 25.072678 14.327244 44.17567 30.445394 56.910999 16.31714 12.934318 35.619122 23.082783 57.507967 30.445394 22.087835 7.561601 124.368442 42.782744 147.849203 48.951419 23.480762 6.168675 43.976681 14.924213 61.487757 26.465604 14.327244 8.755538 25.271667 17.312087 33.032258 25.470657 7.760591 8.15857 13.332297 16.31714 16.31714 24.475709 2.984843 8.15857 4.576759 16.516129 4.576759 25.470657 0 8.755538-0.397979 18.307035-0.994948 28.654489-1.392927 16.31714-6.566654 28.853478-15.720171 37.609017-9.153517 8.755538-19.301982 17.909056-31.042363 27.460552-5.571706 4.775748-10.148465 11.342402-14.327244 19.898951-4.17878 8.556549-7.760591 17.113098-11.143412 25.868636-3.382822 10.148465-6.765643 20.694909-10.148465 31.440342-4.775748 1.392927-9.551496 3.581811-14.327244 7.163622-4.17878 3.382822-8.556549 8.15857-13.332297 14.327244-4.775748 6.168675-8.755538 14.924213-12.337349 26.465604-3.382822 11.342402-4.576759 21.888846-3.382822 31.042363 0.994948 9.153517 2.785853 17.113098 5.571706 23.878741 2.586864 7.561601 6.765643 14.526234 12.337349 21.490867-0.596969 25.669646 0.596969 51.538282 4.17878 77.406918 2.586864 21.689856 7.561601 44.772639 14.725223 69.248348s17.511077 46.563545 31.042363 66.064516c12.934318 18.307035 27.261562 33.430237 43.180723 45.369607 15.919161 11.93937 32.037311 21.291877 48.35445 28.05752 16.31714 6.765643 32.634279 11.342402 49.349398 14.327244 16.516129 2.586864 32.634279 4.17878 48.35445 4.17878 19.500972 0 38.603964-2.387874 56.51302-7.163622 17.909056-4.775748 34.624174-10.745433 50.344345-18.307035 15.521182-7.561601 29.649436-15.720171 41.588807-24.873688 12.337349-9.153517 22.087835-18.506024 29.649436-28.05752 16.914108-21.689856 29.649436-45.568597 38.205985-71.636222 8.556549-26.067625 14.526234-50.543335 17.710066-73.626117 4.17878-27.062573 5.770696-54.324135 5.173727-81.386708 4.775748-2.586864 8.556549-6.765643 11.143412-12.337349 2.586864-4.775748 4.974738-10.745433 6.566654-18.307035 1.591916-7.561601 1.790906-16.516129 0.397979-27.460552-1.989895-14.327244-5.372717-25.470657-9.551496-34.027206-4.576759-8.556549-9.352507-15.123202-14.725223-19.898951-6.168675-5.571706-12.536339-9.153517-19.301982-11.143412-2.586864-10.745433-5.770696-21.490867-9.153517-31.440342-3.382822-8.755538-7.362612-17.511077-11.541391-25.868636-4.576759-8.556549-9.352507-15.123202-14.725223-19.898951-6.168675-5.571706-11.740381-9.949475-17.312087-13.730276-5.571706-3.581811-10.148465-7.561601-14.327244-11.541391-4.17878-4.17878-7.561601-8.954528-10.148465-14.725223-2.586864-5.770696-4.775748-12.735328-6.168675-20.893898-1.989895-10.148465-2.586864-20.495919-1.989895-31.042363 0.596969-10.347454 3.382822-21.092888 8.15857-31.440342 4.775748-10.347454 12.536339-20.495919 23.480762-30.047415 10.745433-9.551496 25.470657-17.909056 43.777691-25.470657 16.914108-6.765643 35.619122-12.735328 55.518072-17.710066 20.09794-5.173727 100.68869-39.797901 119.194714-46.961524 18.506024-7.163622 35.221143-16.11815 49.747377-26.863583C967.089001 108.20054400000004 977.436455 94.07228899999996 983.60513 76.36222299999997L983.60513 76.36222299999997zM531.500972-61.935483999999974c3.382822 0 8.556549 2.188885 15.720171 6.566654 7.163622 4.576759 14.128255 9.551496 20.893898 15.720171 6.765643 6.168675 12.735328 12.337349 17.710066 18.307035 5.173727 6.168675 7.561601 10.745433 7.561601 14.327244 0 4.17878-0.994948 11.143412-2.984843 21.490867-1.989895 10.148465-4.576759 21.490867-7.163622 33.430237-2.586864 12.337349-5.571706 24.27672-8.15857 36.21609-2.586864 11.93937-5.173727 21.490867-7.163622 29.052468 6.765643 5.571706 12.536339 11.342402 17.312087 17.710066 4.775748 6.566654 7.163622 13.133307 7.163622 19.898951 0 5.571706-1.790906 10.944423-5.571706 16.715119-3.581811 5.770696-7.95958 10.546444-12.735328 14.725223-5.571706 4.775748-11.143412 9.551496-17.312087 14.327244L506.030315 196.55188499999997c-6.765643-4.775748-12.536339-9.551496-17.312087-14.327244-4.17878-4.17878-7.760591-8.755538-11.143412-14.327244-3.382822-5.571706-5.173727-10.745433-5.173727-16.31714 0-4.17878 2.387874-9.551496 7.561601-16.31714 5.173727-6.765643 11.342402-13.332297 18.705014-19.301982-1.989895-6.168675-4.775748-14.924213-8.15857-26.465604-3.382822-11.342402-6.566654-23.480762-9.551496-36.21609-2.984843-12.536339-5.770696-24.475709-8.15857-35.619122-2.387874-11.143412-3.382822-19.301982-3.382822-24.873688 0-3.382822 2.387874-8.15857 7.561601-14.327244 5.173727-6.168675 11.143412-12.337349 18.307035-18.307035 7.163622-6.168675 14.128255-11.342402 20.893898-15.720171C523.143412-59.54760999999996 528.31714-61.935483999999974 531.500972-61.935483999999974L531.500972-61.935483999999974z"  horiz-adv-x="1024" />

    
    <glyph glyph-name="add" unicode="&#58888;" d="M512 896c-282.784 0-512-229.216-512-512s229.216-512 512-512 512 229.216 512 512-229.216 512-512 512zM799.52 322.784l-226.304 0 0-226.304c0-33.792-27.424-61.216-61.216-61.216s-61.216 27.424-61.216 61.216l0 226.304-226.304 0c-33.792 0-61.216 27.424-61.216 61.216s27.424 61.216 61.216 61.216l226.304 0 0 226.304c0 33.792 27.424 61.216 61.216 61.216s61.216-27.424 61.216-61.216l0-226.304 226.304 0c33.792 0 61.216-27.424 61.216-61.216s-27.424-61.216-61.216-61.216z"  horiz-adv-x="1024" />

    
    <glyph glyph-name="time" unicode="&#58891;" d="M667.573044 384.735494L512.351758 384.735494 512.351758 628.663794C512.351758 640.175879 501.735057 650.79258 490.222972 650.79258L445.837487 650.79258C434.325401 650.79258 423.7087 640.175879 423.7087 628.663794l0-310.442571c0-11.512085 10.616701-22.192742 22.192742-22.192742l221.735557 0c11.512085 0 22.192742 10.616701 22.192742 22.192742L689.829742 362.54275199999995C689.765786 374.118793 679.085129 384.735494 667.573044 384.735494zM983.323965 583.382924c-53.595153 126.696896-145.627881 218.729623-272.324777 272.324777-127.016676 53.723065-270.34214 53.723065-397.358816 0C187.007432 802.1125480000001 94.271189 710.3996 40.548123 583.382924c-53.595153-126.696896-53.595153-270.66192 0-397.358816 53.723065-127.016676 146.203485-219.43314 273.156205-273.156205 126.696896-53.595153 270.66192-53.595153 397.358816 0 127.016676 53.723065 218.665667 146.523265 272.324777 273.156205C1037.04703 313.04078400000003 1037.04703 456.430204 983.323965 583.382924zM840.510149 194.01861199999996c-33.51296-57.752295-79.945038-103.544813-138.336893-137.441509-57.752295-33.51296-121.516457-50.525264-189.757542-50.525264-68.30504 0-132.261071 16.628568-190.716882 50.525264-57.752295 33.51296-103.992505 79.689214-137.505465 137.441509-33.896696 58.455812-50.58922 122.411842-50.58922 190.716882 0 68.30504 17.07626 132.069202 50.58922 189.821498 33.896696 58.455812 79.689214 104.88789 137.505465 138.336893 58.455812 33.896696 122.411842 50.525264 190.716882 50.525264 68.241084 0 132.005246-17.07626 189.757542-50.525264 58.455812-33.896696 104.440197-79.945038 138.336893-138.336893 33.51296-57.752295 50.58922-121.516457 50.58922-189.821498C891.099369 316.43045400000005 874.406845 252.474424 840.510149 194.01861199999996z"  horiz-adv-x="1024" />

    
    <glyph glyph-name="check" unicode="&#59007;" d="M836.576 364.576l0-181.728q0-68-48.288-116.288t-116.288-48.288l-475.424 0q-68 0-116.288 48.288t-48.288 116.288l0 475.424q0 68 48.288 116.288t116.288 48.288l475.424 0q36 0 66.848-14.272 8.576-4 10.272-13.152 1.728-9.728-5.152-16.576l-28-28q-5.728-5.728-13.152-5.728-1.728 0-5.152 1.152-13.152 3.424-25.728 3.424l-475.424 0q-37.728 0-64.576-26.848t-26.848-64.576l0-475.424q0-37.728 26.848-64.576t64.576-26.848l475.424 0q37.728 0 64.576 26.848t26.848 64.576l0 145.152q0 7.424 5.152 12.576l36.576 36.576q5.728 5.728 13.152 5.728 3.424 0 6.848-1.728 11.424-4.576 11.424-16.576zM968.576 644l-465.152-465.152q-13.728-13.728-32.576-13.728t-32.576 13.728l-245.728 245.728q-13.728 13.728-13.728 32.576t13.728 32.576l62.848 62.848q13.728 13.728 32.576 13.728t32.576-13.728l150.272-150.272 369.728 369.728q13.728 13.728 32.576 13.728t32.576-13.728l62.848-62.848q13.728-13.728 13.728-32.576t-13.728-32.576z"  horiz-adv-x="1024" />

    
    <glyph glyph-name="charge" unicode="&#58971;" d="M828.235296 293.647059C828.235296 318.592 808.003763 338.823526 783.058822 338.823526L572.235294 338.823526 572.235294 436.705882 783.058822 436.705882C808.003763 436.705882 828.235296 456.937414 828.235296 481.882355L828.235296 496.941178C828.235296 521.886118 808.003763 542.117645 783.058822 542.117645L747.354355 542.117645 781.635763 669.010822C788.208941 693.345882 773.647059 718.366118 749.101178 724.886586L734.290822 728.824474C709.76 735.3449410000001 684.536474 720.903526 677.955763 696.560941L636.235296 542.117645 405.488941 542.117645 364.393412 695.484237C357.940706 719.578355 333.168941 733.884237 309.074824 727.424L294.52047 723.531296C270.426353 717.071059 256.12047 692.299296 262.580706 668.197645L296.357647 542.117645 248.470588 542.117645C223.525647 542.117645 203.294118 521.886118 203.294118 496.941178L203.294118 481.882355C203.294118 456.937414 223.525647 436.705882 248.470588 436.705882L466.82353 436.705882 466.82353 338.823526 248.470588 338.823526C223.525647 338.823526 203.294118 318.592 203.294118 293.647059L203.294118 278.58823700000005C203.294118 253.64329599999996 223.525647 233.41176299999995 248.470588 233.41176299999995L466.82353 233.41176299999995 466.82353 15.058821999999964C466.82353-9.88611800000001 487.055059-30.11764500000004 512-30.11764500000004L527.058824-30.11764500000004C552.003764-30.11764500000004 572.235294-9.88611800000001 572.235294 15.058821999999964L572.235294 233.41176299999995 783.058822 233.41176299999995C808.003763 233.41176299999995 828.235296 253.64329599999996 828.235296 278.58823700000005L828.235296 293.647059ZM512-128C229.225412-128 0 101.225414 0 384 0 666.767059 229.225412 896 512 896 794.774586 896 1024 666.767059 1024 384 1024 101.225414 794.774586-128 512-128L512-128Z"  horiz-adv-x="1024" />

    
    <glyph glyph-name="leader" unicode="&#59014;" d="M539.2 896C388.8 896 266.4 773.6 266.4 623.2c0-151.2 122.4-273.6 272.8-273.6s272.8 122.4 272.8 272.8C812 773.6 689.6 896 539.2 896zM539.2 392c-127.2 0-230.4 103.2-230.4 230.4 0 127.2 103.2 230.4 230.4 230.4 127.2 0 230.4-103.2 230.4-230.4C769.6 495.2 666.4 392 539.2 392zM956.8 90.39999999999998c-60 122.4-168 209.6-295.2 243.2l0 0c-11.2 3.2-23.2 5.6-35.2 7.2-2.4 0-4 0.8-6.4 0.8s-4 0.8-6.4 0.8c-3.2 0.8-7.2 0.8-10.4 1.6-0.8 0-2.4 0-3.2 0-4 0.8-8 0.8-12.8 1.6-0.8 0-1.6 0-2.4 0-4 0.8-8.8 0.8-12.8 0.8-0.8 0-2.4 0-3.2 0-4 0-8 0.8-12 0.8s-7.2 0-11.2 0c-1.6 0-3.2 0-4.8 0l0 0 0 0c-1.6 0-3.2 0-4.8 0-4 0-7.2 0-11.2 0s-8 0-12-0.8c-0.8 0-2.4 0-3.2 0-4.8 0-8.8-0.8-12.8-0.8-0.8 0-1.6 0-2.4 0-4-0.8-8-0.8-12.8-1.6-0.8 0-2.4 0-3.2 0-3.2-0.8-7.2-0.8-10.4-1.6-2.4 0-4-0.8-6.4-0.8s-4-0.8-6.4-0.8c-12-2.4-23.2-4.8-35.2-7.2l0 0c-124.8-34.4-232.8-120.8-292.8-243.2-5.6-12-16.8-47.2-16-68.8 3.2-90.4 52-145.6 136-149.6l123.2 0 343.2 0 123.2 0c83.2 4.8 132.8 59.2 136 149.6C973.6 43.200000000000045 962.4 78.39999999999998 956.8 90.39999999999998zM835.2-86.39999999999998L248.8-86.39999999999998c-60 3.2-92 40-94.4 108.8-0.8 13.6 8 41.6 11.2 48.8 62.4 126.4 180 211.2 316 230.4 0.8 0 2.4 0 3.2 0.8l0 0c-1.6-0.8-2.4-1.6-2.4-4.8 0-1.6 9.6-52 36-80.8-8-27.2-45.6-150.4-54.4-224 0-2.4 0.8-4.8 2.4-6.4 0.8-0.8 24.8-28.8 70.4-56.8 1.6-0.8 3.2-1.6 4.8-1.6 0.8 0 1.6 0 2.4 0.8 0.8 0 1.6 0.8 3.2 0.8 0.8 0 1.6 0.8 1.6 1.6 48.8 27.2 68.8 54.4 69.6 55.2 1.6 1.6 1.6 4 1.6 6.4-8.8 74.4-45.6 197.6-54.4 224 26.4 28.8 36 74.4 36 76.8 0.8 4-0.8 7.2-4 9.6 0.8 0 0.8 0 1.6 0s1.6 0 1.6 0c136.8-19.2 254.4-104 316.8-230.4 3.2-7.2 12-35.2 11.2-48.8C928-46.39999999999998 896-83.20000000000005 835.2-86.39999999999998z"  horiz-adv-x="1024" />

    
    <glyph glyph-name="previous" unicode="&#58935;" d="M298.666667 469.333333 298.666667 469.333333C281.6 452.266667 273.066667 426.666667 273.066667 401.066667c0-25.6 8.533333-51.2 25.6-68.266667l341.333333-341.333333c34.133333-34.133333 93.866667-34.133333 128 0 34.133333 34.133333 34.133333 93.866667 0 128L486.4 401.066667 768 682.666667C802.133333 716.8 802.133333 776.533333 768 810.666667 733.866667 844.8 674.133333 844.8 640 810.666667L298.666667 469.333333M298.666667 469.333333 298.666667 469.333333z"  horiz-adv-x="1024" />

    
    <glyph glyph-name="timespan" unicode="&#58886;" d="M109.648-66c-18.529 0-34.412 15.883-34.412 31.764 0 18.529 15.883 31.764 34.412 31.764h66.176v84.705c0 58.236 15.883 116.471 45 166.764s71.471 90 121.764 119.117l7.941 5.294-7.941 5.294c-50.295 29.117-92.648 71.471-121.764 119.117-29.117 50.295-45 108.529-45 166.764v103.236h-66.176c-18.529 0-34.412 15.883-34.412 34.412 0 15.883 15.883 31.764 34.412 31.764h807.353c15.883 0 31.764-15.883 31.764-31.764 0-18.529-15.883-31.764-34.412-31.764h-63.529v-103.236c0-58.236-15.883-116.471-45-166.764s-71.471-90-121.764-119.117l-7.941-5.295 7.941-5.295c50.294-29.117 92.648-71.471 121.764-119.117 29.117-50.294 45-108.529 45-166.764v-84.706h63.529c18.529 0 34.412-15.883 34.412-31.764 0-18.529-15.883-31.764-34.412-31.764h-804.705zM461.706 349.58799999999997c0 0 0 0 0 0v0c-2.648-2.648-2.648-2.648-2.648-2.648-2.648-2.647-7.941-5.295-13.236-5.295-119.117-29.117-203.824-137.648-203.824-259.412v-84.706h542.647v84.706c0 121.764-84.705 227.648-206.471 259.412 0 0 0 0-2.648 0 0 0 0 0-2.647 0 0 0 0 0 0 0v0c-5.295 2.648-7.941 2.648-10.588 7.941v0c0 0 0 0 0 0v0c0 0 0 0 0 0s0 0 0 0v0c0 0 0 0 0 0v0c0 2.648-2.648 2.648-2.648 5.295 0 0 0 0 0 2.648v0c0 0 0 0 0 0v0c0 0 0 0 0 0v0c0 0 0 0 0 0s0 0 0 2.647c0 0 0 0 0 0v0c0 0 0 0 0 0v0c0 0 0 0 0 2.648v0c0 0 0 0 0 0-2.647 15.883 7.941 31.764 23.824 34.412 121.764 29.117 206.471 137.648 206.471 259.412v111.176h-547.941v-103.236c0-121.764 84.705-227.648 206.471-259.412 5.295 0 7.941-2.647 10.588-5.295v0c0 0 0 0 0 0v0 0c5.295-5.295 7.941-10.588 10.588-15.883 2.648-7.941 0-13.236-2.647-21.176v0c0 0 0 0 0 0s0 0 0 0 0 0 0 0 0 0 0 0v0c0 0 0-2.648-2.648-2.648v0c0 0 0 0 0 0v0c0-7.941 0-7.941-2.648-10.588v0c2.648 2.648 2.648 2.648 0 0v0c0 0 0 0 0 0v0 0 0z"  horiz-adv-x="1024" />

    
    <glyph glyph-name="star" unicode="&#58957;" d="M876.8 236.79999999999995L620.8 384l256 147.2c25.6 12.8 38.4 51.2 19.2 76.8-12.8 25.6-51.2 38.4-76.8 19.2l-256-147.2L563.2 774.4C569.6 806.4 544 832 512 832S454.4 806.4 454.4 774.4l0-294.4-256 147.2C179.2 646.4 140.8 633.6 128 608c-12.8-25.6-6.4-64 19.2-76.8l256-147.2-256-147.2c-25.6-12.8-38.4-51.2-19.2-76.8 12.8-19.2 32-25.6 51.2-25.6 6.4 0 19.2 0 25.6 6.4l256 147.2 0-294.4C454.4-38.39999999999998 480-64 512-64s57.6 25.6 57.6 57.6L569.6 288l256-147.2c6.4-6.4 19.2-6.4 25.6-6.4 19.2 0 38.4 12.8 51.2 25.6C908.8 185.60000000000002 902.4 224 876.8 236.79999999999995z"  horiz-adv-x="1024" />

    
    <glyph glyph-name="back" unicode="&#58884;" d="M1068.8524 509.2787C1147.031728 462.676065 1242.955301 336.95851200000004 1282.867602 185.61854500000004 1322.778032 34.284222 1316.161119-101.23539700000003 1316.161119-101.23539700000003 1316.161119-101.23539700000003 1264.490847-17.77947800000004 1243.540751 11.474235000000022 1222.592527 40.72794699999997 1134.313706 149.72532999999999 997.288104 212.90130399999998 860.264382 276.07539599999996 631.227004 264.82382299999995 631.227004 264.82382299999995L631.227004 1.7606439999999566 0 448.881264 631.227004 896 631.227004 630.515956C631.227004 630.515956 782.862519 619.104372 862.122394 602.689161 995.623995 575.043083 1068.8524 509.2787 1068.8524 509.2787"  horiz-adv-x="1317" />

    
    <glyph glyph-name="require" unicode="&#58889;" d="M522.776 868.228c-269.603 0-488.119-218.516-488.119-487.958s218.516-487.958 488.119-487.958 488.119 218.516 488.119 487.958c-0.161 269.444-218.678 487.958-488.119 487.958zM520.66 51.76400000000001c-44.908 0-81.354 36.448-81.354 81.354s36.448 81.354 81.354 81.354c44.908 0 81.354-36.448 81.354-81.354 0-44.908-36.448-81.354-81.354-81.354zM604.617 370.832c0-41.491-36.448-75.008-81.354-75.008s-81.354 33.517-81.354 75.008v256.752c0 41.328 36.448 75.008 81.354 75.008s81.354-33.517 81.354-75.008v-256.752z"  horiz-adv-x="1024" />

    
    <glyph glyph-name="attachments" unicode="&#59362;" d="M892.87866 723.145164c-22.092158 21.546735-46.166459 36.82265-72.325235 45.857421-26.049283 8.966209-52.583612 12.549827-79.568197 10.758018-26.978445-1.791809-53.512774-8.850575-79.564104-21.10262-26.084075-12.243859-50.117444-29.16525-72.213695-50.709939L332.566328 458.332962c-0.596588-0.596588-4.107551-3.88447-10.562567-9.857509-6.457062-5.973038-13.361309-12.881378-20.711717-20.652366-8.584516-8.960069-18.401092-18.818601-29.446659-29.611411-22.055318-20.952194-36.945447-41.602513-44.595684-61.95505-7.689123-20.355607-10.896164-39.513946-9.66615-57.476039 1.232061-17.96107 5.972015-34.391275 14.254655-49.370431 8.287757-14.975063 17.654079-27.257807 28.066219-36.820604 12.876262-11.985986 26.982538-22.182208 42.320874-30.547737 15.33629-8.365528 31.907711-12.992919 49.671283-13.891382 17.763572-0.935302 36.795021 2.839675 57.023738 11.203156 20.265556 8.363482 41.387619 23.338544 63.479777 44.887326l288.848641 279.225469c5.525853 5.375427 6.762007 13.33368 3.698229 23.787776-3.060709 10.460236-7.356548 18.413372-12.876262 23.787776-5.525853 5.376451-13.621229 9.41237-24.369014 12.099572-10.712993 2.689249-18.845207 1.345648-24.37106-4.03285L415.412175 259.886261c-11.04352-10.758018-25.300222-17.364483-42.764989-19.756973-17.501606-2.390443-32.989345 2.987031-46.465265 16.171308-11.045567 10.753925-16.717753 24.533766-17.014512 41.303708-0.300852 16.766872 6.607488 32.004925 20.711717 45.784766l317.362045 307.942511c33.143864 32.302707 66.093301 49.218982 98.898451 50.711985 32.803103 1.459235 62.397119-10.342556 88.779999-35.474956 14.106276-13.744026 25.113981-28.719088 33.100886-44.889373 7.985882-16.171308 12.129248-32.751938 12.4301-49.819662 0.295735-17.026792-3.058662-34.240849-10.112312-51.607378-7.05672-17.32969-18.8493-34.096563-35.418674-50.26787L483.524458 129.74013200000002c-16.537651-16.170285-36.462446-29.016871-59.785641-38.614459-23.326265-9.597589-47.846728-15.123442-73.594135-16.615423-25.750477-1.534959-51.688219 2.049682-77.739549 10.749832-26.045189 8.66638-49.817616 23.49511-71.276347 44.443212-23.924899 23.338544-40.454364 47.578622-49.675376 72.707952-9.216919 25.169239-12.872169 50.005904-11.045567 74.540693 1.867534 24.533766 8.283664 47.574528 19.330254 69.12331 11.009751 21.546735 24.819269 40.410362 41.464367 56.577576l311.838238 301.669644c5.52176 5.376451 6.755868 13.331633 3.695159 23.787776-3.060709 10.491958-7.013741 18.411325-11.943007 23.787776-5.52176 5.41636-13.621229 9.451256-24.369014 12.138458-10.708899 2.689249-18.845207 1.343601-24.366967-4.034896L143.281287 457.438593c-22.092158-21.548782-40.3418-47.877427-54.746882-79.021751-14.405081-31.146371-22.839171-64.346517-25.304316-99.67514-2.461051-35.32453 2.429329-70.765717 14.702863-106.392122 12.281721-35.592636 34.037211-68.679196 65.311495-99.188047 31.869848-31.144324 66.50467-52.693106 103.935164-64.642253 37.391608-11.990079 74.040297-16.769942 109.906156-14.380522 35.862789 2.390443 69.895907 10.755971 102.102423 25.134447 32.171724 14.376429 59.300594 32.341592 81.392752 53.888328l352.297718 341.142657c22.092158 21.548782 38.477336 45.63434 49.223075 72.26486 10.712993 26.659173 16.083304 54.036707 16.083304 82.154092 0 28.161387-5.371334 55.532781-16.083304 82.159208C931.355997 677.510824 914.970818 701.596382 892.87866 723.145164z"  horiz-adv-x="1024" />

    
    <glyph glyph-name="plus" unicode="&#58902;" d="M16.887 483.813h988.114v-198.043h-988.114v198.043zM412.979 878.058h198.043v-988.117h-198.043v988.117z"  horiz-adv-x="1024" />

    
    <glyph glyph-name="key" unicode="&#59052;" d="M704 896c-176.736 0-320-143.264-320-320 0-20.032 1.856-39.616 5.376-58.624L0 128v-192a64 64 0 0 1 64-64h64v64h128v128h128v128h128l83.04 83.04A319.264 319.264 0 0 1 704 256c176.736 0 320 143.264 320 320S880.736 896 704 896z m95.872-320.128a96 96 0 1 0 0 192 96 96 0 0 0 0-192z"  horiz-adv-x="1024" />

    
    <glyph glyph-name="fangda" unicode="&#58895;" d="M981.2992-38.10304l-233.61024 233.49248c58.66496 70.37952 95.33952 159.80032 95.33952 258.57024C843.02848 678.35392 661.2224 860.16 436.94592 860.16 212.5568 860.16 30.75072 678.35392 30.75072 453.9648c0-224.27648 181.80608-406.19008 406.1952-406.19008 98.77504 0 188.19584 36.66432 258.58048 95.33952l233.49248-233.4976c14.42816-14.42816 37.85216-14.42816 52.1728 0 14.42816 14.42304 14.5408 37.84192 0.10752 52.28032zM436.94592 121.69728c-183.5776 0-332.2624 148.80256-332.2624 332.26752 0 183.5776 148.80256 332.26752 332.2624 332.26752 183.58272 0 332.26752-148.80256 332.26752-332.26752 0-160.98816-130.11456-332.26752-332.26752-332.26752zM590.04928 502.65088H472.05888V620.6464c0 21.66784-17.6384 39.31136-39.30624 39.31136-21.67296 0-39.31136-17.6384-39.31136-39.31136V502.656H275.45088c-21.66784 0-39.31136-17.6384-39.31136-39.31136 0-21.66784 17.6384-39.30624 39.31136-39.30624h117.9904v-117.98528c0-21.66784 17.6384-39.31136 39.31136-39.31136 21.66784 0 39.30624 17.63328 39.30624 39.31136V424.03328H590.04928c21.66784 0 39.31136 17.6384 39.31136 39.30624 0 21.67296-17.6384 39.31136-39.31136 39.31136z"  horiz-adv-x="1024" />

    
    <glyph glyph-name="nodata7" unicode="&#58894;" d="M380.928 536.91733333c-29.12711111 0-50.97244445-21.84533333-50.97244445-50.97244444 0-29.12711111 21.84533333-50.97244445 50.97244445-50.97244444s50.97244445 21.84533333 50.97244445 50.97244444c0 29.12711111-21.84533333 50.97244445-50.97244445 50.97244444z m0-87.38133333c-14.56355555 0-36.40888889 14.56355555-36.40888889 36.40888889 0 14.56355555 14.56355555 36.40888889 36.40888889 36.40888889 14.56355555 0 36.40888889-14.56355555 36.40888889-36.40888889s-21.84533333-36.40888889-36.40888889-36.40888889zM912.49777778 617.01688889c-21.84533333 43.69066667-101.94488889 50.97244445-218.45333333 21.84533333-50.97244445 43.69066667-109.22666667 58.25422222-174.76266667 58.25422223-174.76266667 0-320.39822222-138.35377778-320.39822223-313.11644445v-7.28177778c-80.09955555-80.09955555-109.22666667-145.63555555-87.38133333-189.32622222 14.56355555-29.12711111 50.97244445-43.69066667 101.94488889-43.69066667 21.84533333 0 43.69066667 0 72.81777778 7.28177778h14.56355556c58.25422222-50.97244445 131.072-87.38133333 218.45333333-87.38133333 174.76266667 0 313.11644445 138.35377778 313.11644444 313.11644444 0 14.56355555 0 36.40888889-7.28177777 50.97244445l21.84533333 21.84533333c65.536 72.81777778 87.38133333 131.072 65.536 167.48088889zM126.06577778 194.67377778000002c-14.56355555 29.12711111 7.28177778 87.38133333 72.81777777 152.91733333 7.28177778-65.536 36.40888889-131.072 80.09955556-174.76266666-80.09955555-14.56355555-131.072-7.28177778-152.91733333 21.84533333zM242.57422222 384c0 152.91733333 123.79022222 276.70755555 276.70755556 276.70755555 138.35377778 0 254.86222222-101.94488889 269.42577777-233.01688888-36.40888889-29.12711111-80.09955555-65.536-123.79022222-94.66311112 0 36.40888889-29.12711111 72.81777778-72.81777778 72.81777778-36.40888889 0-72.81777778-29.12711111-72.81777777-72.81777778 0-29.12711111 14.56355555-50.97244445 36.40888889-58.25422222-80.09955555-43.69066667-160.19911111-72.81777778-233.01688889-94.66311111-50.97244445 50.97244445-80.09955555 123.79022222-80.09955556 203.88977778z m400.49777778-50.97244445v-14.56355555c-21.84533333-7.28177778-36.40888889-21.84533333-58.25422222-29.12711111-21.84533333 0-36.40888889 21.84533333-36.40888889 43.69066666 0 29.12711111 21.84533333 50.97244445 43.69066666 50.97244445 29.12711111 0 50.97244445-21.84533333 50.97244445-50.97244445z m-123.79022222-225.7351111c-65.536 0-123.79022222 21.84533333-167.48088889 58.25422222 72.81777778 21.84533333 160.19911111 50.97244445 240.29866666 101.94488888h7.28177778c29.12711111 0 50.97244445 14.56355555 65.536 43.69066667 50.97244445 29.12711111 94.66311111 65.536 131.072 94.66311111V384c-7.28177778-152.91733333-131.072-276.70755555-276.70755555-276.70755555zM825.11644445 456.81777778c-21.84533333 72.81777778-58.25422222 131.072-109.22666667 174.76266667 94.66311111 21.84533333 160.19911111 14.56355555 182.04444444-21.84533334 14.56355555-29.12711111-7.28177778-80.09955555-65.536-145.63555556 0 0-7.28177778 0-7.28177777-7.28177777z"  horiz-adv-x="1024" />

    
    <glyph glyph-name="share" unicode="&#58933;" d="M788.673978 499.876371c-57.172483 0-108.219342 24.502493-143.952144 63.298106L426.241276 438.62014c5.104686-18.376869 9.188435-36.753739 9.188435-56.151546 0-31.649053-8.167498-61.256231-21.439681-88.821535L624.303091 173.176471c34.711864 54.109671 95.968096 90.86341 165.391824 90.863409 108.219342 0 196.01994-87.800598 196.01994-196.01994s-87.800598-196.01994-196.01994-196.01994S593.674975-40.199401999999964 593.674975 68.01994000000002c0 7.14656 1.020937 14.293121 2.041874 21.439681L356.817547 225.24426700000004l1.020938 1.020937c-32.66999-25.52343-73.507478-40.837488-118.428714-40.837487C130.169492 185.42771700000003 42.368893 273.22831499999995 42.368893 382.46859400000005c0 108.219342 87.800598 196.01994 196.01994 196.01994 57.172483 0 108.219342-24.502493 143.952144-63.298105l218.480558 124.554337c-5.104686 18.376869-9.188435 36.753739-9.188434 56.151545C591.633101 804.115653 680.454636 892.937188 788.673978 892.937188S984.693918 804.115653 984.693918 695.896311c0-108.219342-87.800598-196.01994-196.01994-196.01994z m0-550.285145c65.33998 0 117.407777 53.088734 117.407777 117.407777 0 65.33998-53.088734 117.407777-117.407777 117.407777s-117.407777-53.088734-117.407777-117.407777c-1.020937-64.319043 52.067797-117.407777 117.407777-117.407777zM238.388833 499.876371c-65.33998 0-117.407777-53.088734-117.407776-117.407777 0-65.33998 53.088734-117.407777 117.407776-117.407776 65.33998 0 117.407777 53.088734 117.407777 117.407776 1.020937 64.319043-52.067797 117.407777-117.407777 117.407777zM788.673978 814.325025c-65.33998 0-117.407777-53.088734-117.407777-117.407777S724.354935 579.509472 788.673978 579.509472s117.407777 53.088734 117.407777 117.407776S852.993021 814.325025 788.673978 814.325025z"  horiz-adv-x="1024" />

    
    <glyph glyph-name="icon-mobile" unicode="&#58909;" d="M768 896H256C184.32 896 128 839.68 128 768v-768c0-71.68 56.32-128 128-128h512c71.68 0 128 56.32 128 128V768c0 71.68-56.32 128-128 128z m76.8-896c0-43.52-33.28-76.8-76.8-76.8H256c-43.52 0-76.8 33.28-76.8 76.8v128h665.6v-128z m0 179.2H179.2V691.2h665.6v-512z m0 563.2H179.2V768c0 43.52 33.28 76.8 76.8 76.8h512c43.52 0 76.8-33.28 76.8-76.8v-25.6zM512-25.600000000000023c28.16 0 51.2 23.04 51.2 51.2s-23.04 51.2-51.2 51.2-51.2-23.04-51.2-51.2 23.04-51.2 51.2-51.2z"  horiz-adv-x="1024" />

    
    <glyph glyph-name="minus" unicode="&#58925;" d="M154.326 466.288h715.332c14.548 0 26.342-15.793 26.342-35.262v-94.042c0-19.48-11.794-35.273-26.342-35.273H154.326c-14.543 0-26.326 15.793-26.326 35.273v94.042c0 19.469 11.783 35.262 26.326 35.262z"  horiz-adv-x="1024" />

    
    <glyph glyph-name="suoxiao" unicode="&#58914;" d="M572.260848 541.758061c-0.310303 0-0.558545-0.186182-0.868848-0.217213H263.323152c-0.155152 0.03103-0.310303 0.124121-0.465455 0.124122-0.248242 0-0.434424-0.124121-0.682667-0.124122h-1.489454c-0.465455 0-0.837818 0.217212-1.303273 0.217213-2.916848-0.124121-5.492364-1.117091-8.067879-1.954909-0.310303-0.093091-0.589576-0.093091-0.868848-0.217213a30.844121 30.844121 0 0 1-21.038546-30.285575c0.620606-15.794424 12.970667-27.834182 28.237576-29.354667 0.961939-0.124121 1.799758-0.651636 2.792727-0.682667 0.248242 0 0.434424 0.124121 0.682667 0.124122 0.248242 0 0.434424-0.124121 0.682667-0.124122 0.310303 0.03103 0.620606 0.217212 0.930909 0.217212h310.644363c0.465455 0 0.837818-0.248242 1.334303-0.217212a31.278545 31.278545 0 0 1-2.451394 62.495031M417.047273 162.567758c-181.775515 0-329.69697 147.921455-329.69697 329.696969S235.271758 821.961697 417.047273 821.961697s329.69697-147.921455 329.696969-329.69697c0-84.340364-31.837091-164.584727-89.615515-225.962666a326.62497 326.62497 0 0 0-240.081454-103.734303m588.706909-215.288243l0.093091 0.062061-0.620606 0.620606c-0.403394 0.434424-0.744727 0.899879-1.179152 1.241212l-282.561939 296.92897a389.926788 389.926788 0 0 1 87.319272 246.132363C808.804848 708.235636 633.018182 884.022303 417.047273 884.022303S25.289697 708.266667 25.289697 492.264727 201.045333 100.507152 417.047273 100.507152c96.566303 0 190.091636 36.491636 261.585454 100.600242l282.220606-296.525576 0.093091 0.062061c5.988848-6.299152 14.273939-10.302061 23.583031-9.929697 17.283879 0.682667 30.68897 15.204848 30.006303 32.488727a30.906182 30.906182 0 0 1-8.781576 20.076606"  horiz-adv-x="1024" />

    
    <glyph glyph-name="add2" unicode="&#58896;" d="M469.3504 341.3504H256a42.6496 42.6496 0 1 0 0 85.2992h213.3504V640a42.6496 42.6496 0 1 0 85.2992 0v-213.3504H768a42.6496 42.6496 0 1 0 0-85.2992h-213.3504V128a42.6496 42.6496 0 1 0-85.2992 0v213.3504zM512-128c282.7776 0 512 229.2224 512 512S794.7776 896 512 896 0 666.7776 0 384s229.2224-512 512-512z"  horiz-adv-x="1024" />

    
    <glyph glyph-name="type3" unicode="&#58880;" d="M15.859 790.896v-106.829h992.117v106.829h-992.117M15.859 334.08399999999995h992.117v106.829h-992.117v-106.829M16.022-15.895999999999958h992.117v106.829h-992.117v-106.829M16.022-15.895999999999958z"  horiz-adv-x="1024" />

    
    <glyph glyph-name="venue" unicode="&#58881;" d="M899.209 222.236c-146.842-92.283-236.831-136.049-373.043-131.523-136.212 4.506-483.123 247.173-483.369 294.625-0.266 47.473 3.052 76.841 21.012 115.753 56.402-72.786 281.948-226.202 493.896-242.012 211.948-15.811 429.691 145.859 420.332 194.662 23.491-74.752 68.014-139.223-78.828-231.506zM589.223 306.408c-143.442 6.431-450.089 130.601-493.896 210.452-20.828 64.84 233.062 142.766 362.537 131.543s488.243-106.885 493.896-163.103c5.632-56.218-219.116-185.303-362.537-178.893zM342.275 601.054c-12.145 7.291-59.515-10.179-64.655-19.907-5.14-9.748 40.673-56.791 47.882-58.86 7.209-2.089 46.203 10.076 48.292 15.647 2.089 5.53-19.374 55.828-31.519 63.119zM377.767 611.663c-7.004-6.615 31.846-65.024 38.072-68.485s105.697 3.359 110.326 5.263c4.649 1.905 25.743 31.601 23.552 58.86-21.524 22.958-164.946 10.977-171.95 4.362zM582.383 602.938c-8.376-1.925-23.429-59.638-19.436-65.024s52.552-15.79 52.552-15.79 34.324 55.276 31.519 63.14-56.259 19.599-64.635 17.674zM686.872 574.594c-6.963-2.519-31.662-64.082-29.348-68.26 2.314-4.157 46.346-18.309 52.552-15.79 6.205 2.519 42.476 49.93 39.936 57.876-2.56 7.946-56.197 28.692-63.14 26.173zM773.113 532.6510000000001c-24.392-75.244-162.427-107.438-241.684-105.226-79.258 2.212-224.952 72.008-283.73 136.786 0 0-57.303 5.55-42.025-36.823 15.258-42.394 250.941-126.853 352.031-136.786s222.003 60.662 252.191 84.173c30.188 23.511 4.403 48.497-36.782 57.876z"  horiz-adv-x="1024" />

    
    <glyph glyph-name="location" unicode="&#58882;" d="M512 862.003c-188.143 0-340.514-152.439-340.514-340.514 0-188.143 340.514-615.219 340.514-615.219s340.514 427.076 340.514 615.219c0 188.075-152.371 340.514-340.514 340.514zM512 314.914c-112.845 0-204.322 91.546-204.322 204.39 0 112.777 91.477 204.254 204.322 204.254 112.777 0 204.322-91.477 204.322-204.254 0-112.845-91.546-204.39-204.322-204.39z"  horiz-adv-x="1024" />

    
    <glyph glyph-name="homepage" unicode="&#58883;" d="M879.932958 317.257478c0.004093 14.130821-11.445668 25.586723-25.574443 25.592863h-0.008187c-14.125705 0-25.578536-11.449762-25.582629-25.574443l-0.084935-263.184882c0-1.648545 0.157589-3.298113 0.475837-4.919028 0.36532-1.868555 1.245362-13.359249-3.643989-19.294419-4.301975-5.22602-13.937416-6.324026-21.263259-6.324026-45.522754 0-142.015316-0.010233-188.029256-0.014326l-1.100053 192.389559c1.067307 9.205653 2.892884 39.391109-15.331158 60.727023-7.838518 9.180071-22.339775 20.11818-46.8991 20.118179h-3.720737c-0.092097 0.002047-0.185218 0.008186-0.277316 0.008187h-0.008186c-0.002047 0-9.913781-0.004093-30.928376-0.00614-21.014595 0.002047-30.925306 0.00614-30.928376 0.00614h-0.008186c-0.093121 0-0.184195-0.00614-0.277316-0.008187h-3.720737c-24.559324 0-39.060582-10.938109-46.900123-20.118179-18.224042-21.335913-16.398465-51.521369-15.331158-60.727023l-1.100053-192.389559c-46.012917 0.004093-142.506502 0.014326-188.029256 0.014326-7.264443 0-16.835417 1.079587-21.172185 6.213509-4.696971 5.56064-4.258996 16.039285-3.707434 19.532849 0.376576 1.746782 0.448208 2.975771 0.448207 4.793162l-0.083911 263.182835c-0.004093 14.126728-11.456925 25.574443-25.582629 25.574443h-0.008186c-14.128775-0.00614-25.579559-11.462041-25.574443-25.590816l0.083911-261.1966c-1.282201-9.339706-3.143594-36.874802 14.833831-58.710088 9.377569-11.388363 27.531002-24.964553 60.762839-24.964553 60.987965 0 213.462483-0.018419 213.462482-0.018419h0.00307c14.070446 0 25.501788 11.363804 25.58263 25.436297l1.255595 219.564451c0.008186 1.490956-0.052189 2.614545-0.300851 4.072755-0.889252 6.42124-0.198521 17.874072 3.39021 22.011294 1.239223 1.428534 3.920282 2.153034 7.968477 2.153034l34.933592 0.002047 34.934615-0.002047c4.047172 0 6.729255-0.723477 7.968478-2.153034 3.588731-4.137223 4.278439-15.589031 3.39021-22.011294-0.24764-1.459233-0.310061-2.579752-0.300852-4.072755l1.256619-219.564451c0.079818-14.072493 11.512183-25.438343 25.584676-25.436297 0 0 152.474518 0.018419 213.462483 0.018419 33.232859 0 51.385269 13.577213 60.762838 24.964553 17.977425 21.837332 16.116033 49.372428 14.833832 58.710088l0.082888 261.194553zM989.12269 372.969282L621.741805 767.765535c-5.43375 6.295373-42.235898 46.52457-96.866068 48.378799-38.978717 1.339506-76.317077-16.618476-110.989726-53.327503-92.250962-97.673456-365.022166-386.811403-367.76667-389.719636-9.695817-10.277054-9.224073-26.467788 1.054004-36.163605 10.276031-9.69991 26.467788-9.224073 36.163605 1.052981 2.744504 2.908233 275.505476 292.033901 367.745181 389.695077 24.022089 25.43425 48.132182 37.975878 71.670248 37.338359 34.077086-0.95372 58.951588-29.178524 60.186717-30.607057 0.357134-0.440021 0.568958-0.669242 0.970094-1.103123l367.755414-395.197389a25.519184 25.519184 0 0 1 18.733648-8.154719 25.494625 25.494625 0 0 1 17.42177 6.853074c10.345615 9.629302 10.926853 25.813896 1.302668 36.158489z"  horiz-adv-x="1024" />

    
    <glyph glyph-name="brief" unicode="&#58934;" d="M855.488-128H168.512C110.912-128 64-80.32000000000005 64-21.75999999999999V789.76C64 848.32 110.912 896 168.512 896h686.976C913.088 896 960 848.32 960 789.76v-811.52c0-58.56-46.912-106.24-104.512-106.24zM896 768c0 25.152-39.296 64-64 64H192c-24.704 0-64-38.912-64-64v-768c0-25.088 39.296-64 64-64h640c24.704 0 64 38.912 64 64l4.288-21.76L896 768z m-512-512h384v-64H384v64z m0 192h384v-64H384V448z m0 192h384v-64H384V640z m-128-384h64v-64H256v64z m0 192h64v-64H256V448z m0 192h64v-64H256V640z"  horiz-adv-x="1024" />

    
    <glyph glyph-name="type2" unicode="&#59003;" d="M302.3616 587.5814399999999h595.62496c16.55808 0 29.98272 12.94848 29.98272 28.92288s-13.42464 28.92288-29.98272 28.92288H302.3616c-16.5632 0-29.98784-12.94848-29.98784-28.92288s13.42464-28.92288 29.98784-28.92288zM121.78432 616.50432m-28.92288 0a28.92288 28.92288 0 1 1 57.84576 0 28.92288 28.92288 0 1 1-57.84576 0ZM897.98656 401.38752H302.3616c-16.5632 0-29.98784-12.94848-29.98784-28.92288s13.42464-28.91776 29.98784-28.91776h595.62496c16.55808 0 29.98272 12.94336 29.98272 28.91776s-13.42464 28.92288-29.98272 28.92288zM121.78432 372.46975999999995m-28.92288 0a28.92288 28.92288 0 1 1 57.84576 0 28.92288 28.92288 0 1 1-57.84576 0ZM897.98656 162.80575999999996H302.3616c-16.5632 0-29.98784-12.94336-29.98784-28.91776s13.42464-28.92288 29.98784-28.92288h595.62496c16.55808 0 29.98272 12.94848 29.98272 28.92288s-13.42464 28.91776-29.98272 28.91776zM121.78432 133.88288m-28.92288 0a28.92288 28.92288 0 1 1 57.84576 0 28.92288 28.92288 0 1 1-57.84576 0Z"  horiz-adv-x="1024" />

    
    <glyph glyph-name="clstime" unicode="&#59319;" d="M588.030627 347.53550700000005h-99.572809V482.398054c0 11.30344-9.162684 20.466124-20.466124 20.466124s-20.466124-9.162684-20.466124-20.466124V327.069383c0-11.30344 9.162684-20.466124 20.466124-20.466124h120.038933c11.30344 0 20.466124 9.162684 20.466124 20.466124s-9.162684 20.466124-20.466124 20.466124zM482.157321 576.925964c-129.959887 0-235.690954-105.731066-235.690953-235.690953 0-129.959887 105.731066-235.68993 235.690953-235.689931 129.959887 0 235.68993 105.730043 235.689931 235.689931S612.117209 576.925964 482.157321 576.925964z m0-430.448636c-107.390869 0-194.758706 87.367837-194.758705 194.757683s87.367837 194.758706 194.758705 194.758705c107.389846 0 194.757682-87.36886 194.757683-194.758705s-87.367837-194.757682-194.757683-194.757683zM877.055277 733.7629890000001h-75.414597c-0.718361 0-1.427512-0.038886-2.126431-0.110517h-73.277933v60.068073c0 11.30344-9.162684 20.466124-20.466124 20.466124s-20.466124-9.162684-20.466124-20.466124v-60.068073H291.2749v60.068073c0 11.30344-9.162684 20.466124-20.466124 20.466124s-20.466124-9.162684-20.466124-20.466124v-60.068073h-79.243809a20.557198 20.557198 0 0 1-2.12643 0.110517h-72.517617c-14.007015 0-27.232225-3.656273-37.239136-10.296507-13.371542-8.873088-20.736277-22.465664-20.736277-38.274722v-646.420479c0-28.246321 23.839965-47.973618 57.975413-47.973618h780.601504c30.371728 0 55.080479 24.708751 55.080479 55.079456V678.682509c-0.001023 30.371728-24.709775 55.080479-55.081502 55.08048z m14.148231-687.88587c0-7.800663-6.346545-14.147208-14.148231-14.147208H96.453772c-6.051833 0-11.608386 1.248434-14.864545 3.340072-1.982144 1.27197-2.178619 2.066055-2.178619 3.701298V685.1917599999999c0 6.260587 12.280698 7.635911 17.029861 7.638981 0.698918-0.072655 1.408069-0.110517 2.126431-0.110517h151.774728v-88.116897c0-11.30344 9.162684-20.466124 20.466124-20.466124s20.466124 9.162684 20.466124 20.466124v88.116897h394.029169v-88.116897c0-11.30344 9.162684-20.466124 20.466124-20.466124s20.466124 9.162684 20.466123 20.466124v88.116897h108.818382c0.718361 0 1.427512 0.038886 2.12643 0.110517h39.874149c7.801686 0 14.148231-6.346545 14.148232-14.148232v-632.80539z"  horiz-adv-x="1024" />

    
    <glyph glyph-name="gou" unicode="&#59301;" d="M981.451524 581.141274l-380.099723-380.099723 2.836565-2.836565-119.135734-119.135734-258.127424 258.127424 119.135734 119.135734 136.155124-136.155125 405.628809 405.628809c-93.606648 102.116343-226.925208 167.357341-377.263158 167.357341-280.819945 0-510.581717-229.761773-510.581717-510.581718s229.761773-510.581717 510.581717-510.581717 510.581717 229.761773 510.581718 510.581717c0 70.914127-14.182825 138.99169-39.711911 198.559557z"  horiz-adv-x="1024" />

    
    <glyph glyph-name="type1" unicode="&#59032;" d="M364.288 844.8H167.8336A116.736 116.736 0 0 1 51.2 728.064v-196.608A116.736 116.736 0 0 1 167.8336 414.72h196.4032A116.8384 116.8384 0 0 1 480.9216 531.456V728.064A116.7872 116.7872 0 0 1 364.288 844.8z m55.296-313.3952c0-30.5664-24.8832-55.296-55.296-55.296H167.8336a55.3472 55.3472 0 0 0-55.296 55.296V728.064c0 30.5152 24.8832 55.296 55.296 55.296h196.4544c30.5152 0 55.296-24.8832 55.296-55.296v-196.6592zM855.2448 844.8h-196.4544a116.7872 116.7872 0 0 1-116.6336-116.736v-196.608a116.7872 116.7872 0 0 1 116.6336-116.736h196.4032a116.8384 116.8384 0 0 1 116.6848 116.6848V728.064A116.7872 116.7872 0 0 1 855.296 844.8z m55.296-313.3952c0-30.5664-24.8832-55.296-55.296-55.296h-196.4544a55.296 55.296 0 0 0-55.296 55.296V728.064c0 30.5152 24.8832 55.296 55.296 55.296h196.4544c30.5152 0 55.296-24.832 55.296-55.296V531.456zM364.2368 353.28H167.8336A116.7872 116.7872 0 0 1 51.2 236.54399999999998v-196.608a116.7872 116.7872 0 0 1 116.6336-116.736h196.4032a116.8384 116.8384 0 0 1 116.6848 116.6336v196.7104a116.7872 116.7872 0 0 1-116.6336 116.736z m55.296-313.4464a55.296 55.296 0 0 0-55.296-55.296H167.8336a55.296 55.296 0 0 0-55.296 55.296v196.7104c0 30.5152 24.8832 55.296 55.296 55.296h196.5056c30.464 0 55.2448-24.8832 55.2448-55.296v-196.7104z m435.712 313.4464h-196.4544a116.7872 116.7872 0 0 1-116.6336-116.736v-196.608a116.7872 116.7872 0 0 1 116.6336-116.736h196.4032a116.8384 116.8384 0 0 1 116.6848 116.6336v196.7104a116.7872 116.7872 0 0 1-116.6336 116.736z m55.296-313.4464a55.296 55.296 0 0 0-55.296-55.296h-196.4544a55.296 55.296 0 0 0-55.296 55.296v196.7104c0 30.5152 24.8832 55.296 55.296 55.296h196.4544a55.296 55.296 0 0 0 55.296-55.296v-196.7104z"  horiz-adv-x="1024" />

    
    <glyph glyph-name="file" unicode="&#58911;" d="M923.84 619.712a37.952 37.952 0 0 1-10.752 29.312L696.192 865.6a37.888 37.888 0 0 1-30.272 10.624H191.104c-40.576 0-73.408-32.832-73.408-73.28v-842.816c0-40.512 32.832-73.344 73.408-73.344h660.288c40.512 0 73.344 32.832 73.344 73.344V619.712h-0.896z m-255.808 165.696l165.888-165.696h-165.888V785.408z m183.424-825.344H191.104V802.88h403.52v-219.904c0-20.224 16.448-36.672 36.608-36.672h220.16v-586.24z"  horiz-adv-x="1024" />

    
    <glyph glyph-name="phone" unicode="&#59012;" d="M612.57 876.986a45.57 45.57 0 0 1-7.57 0.934c-22.649 0.867-42.47-14.62-47.033-36.866-2.514-12.072-0.173-24.412 6.636-34.749 6.785-10.325 17.183-17.38 29.267-19.844 97.276-20.08 181.025-76.94 235.798-160.106 54.755-83.2 73.843-182.582 53.825-279.853-2.514-12.112-0.174-24.425 6.635-34.739 6.787-10.324 17.19-17.368 29.274-19.865a51.61 51.61 0 0 1 7.587-0.93c9.692-0.369 19.066 2.267 27.173 7.592 10.32 6.798 17.374 17.207 19.866 29.28 51.699 251.039-110.43 497.408-361.457 549.146z m79.578-694.31c2.732-1.785 63.732-40.946 110.597-89.083 17.65-18.21 47.209-48.675 46.43-84.018-0.66-24.144-14.284-48.356-41.67-73.917-6.808-6.685-67.807-63.658-165.397-63.658-26.732 0-54.19 4.244-81.626 12.598-28.827 8.736-58.144 22.236-87.048 40.053-114.113 67.398-202.185 154.176-285.811 281.46C43.878 424.868 39.751 612.226 40.413 647.5360000000001 40.652 810.494 176.374 874.595 191.845 881.38 213.134 891.253 231.736 896 248.869 896c8.203 0 16.064-1.108 23.332-3.331 14.967-4.541 35.74-16.305 49.7-46.548 19.042-41.037 37.056-99.863 49.358-161.45 12.939-63.915-22.897-81.856-57.557-99.197l-1.371-0.6s-61.318-25.582-72.101-30.022c-10.595-4.418-16.116-16.356-12.498-27.268 24.726-74.914 62.488-152.598 109.157-224.65 45.914-70.905 100.519-136.332 157.879-189.302 4.104-3.734 9.373-5.834 14.945-5.834l1.875 0.1c6.03 0.487 11.72 3.54 15.505 8.394 9.321 11.988 23.623 29.256 38.712 43.625 28.607 27.2 54.482 40.41 79.085 40.41 6.737 0 13.427-0.991 19.873-2.958 6.17-1.892 16.153-7.261 27.385-14.692zM498.043 498.015c-12.11 2.514-22.509 9.54-29.296 19.854-6.836 10.325-9.177 22.678-6.686 34.783 4.638 22.224 24.409 37.728 47.035 36.82 2.514-0.071 5.056-0.374 7.593-0.9 107.283-22.117 176.579-127.447 154.49-234.774-2.47-12.032-9.497-22.419-19.821-29.267-8.13-5.308-17.548-7.934-27.168-7.592-2.491 0.133-5.029 0.419-7.57 0.952-12.128 2.457-22.555 9.535-29.34 19.871-6.782 10.292-9.127 22.604-6.636 34.71 5.71 27.779 0.291 56.145-15.38 79.891-15.623 23.702-39.471 39.934-67.22 45.652zM546.08 642.81c-24.952 5.174-41.06 29.643-35.937 54.577 4.592 22.274 24.362 37.79 47.017 36.91 2.487-0.113 5.052-0.404 7.587-0.941 86.828-17.906 161.524-68.625 210.44-142.894 48.842-74.22 65.902-162.906 47.99-249.734-2.49-12.106-9.546-22.532-19.871-29.28-8.125-5.358-17.476-7.984-27.14-7.602a46.904 46.904 0 0 0-7.62 0.951c-24.895 5.112-41.032 29.598-35.903 54.577 12.912 62.65 0.61 126.701-34.688 180.314-35.298 53.591-89.192 90.215-151.875 103.122z m0 0"  horiz-adv-x="1024" />

    
    <glyph glyph-name="search" unicode="&#58918;" d="M384 896c212.064 0 384-171.936 384-384 0-88.704-30.367-170.176-80.928-235.168l322.88-322.88C1019.327-55.42399999999998 1024-67.67999999999995 1024-80c0-12.288-4.672-24.544-14.049-33.92-9.375-9.376-21.664-14.08-33.951-14.08-12.287 0-24.576 4.704-33.92 14.08L619.2 208.928C554.175 158.36800000000005 472.735 128 384 128 171.936 128 0 299.93600000000004 0 512S171.936 896 384 896z m0-672c158.816 0 288 129.184 288 288S542.816 800 384 800 96 670.816 96 512s129.184-288 288-288z"  horiz-adv-x="1024" />

    
    <glyph glyph-name="train" unicode="&#59020;" d="M929.8 328.4V473.7c0 3.9-0.7 7.7-2 11.2-2.2 8.9-8.2 16.6-16.6 20.9L527.3 700.2c-8.8 4.5-19.3 4.6-28.2 0.3L82.3 502c-11.2-5.3-18.3-16.7-18.2-29.1 0.1-12.4 7.3-23.7 18.6-28.9l195.4-90.1c-0.1-29.2-0.1-133-0.1-138.1 0-22.6 7.6-45.1 22-65.1 12.8-17.8 30.7-33.5 53.2-46.8 43.1-25.3 99.8-39.3 159.5-39.3s116.4 14 159.5 39.3c22.5 13.2 40.4 28.9 53.2 46.8 14.4 20 22 42.5 22 65.1 0 5.8 0 142.8-0.2 145.6-0.1 1.1-0.2 2.2-0.3 3.2l119 60.9v-94.9c-19.9-10.7-33.3-31.7-33.3-55.8 0-35 28.4-63.4 63.4-63.4s63.4 28.4 63.4 63.4c-0.1 22.5-11.9 42.3-29.6 53.6zM683.3 215.89999999999998c0-41.2-70.1-87.1-170.7-87.1s-170.7 45.9-170.7 87.1V324.5l157.5-72.6c4.3-2 8.8-2.9 13.4-2.9 5 0 10 1.2 14.6 3.5l155.8 79.7c0.1-40.3 0.1-111.7 0.1-116.3zM512.2 316.5L171.4 473.6l341 162.5 313.7-158.9-313.9-160.7z m383.6-60.1c-10.2 0-18.4 8.3-18.4 18.4s8.3 18.4 18.4 18.4 18.4-8.3 18.4-18.4-8.2-18.4-18.4-18.4z"  horiz-adv-x="1024" />

    
    <glyph glyph-name="next" unicode="&#58927;" d="M588.996-63.185c-18.298 0-36.59 7.161-51.22 19.727-27.416 26.892-27.416 71.717 0 98.605L851.465 362.67l-358.52 351.468c-27.415 26.887-27.415 71.747 0 98.639 27.44 26.891 73.183 26.891 100.622 0l408.804-400.789c27.445-26.89 27.445-71.716 0-98.607L639.304-42.577c-13.72-13.447-32.016-20.608-50.308-20.608z m0 0"  horiz-adv-x="1024" />

    
    <glyph glyph-name="activity" unicode="&#58969;" d="M829.619-57.115999999999985L486.42 173.10400000000004c-12.79 8.527-19.185 21.317-19.185 34.107h-42.633l78.871-225.957c6.395-21.316-4.263-44.765-25.58-51.16l-76.74-27.711-76.74-27.712c-21.317-8.527-44.765 4.263-53.292 25.58L162.406 211.47500000000002c-42.633 10.658-78.872 34.106-106.583 63.95C23.848 313.79499999999996 2.53 360.692 2.53 413.983c0 57.555 23.448 108.716 61.818 147.086h2.132c36.238 36.238 89.53 59.686 144.953 59.686h255.8c0 14.922 8.528 29.844 21.318 36.239L833.882 889.346c19.185 12.79 42.634 6.395 55.424-12.79 4.263-6.395 6.395-14.922 6.395-23.449V573.86c27.711-6.395 53.291-21.317 74.608-42.634l2.132-2.131c29.843-29.844 49.028-72.477 49.028-117.242s-19.185-87.399-49.028-117.242c-21.317-21.317-46.897-34.107-74.609-42.634v-281.38c0-21.317-19.185-40.502-40.501-40.502-10.659 4.264-19.185 6.395-27.712 12.79z m-328.277 345.33V539.7529999999999H211.434c-34.106 0-66.081-14.922-89.53-36.238-21.316-23.449-36.238-55.424-36.238-89.53 0-31.976 12.79-61.819 31.975-83.136 21.317-21.316 49.028-38.37 81.003-40.501 14.922-2.132 27.712-10.659 34.107-27.712l104.452-296.302 38.37 12.79 38.37 12.79-83.135 238.747c-2.132 4.263-4.263 10.658-4.263 17.053 0 23.448 19.185 40.502 42.633 40.502h132.164z m49.028 294.171V230.65999999999997L814.697 53.73000000000002V778.5L550.37 601.5699999999999v-19.185zM897.832 522.7v-215.3c14.922 4.264 29.844 14.923 40.502 25.58 21.317 21.318 34.107 49.03 34.107 81.004 0 31.975-12.79 61.819-34.107 81.004-12.79 12.79-25.58 23.448-40.502 27.712z"  horiz-adv-x="1024" />

    
    <glyph glyph-name="uncheck" unicode="&#58892;" d="M891.6875 791.8125c15.46875 0 28.125-12.65625 28.125-28.125v-759.375c0-15.46875-12.65625-28.125-28.125-28.125H132.3125c-15.46875 0-28.125 12.65625-28.125 28.125V763.6875c0 15.46875 12.65625 28.125 28.125 28.125h759.375m0 42.1875H132.3125C92.9375 834 62 803.0625 62 763.6875v-759.375c0-39.375 30.9375-70.3125 70.3125-70.3125h759.375c39.375 0 70.3125 30.9375 70.3125 70.3125V763.6875c0 39.375-30.9375 70.3125-70.3125 70.3125z"  horiz-adv-x="1024" />

    
    <glyph glyph-name="deluser" unicode="&#58940;" d="M896-128.04266699999994a298.666667 298.666667 0 1 0 0.085333 597.333334A298.666667 298.666667 0 0 0 896-128z m128 341.333334h-256a42.666667 42.666667 0 0 1 0-85.333334h256a42.666667 42.666667 0 0 1 0 85.333334z m-509.44 0.213333c-0.853333 0-1.706667-0.213333-2.56-0.213333-141.738667 0-256 188.16-256 381.525333C256 774.7413329999999 362.88 896 512 896s256-121.258667 256-301.184c0-21.546667-1.621333-42.965333-4.352-64.128a383.744 383.744 0 0 1-249.088-317.184zM512 127.95733299999995c0.853333 0 1.621333 0.213333 2.474667 0.213334a383.274667 383.274667 0 0 1 138.666666-254.890667c-40.490667-0.896-86.357333-1.322667-141.141333-1.322667-172.757333 0-263.936 3.498667-341.504 16.384C61.909333-93.52533300000005 0-54.82666700000004 0 10.240000000000009c0 85.930667 110.592 205.738667 264.362667 275.2 62.122667-94.250667 149.888-157.482667 247.637333-157.482667z"  horiz-adv-x="1194" />

    
    <glyph glyph-name="adduser" unicode="&#58941;" d="M896-128.04266699999994a298.666667 298.666667 0 1 0 0.085333 597.333334A298.666667 298.666667 0 0 0 896-128z m128 341.333334h-85.333333v85.333333a42.666667 42.666667 0 1 1-85.333334 0v-85.333333h-85.333333a42.666667 42.666667 0 0 1 0-85.333334h85.333333v-85.333333a42.666667 42.666667 0 0 1 85.333334 0v85.333333h85.333333a42.666667 42.666667 0 0 1 0 85.333334z m-509.44 0.213333c-0.853333 0-1.706667-0.213333-2.56-0.213333-141.738667 0-256 188.16-256 381.525333C256 774.7413329999999 362.88 896 512 896s256-121.258667 256-301.184c0-21.546667-1.621333-42.965333-4.309333-64.128a383.701333 383.701333 0 0 1-249.130667-317.184zM512 127.95733299999995c0.853333 0 1.664 0.213333 2.474667 0.213334a383.146667 383.146667 0 0 1 138.709333-254.890667c-40.576-0.896-86.4-1.322667-141.184-1.322667-172.757333 0-263.936 3.498667-341.461333 16.384C61.909333-93.52533300000005 0-54.82666700000004 0 10.240000000000009c0 85.930667 110.592 205.738667 264.362667 275.2 62.122667-94.250667 149.888-157.482667 247.637333-157.482667z"  horiz-adv-x="1194" />

    
    </font>
</defs>
</svg>
