<?xml version="1.0" standalone="no"?>
<!DOCTYPE svg PUBLIC "-//W3C//DTD SVG 1.1//EN" "http://www.w3.org/Graphics/SVG/1.1/DTD/svg11.dtd" >
<svg xmlns="http://www.w3.org/2000/svg">
<metadata>Generated by IcoMoon</metadata>
<defs>
<font id="iconNew" horiz-adv-x="1024">
<font-face units-per-em="1024" ascent="960" descent="-64" />
<missing-glyph horiz-adv-x="1024" />
<glyph unicode="&#x20;" horiz-adv-x="512" d="" />
<glyph unicode="&#xe900;" glyph-name="collect" d="M769.093 0.179c-5.34 0-10.682 1.343-15.511 4.027l-241.208 133.798-241.722-132.964c-10.713-5.92-23.891-5.148-33.872 1.919-10.010 7.067-15.096 19.255-13.115 31.314l46.859 284.613-196.359 201.992c-8.253 8.507-11.167 20.918-7.453 32.179 3.675 11.289 13.304 19.604 25.009 21.62l155.006 26.581c17.624 2.942 33.97-8.732 36.946-26.132 2.973-17.399-8.702-33.94-26.136-36.947l-95.124-16.309 165.27-170.005c7.072-7.297 10.269-17.498 8.639-27.479l-38.801-235.577 199.53 109.778c9.625 5.309 21.335 5.309 30.93-0.063l199.084-110.417-38.001 235.675c-1.63 10.010 1.631 20.211 8.702 27.444l164.598 168.178-225.566 34.805c-10.553 1.63-19.572 8.409-24.116 18.073l-99.156 212.292-100.020-211.75c-7.55-15.993-26.614-22.807-42.608-15.257-15.959 7.55-22.802 26.61-15.257 42.604l129.099 273.324c5.306 11.196 16.565 18.327 28.914 18.327h0.063c12.412-0.035 23.672-7.229 28.919-18.454l120.744-258.515 270.218-41.711c11.871-1.82 21.69-10.137 25.492-21.494 3.778-11.353 0.865-23.926-7.482-32.462l-196.842-201.13 45.898-284.745c1.951-12.088-3.197-24.241-13.208-31.279-5.472-3.935-11.898-5.852-18.361-5.852v0z" />
<glyph unicode="&#xe901;" d="M543.437 780.288l105.779-205.312 253.952-36.864-178.176-211.661 56.525-304.742-268.595 143.667-238.285-143.667 48.435 260.71-181.76 218.829 268.288 12.288z" />
<glyph unicode="&#xe902;" d="M769.126 0.205c-5.325 0-10.65 1.331-15.462 3.994l-241.254 133.837-241.766-133.018c-10.752-5.939-23.859-5.12-33.894 1.946s-15.053 19.251-13.107 31.334l46.899 284.57-196.403 202.035c-8.294 8.499-11.162 20.89-7.475 32.154s13.312 19.558 24.986 21.606l155.034 26.624c17.613 2.97 33.997-8.704 36.966-26.112s-8.704-33.894-26.112-36.966l-95.13-16.384 165.274-169.984c7.066-7.27 10.24-17.51 8.602-27.443l-38.81-235.622 199.578 109.773c9.626 5.325 21.299 5.325 30.925-0.102l199.066-110.387-37.99 235.725c-1.638 10.035 1.638 20.173 8.704 27.443l164.557 168.141-225.587 34.816c-10.547 1.638-19.558 8.397-24.166 18.022l-99.123 212.275-100.045-211.763c-7.578-15.974-26.624-22.835-42.598-15.258s-22.835 26.624-15.258 42.598l129.229 273.408c5.325 11.162 16.589 18.33 28.877 18.33h0.102c12.39 0 23.654-7.27 28.877-18.432l120.73-258.56 270.234-41.677c11.878-1.843 21.709-10.138 25.498-21.504s0.819-23.962-7.475-32.461l-196.813-201.114 45.875-284.774c1.946-12.083-3.174-24.269-13.21-31.232-5.427-3.994-11.878-5.837-18.33-5.837z" />
<glyph unicode="&#xe903;" glyph-name="scan" d="M511.948 711.192c-293.141 0-448.565-277.992-448.565-277.992s167.818-247.091 448.565-247.091c280.768 0 448.604 247.091 448.604 247.091s-137.882 277.992-448.604 277.992zM512.224 290.479c-89.385 0-161.849 70.711-161.849 157.925 0 87.212 72.464 157.925 161.849 157.925s161.849-70.713 161.849-157.925c0-87.213-72.465-157.925-161.849-157.925zM511.968 512.801c-39.134 0-70.858-31.468-70.858-70.274s31.724-70.274 70.858-70.274 70.858 31.468 70.858 70.274c0 38.806-31.724 70.274-70.858 70.274z" />
<glyph unicode="&#xe904;" glyph-name="share" horiz-adv-x="1137" d="M0 64v-128l53.12 99.2c99.2 165.12 286.080 262.4 515.84 270.080v-312.32l568.96 483.2-568.96 483.84v-313.6c-314.011-11.907-564.598-267.188-568.955-581.98l-0.005-0.42zM64 146.56c46.311 253.724 265.643 443.534 529.306 443.534 1.341 0 2.681-0.005 4.020-0.015l-0.206 0.001h28.8v256l426.24-367.36-426.24-366.72v250.88h-28.8c-8.457 0.369-18.378 0.579-28.348 0.579-198.693 0-377.895-83.451-504.469-217.216l-0.303-0.323z" />
<glyph unicode="&#xe905;" glyph-name="comment" d="M896 960h-768c-64 0-128-64-128-128v-540.16c0-64 64-125.44 128-125.44h256l128-222.72 128 222.72h256c64 0 102.4 61.44 102.4 122.88v542.72c0 64-38.4 128-102.4 128zM947.2 289.28c0-35.84-15.36-71.68-51.2-71.68h-286.72l-97.28-171.52-97.28 171.52h-286.72c-35.84 0-76.8 38.4-76.8 71.68v542.72c0 35.84 40.96 76.8 76.8 76.8h768c35.84 0 51.2-40.96 51.2-76.8v-542.72zM512 611.84c-30.72 0-58.88-25.6-58.88-58.88 0-30.72 25.6-58.88 58.88-58.88s58.88 25.6 58.88 58.88c0 33.28-28.16 58.88-58.88 58.88zM258.56 611.84c-30.72 0-58.88-25.6-58.88-58.88 0-30.72 25.6-58.88 58.88-58.88s58.88 25.6 58.88 58.88c0 33.28-28.16 58.88-58.88 58.88zM765.44 611.84c-30.72 0-58.88-25.6-58.88-58.88 0-30.72 25.6-58.88 58.88-58.88 30.72 0 58.88 25.6 58.88 58.88s-25.6 58.88-58.88 58.88z" />
<glyph unicode="&#xe906;" glyph-name="location" d="M521.309-5.818l-16.291 11.636c-13.964 11.636-370.036 316.509-370.036 521.309 0 207.127 169.891 374.691 377.018 374.691s377.018-169.891 377.018-377.018c0-202.473-339.782-507.345-353.745-521.309l-13.964-9.309zM512 859.927c-183.855 0-332.8-148.945-332.8-332.8 0-162.909 274.618-416.582 339.782-474.764 65.164 60.509 325.818 314.182 325.818 474.764 0 183.855-148.945 332.8-332.8 332.8zM514.327 366.545c-88.436 0-160.582 72.145-160.582 160.582s72.145 160.582 160.582 160.582 160.582-72.145 160.582-160.582-72.145-160.582-160.582-160.582zM514.327 641.164c-62.836 0-116.364-51.2-116.364-116.364 0-62.836 51.2-116.364 116.364-116.364s116.364 51.2 116.364 116.364-51.2 116.364-116.364 116.364z" />
<glyph unicode="&#xe907;" glyph-name="mine" d="M794.013 575.117c0 153.891-126.252 278.617-282.011 278.617-155.765 0-282.012-124.727-282.012-278.617 0-88.859 42.245-167.804 107.793-218.814-117.542-59.197-200.277-177.064-209.441-314.038h42.181c9.893 128.268 93.13 241.834 209.294 286.982 36.911-17.539 88.484-32.746 132.186-32.746 43.7 0 84.918 10.102 121.832 27.637l28.932 16.77 23.432 15.395c65.576 51.010 107.816 129.955 107.816 218.814v0zM512.003 341.89c-130.395 0-236.084 104.42-236.084 233.246 0 128.79 105.689 233.229 236.084 233.229 130.39 0 236.102-104.438 236.102-233.229-0.001-128.827-100.476-233.246-236.102-233.246v0zM750.582 315.374l-0.206-0.294c-4.605 4.395-10.751 7.162-17.622 7.162-14.184 0-25.662-5.394-25.662-19.574 0-9.79 5.662-17.998 13.703-22.321l-0.17-0.253c77.113-55.109 116.003-138.554 123.669-237.829h51.363c-7.373 110.275-62.506 208.464-145.074 273.108v0z" />
<glyph unicode="&#xe908;" glyph-name="shouye" d="M640 64h192v426.624h42.667v-426.837c0-23.467-19.029-42.475-42.667-42.475h-234.667v213.355h-170.667v-213.333h-234.667c-23.573 0-42.667 18.987-42.667 42.453v426.859h42.667v-426.645h192v213.333h256v-213.333zM100.032 453.867c-3.819-3.634-8.998-5.87-14.699-5.87-11.784 0-21.337 9.553-21.337 21.337 0 6.083 2.546 11.571 6.629 15.458l0.009 0.008 395.648 375.851c11.908 11.233 28.007 18.137 45.717 18.137s33.809-6.904 45.75-18.168l-0.033 0.031 395.669-375.851c4.093-3.895 6.638-9.384 6.638-15.467 0-11.784-9.553-21.337-21.337-21.337-5.701 0-10.88 2.236-14.708 5.879l0.009-0.008-395.648 375.851c-4.274 3.975-10.023 6.415-16.341 6.415s-12.068-2.44-16.356-6.428l0.015 0.014-395.605-375.851zM832 768h-128c-11.782 0-21.333 9.551-21.333 21.333s9.551 21.333 21.333 21.333v0h149.333c11.782 0 21.333-9.551 21.333-21.333v-149.333c0-11.782-9.551-21.333-21.333-21.333s-21.333 9.551-21.333 21.333v0 128z" />
<glyph unicode="&#xe909;" glyph-name="neirong2" d="M128 127.957c0-17.003 4.907-20.309 20.629-14.016l15.36 6.144c75.733 30.293 193.579 30.293 269.355 0l94.507-37.803h-31.701l94.507 37.803c75.733 30.293 193.579 30.293 269.355 0l15.36-6.144c15.659-6.272 20.629-2.901 20.629 14.016v576.085c0 29.739-24.747 66.304-52.309 77.333l-15.36 6.144c-55.424 22.165-150.549 22.187-205.973 0l-110.357-44.139-110.357 44.139c-55.403 22.165-150.528 22.187-205.952 0l-15.36-6.144c-27.52-10.987-52.331-47.68-52.331-77.333v-576.085zM164.48 820.992l15.36 6.144c65.621 26.24 172.117 26.219 237.653 0l94.507-37.803 94.507 37.803c65.621 26.24 172.117 26.219 237.653 0l15.36-6.144c43.733-17.493 79.147-69.717 79.147-116.949v-576.085c0-47.104-35.477-71.104-79.147-53.632l-15.36 6.144c-65.621 26.24-172.117 26.219-237.653 0l-94.507-37.803-94.507 37.803c-65.621 26.24-172.117 26.219-237.653 0l-15.36-6.144c-43.733-17.493-79.147 6.4-79.147 53.632v576.085c0 47.104 35.477 99.477 79.147 116.949zM490.667 746.603c0 11.782 9.551 21.333 21.333 21.333s21.333-9.551 21.333-21.333v0-511.872c0-11.782-9.551-21.333-21.333-21.333s-21.333 9.551-21.333 21.333v0 511.872z" />
<glyph unicode="&#xe90a;" glyph-name="faxian" d="M512 832c-341.333 0-469.333-384-469.333-384s128-383.979 469.333-384c341.333-0.021 469.333 384 469.333 384s-128 384-469.333 384zM512.043 106.667h-0.043c-126.976 0-237.141 58.432-327.488 173.611-54.037 68.928-84.928 139.029-96.299 167.723 25.728 64.896 151.424 341.333 423.787 341.333 126.976 0 237.141-58.411 327.488-173.611 54.037-68.907 84.928-139.029 96.299-167.723-11.392-28.736-42.283-98.837-96.299-167.744-90.325-115.2-200.491-173.589-327.445-173.589zM512 704c-141.376 0-256-114.624-256-256s114.624-256 256-256 256 114.624 256 256-114.624 256-256 256zM512 234.667c-117.632 0-213.333 95.701-213.333 213.333s95.701 213.333 213.333 213.333 213.333-95.701 213.333-213.333-95.701-213.333-213.333-213.333zM512 597.333c-11.782 0-21.333-9.551-21.333-21.333s9.551-21.333 21.333-21.333v0c58.816 0 106.667-47.851 106.667-106.667 0-11.782 9.551-21.333 21.333-21.333s21.333 9.551 21.333 21.333v0c0 82.347-66.987 149.333-149.333 149.333z" />
<glyph unicode="&#xe90b;" glyph-name="shuzizhanguan" d="M832 597.333v-85.333l82.133-170.667 67.2-85.333h-938.667l67.2 85.333 82.133 170.667v85.333h-85.333l48.768 53.333 79.232 117.333 21.333 85.333h85.333l21.333-42.667h298.667l21.333 42.667h85.333l21.333-85.333 79.232-117.333 48.768-53.333h-85.333zM789.333 597.333h-554.667v-85.333h554.667v85.333zM749.76 750.357l-15.083 60.309h-25.643l-21.333-42.667h-351.403l-21.333 42.667h-25.643l-15.083-60.309-74.56-110.357h624.64l-74.539 110.357zM877.717 318.613l-72.533 150.72h-586.368l-72.533-150.72-15.701-19.947h762.837l-15.701 19.947zM554.667 21.333v85.461c0 23.467-19.093 42.539-42.667 42.539-23.723 0-42.667-19.051-42.667-42.539v-85.461h-448l128 277.333h725.333l128-277.333h-448zM426.667 64v42.795c0 0.013 0 0.028 0 0.043 0 47.034 38.129 85.163 85.163 85.163 0.060 0 0.12 0 0.18 0h-0.009c47.083 0 85.333-38.144 85.333-85.205v-42.795h338.645l-88.619 192h-670.72l-88.619-192h338.645z" />
<glyph unicode="&#xe90c;" glyph-name="huodongxiangqu" d="M170.667 235.456v-21.333h-42.667l0.043 42.667h21.333s14.421-0.021 21.632-0.789c227.797 0.491 669.44-0.491 669.44-0.491l-130.987 246.421c-8.747 16.512-8.96 41.131-0.277 57.664l131.605 251.072-669.845-0.043-0.277-575.168zM854.421 851.84c27.584-0.064 43.264-25.429 30.336-50.048l-137.813-262.037c-2.048-3.925-2.027-13.611 0.213-17.792l137.323-258.347c13.056-24.597-2.155-50.347-30.123-50.304l-726.357 0.021v607.787c0 17.877 14.421 32.213 32.213 32.213l694.208-1.472zM128 21.333h42.667v192h-42.667v-192z" />
<glyph unicode="&#xe90d;" glyph-name="anquanzhongxin" d="M526.848 73.216c202.667 81.067 371.221 327.531 373.397 545.92l0.853 85.333c0 1.408-2.091 3.733-3.52 3.861l-6.656 0.64c-100.075 9.771-247.659 58.517-333.952 110.293l-30.251 18.133c-5.419 3.264-18.283 2.603-23.253-1.131-81.792-61.355-226.581-116.587-328.363-125.227l-38.144-3.264c-1.664-0.149-3.861-2.517-3.883-4.139l-0.853-85.333c-2.155-218.197 162.539-464.128 364.928-545.067l14.848-5.952 14.848 5.931zM90.411 704.064c0.235 23.531 19.264 44.203 42.923 46.229l38.144 3.243c93.803 7.979 230.997 60.309 306.389 116.864 18.859 14.144 50.517 15.787 70.827 3.605l30.229-18.155c80.853-48.512 222.336-95.253 316.139-104.405l6.656-0.64c23.467-2.283 42.261-23.232 42.027-46.741l-0.853-85.333c-2.347-235.691-181.461-497.621-400.213-585.131l-30.677-12.267-30.677 12.267c-218.709 87.467-394.091 349.291-391.744 585.109l0.853 85.355zM356.416 463.083c-3.832 3.705-9.060 5.989-14.821 5.989-11.782 0-21.333-9.551-21.333-21.333 0-5.761 2.283-10.988 5.994-14.827l149.327-149.327c3.859-3.854 9.188-6.237 15.073-6.237 6.788 0 12.836 3.171 16.743 8.112l0.034 0.045 234.667 298.667c3.086 3.675 4.96 8.456 4.96 13.676 0 11.782-9.551 21.333-21.333 21.333-7.012 0-13.234-3.383-17.123-8.606l-0.040-0.057-219.819-279.765-132.331 132.331z" />
<glyph unicode="&#xe90e;" glyph-name="jinnang" d="M806.741 311.253c13.768 5.536 29.731 8.747 46.444 8.747 0.052 0 0.104 0 0.156 0h-0.008c32.789 0 62.677-12.331 85.333-32.597v416.491c0 65.941-45.739 100.16-108.757 81.557l-573.909-169.557v-338.667c0-11.733-9.472-21.227-21.333-21.227-0.040 0-0.086 0-0.133 0-5.085 0-9.748 1.804-13.385 4.808l0.036-0.029c-2.229 1.657-4.792 3.349-7.447 4.902l-0.404 0.218v0.043c-12.239 7.188-26.957 11.433-42.667 11.433-47.128 0-85.333-38.205-85.333-85.333 0-0.014 0-0.028 0-0.043v95.405c22.477 20.226 52.372 32.597 85.157 32.597 0.062 0 0.124 0 0.186 0h-0.010c14.955 0 29.312-2.56 42.667-7.275v465.216c-12.23 7.168-26.933 11.401-42.624 11.401-47.14 0-85.357-38.205-85.376-85.341v-512.194c0-65.173 44.757-97.877 106.688-78.187l614.72 197.632zM768 256.469l-562.752-183.403c-89.792-28.587-162.581 24.747-162.581 118.72v512.213c0.002 70.691 57.309 127.997 128 127.997 32.841 0 62.793-12.368 85.453-32.7l-0.119 0.105v-139.029l561.835 165.973c90.304 26.709 163.499-27.925 163.499-122.432v-511.915c-0.002-70.691-57.309-127.997-128-127.997-32.841 0-62.793 12.368-85.453 32.7l0.119-0.105v159.872zM853.333 106.667c47.128 0 85.333 38.205 85.333 85.333s-38.205 85.333-85.333 85.333v0c-15.552 0-30.123-0.64-42.667-7.893v-151.36c12.544-7.253 27.115-11.413 42.667-11.413z" />
<glyph unicode="&#xe90f;" glyph-name="xihuan" d="M523.733 118.976l132.864 130.389c70.976 69.632 120.32 117.973 138.709 135.893 59.008 57.515 93.248 121.28 99.627 184.235 6.251 61.44-15.488 119.744-61.589 164.672-44.992 43.84-98.88 61.909-157.035 52.907-49.365-7.616-101.035-34.624-150.016-78.848-3.767-3.41-8.786-5.496-14.293-5.496s-10.527 2.087-14.312 5.513l0.018-0.016c-48.981 44.224-100.651 71.232-150.016 78.869-58.155 8.96-112.043-9.088-157.035-52.928-46.101-44.928-67.84-103.211-61.611-164.693 6.4-62.933 40.64-126.72 99.648-184.213 66.411-64.849 113.926-111.385 161.395-157.968l-15.475 15.142 24.256-23.765 113.131-111.189 11.733 11.499zM512 107.456l-1.493-1.429c0.381 0.388 0.908 0.631 1.492 0.64h0.002c0.512 0 1.045-0.213 1.493-0.64l-1.493 1.451zM669.781 829.248c71.637 11.093 138.901-11.477 193.344-64.533 55.317-53.931 81.835-124.992 74.283-199.531-7.467-73.643-46.549-146.368-112.32-210.475-18.347-17.899-67.669-66.219-138.453-135.637-31.829-31.232-65.707-64.448-99.84-97.984l-46.379-45.504c-7.312-7.185-17.346-11.62-28.416-11.62s-21.104 4.435-28.422 11.626l0.006-0.006-138.816 136.363c67.59-65.86 19.959-19.21-27.68 27.433l-118.176 115.329c-65.771 64.107-104.832 136.811-112.299 210.475-7.552 74.539 18.944 145.6 74.283 199.531 54.443 53.056 121.707 75.605 193.344 64.533 53.163-8.213 107.093-34.688 157.781-76.949 50.709 42.24 104.619 68.736 157.781 76.949z" />
<glyph unicode="&#xe910;" glyph-name="wenhuapinpai" d="M512 704c47.128 0 85.333 38.205 85.333 85.333s-38.205 85.333-85.333 85.333v0c-47.128 0-85.333-38.205-85.333-85.333s38.205-85.333 85.333-85.333v0zM512 746.667c-0.002 0-0.004 0-0.007 0-23.564 0-42.667 19.103-42.667 42.667s19.103 42.667 42.667 42.667c0.002 0 0.005 0 0.007 0v0c23.561-0.004 42.66-19.105 42.66-42.667s-19.099-42.663-42.66-42.667v0zM309.781 429.269c2.949-1.639 6.468-2.603 10.213-2.603 6.285 0 11.936 2.718 15.84 7.043l0.017 0.019 176.149 195.712 176.149-195.712c3.921-4.344 9.571-7.062 15.857-7.062 3.744 0 7.263 0.965 10.322 2.659l-0.109-0.056 196.523 107.2-75.605-472.469h-646.187l-14.123 91.968h563.52c11.782 0 21.333 9.551 21.333 21.333s-9.551 21.333-21.333 21.333v0h-588.373c-11.779-0.005-21.325-9.554-21.325-21.333 0-1.145 0.090-2.268 0.264-3.364l-0.016 0.121 20.693-134.635c1.628-10.302 10.443-18.086 21.077-18.091h682.667c10.588 0.005 19.372 7.722 21.039 17.839l0.017 0.124 85.333 533.333c0.17 1.013 0.268 2.18 0.268 3.369 0 11.782-9.551 21.333-21.333 21.333-3.743 0-7.261-0.964-10.319-2.657l0.109 0.056-219.861-119.936-180.736 200.811c-3.921 4.34-9.569 7.055-15.851 7.055s-11.93-2.715-15.834-7.037l-0.017-0.019-180.736-200.811-219.84 119.936c-2.953 1.644-6.478 2.612-10.228 2.612-11.782 0-21.333-9.551-21.333-21.333 0-1.231 0.104-2.438 0.305-3.613l-0.018 0.126 46.165-278.677c2.035-9.832 10.623-17.116 20.912-17.116 11.782 0 21.333 9.551 21.333 21.333 0 0.965-0.064 1.915-0.188 2.847l0.012-0.109-38.997 235.52 196.267-107.051z" />
<glyph unicode="&#xe911;" glyph-name="jieban" d="M770.176 64h122.773c11.782 0 21.333 9.551 21.333 21.333v0c0 91.157-23.787 176.107-64.725 234.304l-6.379-30.507c71.808 43.669 116.821 123.904 116.821 212.203 0 121.237-84.693 224.021-198.507 242.432-0.93 0.143-2.002 0.225-3.093 0.225-11.782 0-21.333-9.551-21.333-21.333 0-10.463 7.532-19.166 17.469-20.984l0.131-0.020c92.885-15.019 162.667-99.733 162.667-200.32 0-73.408-37.269-139.84-96.32-175.744-6.185-3.809-10.246-10.543-10.246-18.226 0-4.601 1.456-8.862 3.934-12.346l-0.044 0.066c35.584-50.56 56.96-126.933 56.96-209.749l21.333 21.333h-148.48c-11.782 0-21.333-9.551-21.333-21.333s9.551-21.333 21.333-21.333v0h25.707zM253.824 109.291h-122.773l21.333-21.333c0 82.816 21.376 159.189 56.96 209.749 2.433 3.419 3.889 7.68 3.889 12.281 0 7.683-4.061 14.417-10.154 18.173l-0.092 0.053c-59.051 35.904-96.32 102.336-96.32 175.744 0 100.587 69.803 185.301 162.645 200.32 10.068 1.838 17.6 10.541 17.6 21.004 0 11.782-9.551 21.333-21.333 21.333-1.091 0-2.164-0.082-3.211-0.24l0.118 0.015c-113.792-18.411-198.485-121.195-198.485-242.432 0-88.299 45.013-168.533 116.821-212.203l-6.379 30.507c-40.96-58.197-64.725-143.147-64.725-234.304 0-11.782 9.551-21.333 21.333-21.333h148.48c11.782 0 21.333 9.551 21.333 21.333s-9.551 21.333-21.333 21.333v0h-25.707zM518.4 874.667c-168.491 0-305.067-136.576-305.067-305.067 0-110.080 58.837-209.963 152.363-264.149l-6.485 31.147c-53.717-72.811-85.077-179.435-85.077-293.931 0-11.782 9.551-21.333 21.333-21.333h445.867c11.782 0 21.333 9.551 21.333 21.333v0c0 114.539-31.36 221.141-85.12 293.909l-6.443-31.147c91.732 53.726 152.363 151.8 152.363 264.035 0 0.048 0 0.095 0 0.143v-0.008c0 168.491-136.576 305.067-305.067 305.067zM649.707 342.357c-6.409-3.76-10.644-10.617-10.644-18.462 0-4.776 1.569-9.185 4.221-12.741l-0.040 0.056c48.021-64.981 76.757-162.688 76.757-268.544l21.333 21.333h-445.867l21.333-21.333c0 105.813 28.736 203.541 76.736 268.587 2.604 3.496 4.169 7.9 4.169 12.669 0 7.841-4.23 14.694-10.533 18.402l-0.1 0.054c-78.912 46.195-131.072 130.548-131.072 227.085 0 0.048 0 0.096 0 0.143v-0.007c0 144.917 117.483 262.4 262.4 262.4s262.4-117.483 262.4-262.4c0-94.699-50.56-180.523-131.093-227.243zM512.107 405.333c72.747 0.384 136 42.496 168.853 119.637 1.079 2.467 1.707 5.341 1.707 8.363 0 11.782-9.552 21.334-21.334 21.334-8.761 0-16.289-5.281-19.573-12.834l-0.053-0.138c-26.197-61.483-74.112-93.397-129.813-93.696-55.893-0.32-103.552 31.36-129.536 93.568-3.309 7.764-10.876 13.109-19.691 13.109-11.788 0-21.343-9.556-21.343-21.343 0-2.972 0.608-5.803 1.705-8.374l-0.053 0.139c32.64-78.123 95.936-120.171 169.131-119.765z" />
<glyph unicode="&#xe912;" glyph-name="shezhi" d="M872.555 653.696c-22.613-8.128-45.696-9.941-69.163-4.373-53.617 12.632-92.913 60.068-92.913 116.682 0 14.886 2.717 29.138 7.682 42.286l-0.273-0.824c1.749 4.843 0.853 6.955-3.605 8.96-17.92 8.107-35.541 16.917-53.675 24.533-11.925 4.992-24.533 8.384-36.501 12.373-23.147-47.659-59.456-74.88-112.064-74.88-52.821 0-89.259 27.307-111.979 74.539-36.353-10.080-68.083-23.586-97.509-40.631l1.978 1.057c17.216-49.493 10.923-94.635-26.539-131.925-37.376-37.205-82.496-43.712-131.776-26.283-15.96-27.438-29.457-59.16-38.853-92.599l-0.699-2.91c46.933-22.656 74.197-58.667 74.517-110.997 0.32-53.163-26.987-89.771-74.539-112.768 10.082-36.349 23.61-68.080 40.69-97.494l-1.052 1.963c47.808 16.789 91.669 11.371 128.64-23.253 39.957-37.44 47.275-83.627 29.653-134.933 27.459-16.032 59.2-29.51 92.685-38.793l2.846-0.673c23.040 47.36 59.349 74.475 111.979 74.453 52.885-0.064 89.216-27.541 111.893-74.539 36.338 10.097 68.053 23.616 97.462 40.672l-1.974-1.056c-17.387 49.493-10.816 94.4 26.24 131.627 37.291 37.419 82.432 43.776 132.053 26.539 16.012 27.448 29.501 59.178 38.827 92.643l0.682 2.867c-47.787 23.211-74.987 59.947-74.517 113.067 0.448 52.053 27.563 87.957 74.56 110.656-9.879 35.428-22.847 66.3-39.105 95.066l1.089-2.096c-2.048 3.712-4.309 1.92-6.763 1.067zM958.507 570.901c0.954-3.364 1.502-7.228 1.502-11.22 0-16.816-9.728-31.36-23.864-38.311l-0.251-0.111c-34.603-16.725-50.176-39.147-50.453-72.619-0.299-34.283 15.253-57.195 50.496-74.304 14.342-7.078 24.033-21.599 24.033-38.383 0-3.968-0.542-7.809-1.555-11.453l0.071 0.3c-11.067-40.123-25.976-75.161-44.825-107.628l1.155 2.156c-7.487-12.957-21.275-21.535-37.066-21.535-5.009 0-9.817 0.863-14.283 2.449l0.298-0.092c-36.651 12.736-63.851 7.68-87.808-16.363-23.915-24.021-28.949-51.093-16.213-87.381 1.528-4.212 2.412-9.074 2.412-14.142 0-15.77-8.556-29.542-21.279-36.927l-0.204-0.109c-30.267-17.645-65.256-32.555-102.146-42.923l-3.198-0.768c-3.4-0.975-7.306-1.535-11.342-1.535-16.821 0-31.368 9.734-38.317 23.876l-0.111 0.251c-16.725 34.688-39.509 50.368-73.493 50.389-33.92 0.021-56.597-15.509-73.579-50.432-7.084-14.324-21.596-24.001-38.367-24.001-3.896 0-7.669 0.522-11.255 1.5l0.299-0.070c-40.158 10.981-75.247 25.859-107.744 44.71l2.144-1.148c-13.016 7.473-21.642 21.292-21.642 37.127 0 4.963 0.847 9.728 2.405 14.159l-0.092-0.299c13.035 37.973 7.381 65.728-18.475 89.941-23.595 22.101-50.091 26.517-85.333 14.144-4.21-1.526-9.069-2.409-14.134-2.409-15.761 0-29.526 8.546-36.914 21.256l-0.109 0.204c-17.684 30.3-32.61 65.327-42.97 102.263l-0.764 3.188c-0.968 3.389-1.525 7.282-1.525 11.304 0 16.8 9.71 31.333 23.824 38.291l0.25 0.111c35.072 16.939 50.667 39.808 50.453 74.069-0.213 33.643-15.787 56.149-50.389 72.853-14.402 7.057-24.143 21.609-24.143 38.436 0 3.972 0.543 7.816 1.558 11.464l-0.071-0.3c11.105 40.089 25.965 75.080 44.713 107.544l-1.172-2.2c7.466 13.042 21.3 21.689 37.153 21.689 5.104 0 9.999-0.896 14.536-2.54l-0.297 0.094c36.096-12.779 63.317-7.723 87.467 16.299 24 23.893 29.035 51.072 16.32 87.68-1.494 4.167-2.357 8.975-2.357 13.984 0 15.791 8.579 29.579 21.33 36.957l0.205 0.11c30.279 17.639 65.283 32.542 102.187 42.902l3.199 0.767c3.376 0.96 7.253 1.512 11.259 1.512 16.837 0 31.396-9.752 38.337-23.917l0.111-0.252c16.725-34.731 39.509-50.389 73.536-50.368 33.899 0 56.576 15.616 73.664 50.837 7.077 14.344 21.599 24.037 38.385 24.037 4.829 0 9.47-0.802 13.798-2.281l-0.3 0.089c2.517-0.832 4.992-1.621 9.28-2.965l7.531-2.347c8.96-2.88 15.787-5.291 22.699-8.192 10.155-4.245 18.091-7.872 35.029-15.829 10.069-4.736 14.4-6.741 19.733-9.152 25.024-11.307 35.349-36.821 26.155-62.336-16-44.352 9.344-91.221 55.253-102.144 14.805-3.52 29.419-2.539 44.864 3.029 1.224 0.566 2.712 1.118 4.245 1.563l0.235 0.058c5.269 1.621 10.88 2.453 17.323 1.941 16.853-1.344 29.525-11.093 36.736-24.171 16.687-29.363 30.95-63.353 41.028-99.097l0.785-3.26zM522.667 640c-111.924-0.008-202.653-90.742-202.653-202.667 0-111.93 90.737-202.667 202.667-202.667s202.667 90.737 202.667 202.667c0 43.3-13.579 83.428-36.711 116.359l0.431-0.647c-3.918 5.425-10.225 8.915-17.346 8.915-11.782 0-21.333-9.551-21.333-21.333 0-4.466 1.372-8.612 3.719-12.038l-0.047 0.073c17.89-25.472 28.589-57.124 28.589-91.276 0-88.366-71.634-160-160-160s-160 71.634-160 160c0 88.366 71.634 160 160 160 22.471 0 43.861-4.633 63.266-12.995l-1.039 0.398c2.449-1.062 5.302-1.68 8.299-1.68 11.785 0 21.338 9.554 21.338 21.338 0 8.788-5.313 16.335-12.901 19.606l-0.139 0.053c-23.186 10.048-50.189 15.893-78.557 15.893-0.087 0-0.174 0-0.262 0h0.013z" />
<glyph unicode="&#xe913;" glyph-name="guanyuwomen" d="M675.328 842.283c-48.106 20.48-104.066 32.384-162.806 32.384-0.184 0-0.367 0-0.551 0h0.028c-235.648 0-426.667-191.019-426.667-426.667s191.019-426.667 426.667-426.667 426.667 191.019 426.667 426.667c0 56.747-11.093 112-32.384 163.328-3.39 7.566-10.854 12.741-19.526 12.741-11.782 0-21.333-9.551-21.333-21.333 0-2.788 0.535-5.451 1.508-7.893l-0.051 0.144c18.416-43.271 29.12-93.605 29.12-146.439 0-0.192 0-0.385 0-0.577v0.029c0-212.075-171.925-384-384-384s-384 171.925-384 384 171.925 384 384 384c51.115 0 100.8-9.984 146.987-29.12 2.297-0.922 4.96-1.457 7.749-1.457 11.782 0 21.333 9.551 21.333 21.333 0 8.673-5.175 16.137-12.606 19.472l-0.135 0.054zM490.667 511.851c0 11.861 9.472 21.483 21.333 21.483 11.776 0 21.333-9.6 21.333-21.483v-255.701c0-11.883-9.472-21.483-21.333-21.483-11.776 0-21.333 9.6-21.333 21.483v255.701zM490.667 639.808c0 11.782 9.551 21.333 21.333 21.333s21.333-9.551 21.333-21.333v0-42.283c0-11.782-9.551-21.333-21.333-21.333s-21.333 9.551-21.333 21.333v0 42.283z" />
<glyph unicode="&#xe914;" glyph-name="shuzi" d="M724.864 469.333c-5.069 138.636-60.441 263.435-148.286 357.527l0.297-0.321c174.379-29.653 308.672-176.853 318.528-357.205h-170.539zM341.717 469.333c5.742 143.829 70.132 271.57 169.753 360.766l0.487 0.428c100.1-89.624 164.477-217.369 170.166-360.21l0.031-0.985h-340.437zM511.957 67.328c-99.668 89.215-163.93 216.207-170.139 358.269l-0.037 1.070h340.267c-6.224-143.129-70.474-270.124-169.647-358.91l-0.487-0.428zM128.576 426.667h170.517c5.565-138.999 61.634-263.918 150.226-357.817l-0.253 0.27c-175.317 28.907-310.571 176.533-320.491 357.547zM512 874.667c-166.507 0-310.72-95.36-381.013-234.453-1.64-2.951-2.605-6.472-2.605-10.219 0-11.789 9.557-21.346 21.346-21.346 8.043 0 15.046 4.448 18.686 11.018l0.056 0.109c53.76 107.307 156.288 185.92 278.528 206.741-87.524-93.773-142.879-218.562-147.918-356.197l-0.029-0.987h-192.213c-11.904 0-21.504-9.557-21.504-21.333 0-235.648 191.061-426.667 426.667-426.667 166.528 0 310.741 95.381 381.056 234.453 1.874 3.11 2.983 6.866 2.983 10.88 0 11.782-9.551 21.333-21.333 21.333-0.014 0-0.027 0-0.041 0h0.002c-8.363 0-15.573-4.8-19.136-11.776-54.080-107.925-157.525-186.859-280.725-207.125 88.344 93.632 144.413 218.56 149.939 356.495l0.034 1.073h192.384c11.904 0 21.504 9.557 21.504 21.333 0 235.648-191.040 426.667-426.667 426.667z" />
<glyph unicode="&#xe915;" glyph-name="youji" d="M853.333 832h-640.213c-23.381 0-42.453-19.157-42.453-42.667v-682.667c0-23.595 19.008-42.667 42.453-42.667h640.213v768zM213.12 874.667h682.88v-831.808c0-11.947-9.557-21.525-21.333-21.525h-661.547c-47.021 0.049-85.12 38.178-85.12 85.205 0 0.045 0 0.090 0 0.135v-0.007 682.667c0 47.019 38.101 85.333 85.12 85.333zM533.227 21.333h320.107v170.667h-640.213c-15.467 0-29.952-4.139-42.453-11.349v-73.984c0 23.595 19.008 42.667 42.453 42.667h640.213v-128h-320.107zM512 832v-281.813l-74.368 44.587c-3.13 1.906-6.916 3.034-10.965 3.034s-7.835-1.128-11.060-3.087l0.095 0.053-74.368-44.587v281.813h170.667zM522.368 494.208c3.13-1.906 6.916-3.034 10.965-3.034 11.776 0 21.324 9.542 21.333 21.316v319.51h-256v-319.509c0.010-11.775 9.557-21.316 21.333-21.316 4.049 0 7.835 1.128 11.060 3.087l-0.095-0.053 95.701 57.387 95.701-57.387z" />
</font>
</defs>
</svg>
