<?xml version="1.0" standalone="no"?>
<!DOCTYPE svg PUBLIC "-//W3C//DTD SVG 1.1//EN" "http://www.w3.org/Graphics/SVG/1.1/DTD/svg11.dtd" >
<!--
2013-9-30: Created.
-->
<svg>
<metadata>
Created by iconfont
</metadata>
<defs>

<font id="icon" horiz-adv-x="1024" >
  <font-face
    font-family="icon"
    font-weight="500"
    font-stretch="normal"
    units-per-em="1024"
    ascent="896"
    descent="-128"
  />
    <missing-glyph />
    
    <glyph glyph-name="x" unicode="x" horiz-adv-x="1001"
d="M281 543q-27 -1 -53 -1h-83q-18 0 -36.5 -6t-32.5 -18.5t-23 -32t-9 -45.5v-76h912v41q0 16 -0.5 30t-0.5 18q0 13 -5 29t-17 29.5t-31.5 22.5t-49.5 9h-133v-97h-438v97zM955 310v-52q0 -23 0.5 -52t0.5 -58t-10.5 -47.5t-26 -30t-33 -16t-31.5 -4.5q-14 -1 -29.5 -0.5
t-29.5 0.5h-32l-45 128h-439l-44 -128h-29h-34q-20 0 -45 1q-25 0 -41 9.5t-25.5 23t-13.5 29.5t-4 30v167h911zM163 247q-12 0 -21 -8.5t-9 -21.5t9 -21.5t21 -8.5q13 0 22 8.5t9 21.5t-9 21.5t-22 8.5zM316 123q-8 -26 -14 -48q-5 -19 -10.5 -37t-7.5 -25t-3 -15t1 -14.5
t9.5 -10.5t21.5 -4h37h67h81h80h64h36q23 0 34 12t2 38q-5 13 -9.5 30.5t-9.5 34.5q-5 19 -11 39h-368zM336 498v228q0 11 2.5 23t10 21.5t20.5 15.5t34 6h188q31 0 51.5 -14.5t20.5 -52.5v-227h-327z" />
    

    
    <glyph glyph-name="round-check-fill" unicode="&#58966;" d="M512 830.016C266.08 830.016 65.984 629.9200000000001 65.984 384c0-245.952 200.064-446.016 446.016-446.016 245.952 0 446.016 200.064 446.016 446.016C958.016 629.9200000000001 757.952 830.016 512 830.016zM727.232 457.568l-256.224-259.008c-0.064-0.064-0.192-0.096-0.256-0.192-0.096-0.064-0.096-0.192-0.192-0.256-2.048-1.984-4.576-3.2-6.944-4.544-1.184-0.672-2.144-1.696-3.392-2.176-3.84-1.536-7.904-2.336-11.968-2.336-4.096 0-8.224 0.8-12.096 2.4-1.28 0.544-2.304 1.632-3.52 2.304-2.368 1.344-4.832 2.528-6.88 4.544-0.064 0.064-0.096 0.192-0.16 0.256-0.064 0.096-0.192 0.096-0.256 0.192l-126.016 129.504c-12.32 12.672-12.032 32.928 0.64 45.248 12.672 12.288 32.896 12.064 45.248-0.64l103.264-106.112 233.28 235.84c12.416 12.576 32.704 12.704 45.248 0.256C739.52 490.4 739.648 470.144 727.232 457.568z"  horiz-adv-x="1024" />

    
    <glyph glyph-name="round-check" unicode="&#58967;" d="M512-64C264.96-64 64 136.96000000000004 64 384S264.96 832 512 832s448-200.96 448-448S759.04-64 512-64zM512 767.712C300.416 767.712 128.288 595.5840000000001 128.288 384c0-211.552 172.128-383.712 383.712-383.712 211.552 0 383.712 172.16 383.712 383.712C895.712 595.5840000000001 723.552 767.712 512 767.712zM726.976 502.816c-12.544 12.448-32.832 12.32-45.248-0.256l-233.28-235.84-103.264 106.112c-12.352 12.704-32.608 12.928-45.248 0.64-12.672-12.32-12.96-32.608-0.64-45.248l126.016-129.504c0.064-0.096 0.192-0.096 0.256-0.192 0.064-0.064 0.096-0.192 0.16-0.256 2.016-1.984 4.512-3.2 6.88-4.544 1.248-0.672 2.24-1.792 3.52-2.304 3.872-1.6 8-2.4 12.096-2.4 4.064 0 8.128 0.8 11.968 2.336 1.248 0.512 2.208 1.536 3.392 2.176 2.4 1.344 4.896 2.528 6.944 4.544 0.064 0.064 0.096 0.192 0.192 0.256 0.064 0.096 0.16 0.128 0.256 0.192l256.224 259.008C739.648 470.144 739.52 490.4 726.976 502.816z"  horiz-adv-x="1024" />

    
    <glyph glyph-name="friend-add" unicode="&#59082;" d="M800 508.8c0 160-128 288-288 288s-288-128-288-288c0-105.6 57.6-201.6 147.2-249.6-121.6-48-214.4-153.6-240-288-3.2-16 6.4-35.2 25.6-38.4h6.4c16 0 28.8 9.6 32 25.6 28.8 150.4 160 259.2 313.6 262.4h6.4c156.8 0 284.8 131.2 284.8 288z m-512 0c0 124.8 99.2 224 224 224s224-99.2 224-224c0-121.6-99.2-220.8-220.8-224H505.6c-121.6 6.4-217.6 105.6-217.6 224zM864 96h-64v64c0 19.2-12.8 32-32 32s-32-12.8-32-32v-64h-64c-19.2 0-32-12.8-32-32s12.8-32 32-32h64v-64c0-19.2 12.8-32 32-32s32 12.8 32 32v64h64c19.2 0 32 12.8 32 32s-12.8 32-32 32z"  horiz-adv-x="1024" />

    
    <glyph glyph-name="round" unicode="&#59095;" d="M512-64C264.96-64 64 136.96 64 384S264.96 832 512 832s448-200.96 448-448S759.04-64 512-64zM512 768C300.256 768 128 595.744 128 384c0-211.744 172.256-384 384-384 211.744 0 384 172.256 384 384C896 595.744 723.744 768 512 768z"  horiz-adv-x="1024" />

    
    <glyph glyph-name="404" unicode="&#59079;" d="M304.173 347.571v-163.876c0-4.9 0.666-8.26 2.013-10.054 1.349-1.823 3.831-2.731 7.474-2.731h9.956c7.43 0.135 11.281-4.353 11.614-13.508v-48.154c0-8.374-4.263-13.104-12.8-14.237-5.551-0.611-9.005-1.653-10.422-3.071-1.433-1.404-2.149-4.836-2.149-10.19v-27.965c0.631-9.977-3.936-15.196-13.763-15.686h-81.077c-5.687 0-9.417 0.992-11.153 2.978-1.745 1.971-2.61 6.218-2.61 12.708v24.405c0 6.637-1.27 11.246-3.8 13.885-2.517 2.582-6.942 3.886-13.267 3.886h-92.472c-11.09 0-18.861 2.347-23.364 6.998-4.51 4.667-6.75 12.694-6.75 24.08 0 15.176 1.801 27.031 5.446 35.548 4.439 10.6 17.16 28.476 38.17 53.605l60.23 72.313c30.2 36.22 52.48 59.294 66.873 69.242 6.488 4.439 14.345 8.056 23.585 10.913 9.261 2.851 17.904 4.261 25.987 4.261 7.899 0 13.594-1.978 17.067-5.92 3.484-3.952 5.213-10.44 5.213-19.432zM204.576 224.49699999999996v11.629c0 14.211-3.95 21.337-11.87 21.337-5.978 0-11.607-3.242-16.813-9.736l-36.524-44.808c-10.593-13.124-15.883-22.527-15.883-28.234 0-4.1 2.213-6.752 6.651-7.929 4.419-1.19 15.415-2.028 32.945-2.489l18.734-0.248c8.062 0 13.508 0.914 16.351 2.737 2.858 1.836 4.531 5.411 4.999 10.772 0.941 8.707 1.41 24.371 1.41 46.969zM929.954 347.571v-163.876c0-4.9 0.668-8.26 2.028-10.054 1.334-1.823 3.829-2.731 7.468-2.731h9.961c7.418 0.135 11.297-4.353 11.623-13.508v-48.154c0-8.374-4.283-13.104-12.82-14.237-5.531-0.611-9.006-1.653-10.446-3.071-1.389-1.404-2.105-4.836-2.105-10.19v-27.965c0.617-9.977-3.963-15.196-13.757-15.686h-81.105c-5.707 0-9.417 0.992-11.132 2.978-1.759 1.971-2.632 6.218-2.632 12.708v24.405c0 6.637-1.261 11.246-3.778 13.885-2.538 2.582-6.963 3.886-13.289 3.886h-92.471c-11.076 0-18.847 2.347-23.365 6.998-4.517 4.667-6.75 12.694-6.75 24.08 0 15.176 1.801 27.031 5.445 35.548 4.433 10.6 17.16 28.476 38.193 53.605l60.214 72.313c30.2 36.22 52.472 59.294 66.881 69.242 6.481 4.439 14.352 8.056 23.592 10.913 9.254 2.851 17.883 4.261 25.966 4.261 7.899 0 13.594-1.978 17.061-5.92 3.475-3.952 5.219-10.44 5.219-19.432zM830.378 224.49699999999996v11.629c0 14.211-3.965 21.337-11.879 21.337-6.013 0-11.607-3.242-16.818-9.736l-36.512-44.808c-10.6-13.124-15.903-22.527-15.903-28.234 0-4.1 2.211-6.752 6.65-7.929 4.424-1.19 15.401-2.028 32.958-2.489l18.721-0.248c8.083 0 13.507 0.914 16.379 2.737 2.829 1.836 4.504 5.411 4.978 10.772 0.944 8.707 1.426 24.371 1.426 46.969zM657.708 278.523c-16.032 33.595-40.233 58.832-72.66 75.8-23.953 12.65-48.82 18.946-74.66 18.946-42.232 0-77.339-13.288-105.461-39.913-31.838-29.952-47.764-71.193-47.764-123.8 0-53.932 17.422-96.967 52.301-129.238 29.413-27.271 65.03-40.928 106.88-40.928 37.91 0 71.605 12.211 101.215 36.696 38.639 32.255 57.968 73.624 57.968 124.182 0.001 27.648-5.969 53.727-17.819 78.256zM601.244 108.30600000000004c-24.846-18.344-53.109-27.576-84.899-27.576-35.099 0-64.973 10.303-89.656 30.86-29.241 24.15-43.849 56.627-43.849 97.166 0 39.602 13.345 70.624 40.049 93.174 23.57 19.995 53.061 29.98 88.444 29.98 21.676 0 42.537-4.752 62.627-14.275 27.227-12.721 47.522-31.767 60.945-56.989 9.977-18.401 14.947-38.085 14.947-58.882 0-38.021-16.181-69.093-48.608-93.458zM442.786 252.11599999999999l7.678-2.865c0.668-0.212 1.121-0.34 1.362-0.34 0.531 0 0.815 0.567 0.95 1.666l0.042 0.348-0.34 8.225v0.639c0 2.454 0.354 3.985 1.091 4.616 0.731 0.588 2.526 0.908 5.383 0.908 2.454 0 4.097-0.207 4.913-0.547 0.796-0.39 1.298-1.142 1.461-2.376 0.141-1.056 0.212-2.127 0.163-3.24l-0.291-8.225c0-1.333 0.34-2.014 1.008-2.014 0.227 0 0.659 0.128 1.305 0.34l7.664 2.865c1.731 0.624 3.064 0.943 3.943 0.943 0.815 0 1.459-0.213 1.949-0.751 0.475-0.518 0.972-1.497 1.525-2.966 0.979-2.595 1.468-4.586 1.567-6.013 0.065-1.446-1.567-2.665-4.949-3.595l-7.906-2.241c-1.084-0.326-1.666-0.767-1.666-1.333 0-0.249 0.262-0.717 0.794-1.383l5.106-6.425c1.496-1.971 2.276-3.417 2.276-4.402 0-1.122-1.333-2.575-3.928-4.497-2.312-1.589-3.908-2.389-4.772-2.389-1.12 0-2.504 1.177-4.142 3.644l-4.538 6.829c-0.553 0.78-1.056 1.192-1.481 1.192-0.39 0-0.864-0.412-1.433-1.192l-4.517-6.829c-1.631-2.467-2.991-3.644-4.169-3.644-0.872 0-2.455 0.8-4.745 2.389-2.601 1.859-3.941 3.34-3.941 4.497 0 0.95 0.801 2.403 2.347 4.402l5.041 6.425c0.518 0.666 0.78 1.134 0.78 1.411 0 0.538-0.582 0.979-1.674 1.305l-7.841 2.241c-3.285 0.93-4.929 2.1-4.929 3.482 0 1.517 0.589 3.758 1.794 6.849 0.78 1.986 1.865 2.958 3.247 2.958 0.916 0 2.221-0.305 3.874-0.907zM557.458 252.11599999999999l7.664-2.865c0.675-0.212 1.129-0.34 1.356-0.34 0.538 0 0.844 0.567 0.978 1.666l0.029 0.348-0.355 8.225v0.639c0 2.454 0.383 3.985 1.098 4.616 0.76 0.588 2.546 0.908 5.404 0.908 2.447 0 4.077-0.207 4.892-0.547 0.802-0.39 1.298-1.142 1.448-2.376 0.163-1.056 0.227-2.127 0.205-3.24l-0.319-8.225c0-1.333 0.341-2.014 1.007-2.014 0.247 0 0.672 0.128 1.325 0.34l7.658 2.865c1.744 0.624 3.071 0.943 3.928 0.943 0.829 0 1.482-0.213 1.958-0.751 0.467-0.518 0.985-1.497 1.545-2.966 0.937-2.595 1.446-4.586 1.525-6.013 0.091-1.446-1.539-2.665-4.915-3.595l-7.907-2.241c-1.098-0.326-1.686-0.767-1.686-1.333 0-0.249 0.262-0.717 0.793-1.383l5.114-6.425c1.488-1.971 2.262-3.417 2.262-4.402 0-1.122-1.305-2.575-3.944-4.497-2.276-1.589-3.864-2.389-4.743-2.389-1.1 0-2.504 1.177-4.169 3.644l-4.518 6.829c-0.545 0.78-1.042 1.192-1.46 1.192-0.411 0-0.886-0.412-1.432-1.192l-4.517-6.829c-1.631-2.467-3.013-3.644-4.163-3.644-0.886 0-2.474 0.8-4.751 2.389-2.616 1.859-3.934 3.34-3.934 4.497 0 0.95 0.78 2.403 2.326 4.402l5.041 6.425c0.503 0.666 0.794 1.134 0.794 1.411 0 0.538-0.588 0.979-1.686 1.305l-7.836 2.241c-3.291 0.93-4.929 2.1-4.929 3.482 0 1.517 0.597 3.758 1.766 6.849 0.815 1.986 1.893 2.958 3.268 2.958 0.912 0 2.23-0.305 3.883-0.907zM560.854 129.23900000000003c0-13.798-11.224-25.009-25.088-25.009h-38.8c-13.884 0-25.115 11.211-25.115 25.009v0c0 13.947 11.231 25.173 25.115 25.173h38.8c13.865 0 25.088-11.226 25.088-25.173v0zM582.894 362.23l17.471 25.718c24.619 36.241 25.988 56.55 22.806 67.2-2.596 8.672-8.779 12.14-10.318 12.884-102.079 28.151-103.001 100.719-102.994 103.796-2.766 43.757 19.309 85.877 62.173 117.878 40.021 29.887 94.102 48.345 152.29 51.99 6.736 0.419 13.508 0.638 20.116 0.638 111.639 0 190.276-57.989 195.685-144.299 5.326-84.913-72.928-142.817-204.257-151.17-5.163-0.716-11.24-2.361-13.68-3.652l-0.127-0.326-1.403-1.532c-46.17-50.359-105.548-69.157-108.059-69.929l-29.705-9.196zM744.437 720.5509999999999c-6.154 0-12.465-0.206-18.756-0.596-53.224-3.332-104.475-20.719-140.618-47.7-36.772-27.455-55.755-62.895-53.443-99.782 0.049-3.063 1.673-60.202 87.713-83.63l0.908-0.29c1.758-0.652 17.309-6.893 23.528-26.293 5.054-15.784 2.191-35.078-8.509-57.599 19.606 9.906 45.891 26.179 68.412 50.408 5.233 8.538 18.791 12.027 29.724 13.445 93.315 5.885 190.355 42.587 184.986 128.16-4.646 74.092-74.547 123.876-173.946 123.876zM683.776 588.9159999999999l3.516-19.224c2.127-11.629 2.779-20.017 1.929-25.137-1.879-10.934-8.714-19.797-20.557-26.682-7.146-4.219-15.565-7.261-25.238-8.998-16.876-3.091-31.12-1.546-42.728 4.615-5.666 3.042-9.914 6.978-12.749 11.878-2.872 4.814-5.191 12.196-7 22.016-0.715 3.815-1.722 10.183-3.055 18.997-0.979 6.225-1.66 10.338-2.022 12.337-0.815 4.376-1.673 7.297-2.63 8.892-0.958 1.532-2.666 2.864-5.169 3.957-3.886 1.611-6.083 3.794-6.588 6.602-0.383 2.036 0.178 4 1.673 5.921 1.433 1.887 3.575 3.397 6.361 4.524 5.573 2.17 12.31 4.027 20.181 5.46 8.686 1.595 16.004 2.241 21.974 2.013 5.865-0.276 9.183-2.582 9.998-7.055 0.384-2.248-0.07-4.148-1.461-5.744-0.298-0.403-1.766-1.496-4.303-3.319-1.539-1.056-2.433-2.582-2.696-4.645-0.247-2.049 0.036-5.29 0.86-9.771 0.864-4.588 2.46-14.544 4.799-29.782 1.384-9.104 5.078-15.543 11.127-19.33 4.906-3.091 10.671-4.055 17.302-2.85 4.197 0.766 7.871 2.261 10.99 4.403 3.148 2.199 5.354 4.815 6.659 7.793 1.056 2.311 1.61 4.779 1.638 7.418 0.084 2.566-0.278 6.062-1.071 10.437l-3.183 17.337c-2.71 13.281-4.497 20.996-5.425 23.158-0.93 2.227-2.943 3.723-6.063 4.504-2.963 0.694-5.048 1.495-6.212 2.29-1.169 0.815-1.914 1.971-2.176 3.418-0.588 3.156 0.871 5.821 4.382 7.956 3.488 2.127 9.402 3.949 17.698 5.481 8.134 1.46 14.16 1.844 18.082 1.099 3.908-0.766 6.148-2.694 6.736-5.801 0.262-1.517 0.163-2.687-0.34-3.531-0.475-0.879-1.957-2.262-4.324-4.311-2.526-2.092-3.794-4.028-3.838-5.964-0.085-1.855 0.894-8.663 2.922-20.363zM720.548 602.46c2.226 0.227 3.495-1.22 3.837-4.368 0-0.036 0.035-0.362 0.091-1 0.037-0.609 0.072-1.12 0.101-1.538 0.225-2.085 0.976-3.077 2.211-2.943 0.652 0.078 1.595 1.028 2.83 2.843 1.857 2.617 4.283 4.842 7.318 6.587 3.055 1.773 6.247 2.809 9.593 3.184 6.509 0.681 11.253-1.212 14.317-5.673 1.141-1.66 2.049-2.461 2.658-2.369 0.432 0.022 1.34 0.907 2.786 2.631 4.539 5.489 9.999 8.58 16.444 9.254 5.008 0.539 9.269-0.426 12.743-2.838 3.666-2.53 5.793-6.658 6.41-12.423 0.134-1.234 0.326-3.354 0.553-6.311 0.035-1.021 0.298-4.062 0.851-9.204 0.341-3.261 0.566-5.523 0.659-6.864 0.065-0.837 0.099-1.425 0.156-1.801 0.249-2.439 1.255-4.552 3.02-6.261 1.036-1.007 1.702-1.688 1.951-2.063 0.262-0.341 0.419-0.851 0.489-1.46 0.518-4.985-5.063-8.099-16.783-9.332-5.169-0.56-9.403-0.362-12.721 0.531-3.297 0.929-5.057 2.354-5.27 4.382-0.077 0.795-0.042 1.383 0.128 1.823 0.171 0.446 0.802 1.631 1.893 3.502 1.043 1.709 1.072 7.112 0.135 16.138-0.58 5.234-1.34 8.857-2.275 10.829-1.142 2.354-2.978 3.424-5.539 3.134-1.283-0.135-2.369-0.646-3.283-1.575-0.908-0.88-1.461-1.957-1.659-3.191-0.193-1.44 0.015-5.191 0.617-11.267 0.815-6.537 1.446-10.48 1.887-11.863 0.445-1.361 1.631-3.191 3.58-5.503 0.44-0.546 0.716-1.254 0.815-2.163 0.483-4.645-5.332-7.587-17.43-8.87-7.274-0.745-12.231-0.745-14.87 0.036-2.119 0.666-3.296 2.063-3.545 4.261-0.099 0.972-0.035 1.638 0.157 2.091 0.227 0.398 0.999 1.405 2.332 2.95 0.78 0.914 1.248 1.751 1.418 2.475 0.191 0.759 0.227 2.091 0.128 4-0.184 4.304-0.49 8.615-0.964 12.99-0.794 7.643-3.17 11.238-7.034 10.813-2.936-0.291-4.496-2.091-4.688-5.41-0.148-3.142 0.099-7.581 0.681-13.288 0.483-4.268 0.844-7.077 1.17-8.381 0.327-1.312 0.944-2.616 1.872-3.984 1.12-1.575 1.744-2.921 1.836-3.929 0.262-2.559-1.311-4.488-4.743-5.843-3.765-1.46-7.942-2.403-12.551-2.893-6.014-0.652-10.466-0.652-13.365 0-2.901 0.652-4.461 2.021-4.688 4.085-0.071 0.766 0.022 1.425 0.348 2.07 0.297 0.567 1.078 1.503 2.268 2.808 1.574 1.765 2.354 4.099 2.319 6.943-0.065 4.85-0.383 9.856-0.937 15.039-0.397 3.695-0.864 6.255-1.382 7.694-0.509 1.403-1.439 2.51-2.751 3.269-1.234 0.779-2.085 1.367-2.46 1.8-0.368 0.446-0.595 1.078-0.703 1.893-0.269 2.58 1.567 4.857 5.475 6.814 9.479 4.591 16.647 7.185 21.561 7.739zM840.496 603.864c4.388 0.488 8.36-0.652 11.912-3.32 3.603-2.765 5.651-6.566 6.169-11.451 0.489-4.552-0.745-8.58-3.679-12.069-2.887-3.397-6.531-5.311-10.928-5.765-4.374-0.454-8.339 0.609-11.87 3.332-3.609 2.809-5.659 6.53-6.183 11.232-0.496 4.801 0.723 8.899 3.659 12.266 2.921 3.348 6.561 5.298 10.921 5.774zM882.956 608.396c4.367 0.453 8.345-0.667 11.882-3.34 3.617-2.751 5.659-6.559 6.177-11.437 0.489-4.553-0.745-8.609-3.666-12.082-2.914-3.405-6.538-5.326-10.933-5.779-4.362-0.454-8.348 0.659-11.87 3.354-3.611 2.793-5.674 6.559-6.185 11.225-0.496 4.814 0.716 8.892 3.674 12.274 2.9 3.354 6.546 5.268 10.921 5.787z"  horiz-adv-x="1024" />

    
    <glyph glyph-name="unkown" unicode="&#58950;" d="M450.267 123.755l0-92.511 92.511 0 0 92.511L450.267 123.755zM689.448 443.72c13.538 24.367 20.311 50.991 20.311 79.875 0 49.938-19.261 92.516-57.765 127.713-38.517 35.197-90.114 52.8-154.797 52.8-61.077 0-110.191-16.4-147.342-49.188-37.16-32.798-59.497-80.032-67.014-141.703l83.486-9.927c7.218 46.025 22.41 79.875 45.576 101.533 23.166 21.665 52.047 32.494 86.647 32.494 35.802 0 66.038-11.957 90.711-35.874 24.667-23.92 37.01-51.675 37.01-83.266 0-17.451-4.222-33.55-12.642-48.284-8.425-14.747-26.698-34.526-54.83-59.346s-47.607-43.701-58.442-56.637c-14.741-17.754-25.424-35.354-32.037-52.797-9.028-23.172-13.537-50.701-13.537-82.584 0-5.418 0.146-13.539 0.45-24.374l78.069 0c0.599 32.495 2.855 55.966 6.772 70.4 3.903 14.44 9.926 27.229 18.047 38.363 8.127 11.123 25.425 28.43 51.901 51.895C649.43 389.712 675.908 419.344 689.448 443.72L689.448 443.72z"  horiz-adv-x="1024" />

    
    <glyph glyph-name="chacha" unicode="&#58898;" d="M899.811372-83.948781l-784.454556 799.576841 8.884293 8.716265 784.454556-799.576841-8.884293-8.716265ZM107.829562-67.589716l799.576841 784.454556 8.716265-8.884293-799.576841-784.454556-8.716265 8.884293Z"  horiz-adv-x="1024" />

    
    <glyph glyph-name="male" unicode="&#59111;" d="M806.44096 717.07648L649.0112 717.07648c-15.37024 0-27.83232-12.46208-27.83232-27.83232s12.46208-27.83232 27.83232-27.83232l73.07264 0-175.616-175.616c-35.60448 21.79072-77.42464 34.37568-122.13248 34.37568-129.37216 0-234.61888-105.24672-234.61888-234.61888 0-129.37216 105.24672-234.61888 234.61888-234.61888 129.37216 0 234.61888 105.24672 234.61888 234.61888 0 55.95136-19.712 107.35616-52.51072 147.72224l172.16512 172.16512 0-83.29216c0-15.37024 12.46208-27.83232 27.83232-27.83232s27.83232 12.46208 27.83232 27.83232L834.27328 689.24416C834.27328 704.6143999999999 821.8112 717.07648 806.44096 717.07648zM424.33536 130.45759999999996c-85.51424 0-155.09504 69.57056-155.09504 155.09504 0 85.51424 69.57056 155.0848 155.09504 155.0848 85.51424 0 155.0848-69.57056 155.0848-155.0848C579.42016 200.02815999999996 509.8496 130.45759999999996 424.33536 130.45759999999996z"  horiz-adv-x="1024" />

    
    <glyph glyph-name="female" unicode="&#59112;" d="M667.78112 209.02912000000003L558.42816 209.02912000000003 558.42816 318.38208c0 1.15712-0.23552 2.24256-0.34816 3.3792 110.65344 18.81088 195.19488 115.31264 195.19488 231.23968 0 129.37216-105.24672 234.61888-234.61888 234.61888-129.37216 0-234.61888-105.24672-234.61888-234.61888 0-115.92704 84.54144-212.4288 195.19488-231.23968-0.1024-1.13664-0.34816-2.22208-0.34816-3.3792l0-109.35296L369.54112 209.02912000000003c-21.9648 0-39.76192-17.80736-39.76192-39.76192s17.79712-39.76192 39.76192-39.76192l109.35296 0 0-109.3632c0-21.9648 17.80736-39.76192 39.76192-39.76192 21.9648 0 39.77216 17.80736 39.77216 39.76192l0 109.3632 109.35296 0c21.9648 0 39.76192 17.80736 39.76192 39.76192S689.74592 209.02912000000003 667.78112 209.02912000000003zM363.5712 553.0009600000001c0 85.51424 69.57056 155.09504 155.0848 155.09504 85.51424 0 155.09504-69.57056 155.09504-155.09504S604.17024 397.91616 518.656 397.91616C433.152 397.91616 363.5712 467.48672 363.5712 553.0009600000001z"  horiz-adv-x="1024" />

    
    <glyph glyph-name="jiaobiao" unicode="&#59159;" d="M1023.829108 421.344536L474.574622-127.93757800000003l549.255509 0L1023.830131 421.344536zM783.15977-83.73177399999997l-96.895841 96.93268 36.335556 36.349883 60.560284-60.582797 169.567977 169.632445 36.335556-36.349883L783.15977-83.73177399999997z"  horiz-adv-x="1040" />

    
    <glyph glyph-name="caidan" unicode="&#58952;" d="M382.083092 792.53351c-63.464427 1.533936-127.026068 1.561565-190.487426-0.055259-53.880141-1.372254-85.946464-33.283034-87.525426-87.481424-1.797949-61.73504-1.627057-123.591853-0.105401-185.339172 1.404999-57.042157 33.665751-88.862887 89.9875-91.055832 30.846542-1.199315 61.778019-0.213871 92.672656-0.213871 0-0.028653 0-0.056282 0-0.083911 29.176506 0 58.354036-0.00614 87.531566 0.00921 3.431146 0.001023 6.875594-0.041956 10.292414 0.216941 48.928363 3.715625 81.464383 31.601742 83.803661 80.676437 3.181459 66.76766 3.149736 133.886313 0.339738 200.679555C466.399429 762.067638 434.319803 791.271774 382.083092 792.53351zM382.809639 569.398524c-1.852184-39.628556-13.759375-53.398164-51.557236-55.394634-30.725792-1.62194-61.703317-1.765203-92.399433 0.149403-32.220842 2.009773-46.292326 15.942087-48.330752 48.552809-2.0241 32.391734-2.106987 65.126276 0.084934 97.497545 2.218528 32.758078 16.121166 45.288462 49.213865 46.934962 29.033243 1.445932 58.216913 1.12973 87.290065 0.204661 42.455951-1.352811 53.884234-13.18837 55.727209-55.779398 0.591471-13.670348 0.092098-27.387767 0.092098-41.083697C382.910946 596.785268 383.448182 583.064778 382.809639 569.398524zM468.882993 238.568746c-4.913916 60.099796-41.872666 98.956779-102.147448 102.763478-52.990888 3.346211-106.532315 3.412726-159.51604 0.01228-61.944817-3.976568-100.907201-45.841048-103.177917-107.370403-1.833765-49.715285-1.805112-99.604532 0-149.322887 2.232854-61.528332 42.130539-104.631012 102.679567-108.128673 53.03489-3.062755 106.506732-2.89391 159.566182-0.060375 58.997696 3.15076 97.389074 42.913369 102.529141 102.56598 2.201132 25.550932 0.367367 51.450812 0.367367 77.191056 0.026606 0.001023 0.052189 0.001023 0.079818 0.001023C469.264687 183.680649 471.113801 211.291496 468.882993 238.568746zM382.675586 113.191224c-2.190899-34.758642-12.473079-47.623647-45.6282-49.79715-34.019815-2.229784-68.343551-1.291412-102.46672 0.023536-25.611308 0.98749-42.219567 15.757892-43.433208 41.638329-1.677199 35.783994-2.509147 71.849398 0.088004 107.518782 2.159176 29.66667 15.978926 40.48711 47.819099 41.923832 30.705326 1.38658 61.556984 1.324158 92.27459 0.118704 37.119409-1.456165 48.879244-13.204743 51.307549-49.15349 1.033539-15.312754 0.172939-30.752398 0.172939-46.134737C382.837268 143.946692 383.641587 128.512165 382.675586 113.191224zM638.57479 429.183062c66.850547-2.182712 133.883243-2.231831 200.728674 0.028653 48.106648 1.626034 78.501912 34.31555 80.94966 82.898035 1.64036 32.522718 0.314155 65.192791 0.314155 97.798397 0.059352 0 0.11768 0 0.179079 0 0 29.172413 0.00307 58.344826-0.005117 87.518263-0.001023 3.432169 0.093121 6.873548-0.12075 10.29446-3.236718 51.777247-32.659841 83.20298-84.458577 84.650959-65.155952 1.823532-130.440841 1.778506-195.600887-0.026606-49.254797-1.363044-81.71714-31.976272-83.380012-80.049151-2.311649-66.843384-2.186805-133.86994-0.181125-200.731744C558.447868 463.263252 590.484515 430.752814 638.57479 429.183062zM741.201146 707.595003c93.184309-0.01535 94.452185-1.293459 94.463442-95.220688 0.013303-96.830349-1.986237-98.871845-96.788393-98.867752-94.392834 0.00307-95.619778 3.049452-97.831142 98.688673C638.645398 715.998393 661.610436 709.319274 741.201146 707.595003zM920.572396 247.733477c-1.480724 60.789505-30.968315 91.400686-92.039229 94.661963-29.169343 1.557472-58.490136 0.268106-87.74339 0.268106 0-0.026606 0-0.054235 0-0.081864-30.973432 0-61.944817 0.023536-92.918249-0.033769-3.430122-0.005117-6.882757-0.301875-10.286274-0.754177-49.282427-6.53381-79.299067-35.871999-80.674391-84.646865-1.842974-65.332984-1.825578-130.800022 0.019443-196.134029 1.363044-48.254004 32.605605-80.758302 80.595596-84.460624 35.921117-2.77009 72.291466-2.163269 108.320031-0.312108 28.821419 1.480724 47.916313 22.113647 46.582945 45.146223-1.246387 21.555945-18.568914 37.535895-46.165436 40.08188-18.794042 1.732457-37.942147-0.300852-56.714699 1.548262-33.032324 3.25309-45.76737 15.984043-47.504944 49.426713-1.604544 30.888498-1.589195 61.992913 0.01228 92.883457 1.760087 33.962509 14.537088 47.378054 47.042409 49.022507 32.609699 1.64957 65.424058 1.603521 98.042967 0.060375 33.308617-1.575892 45.543266-14.44499 48.069809-47.957245 1.420349-18.831904-0.680499-37.95238 1.060145-56.734142 2.576685-27.819602 18.188244-42.528606 42.153052-42.564421 24.260543-0.036839 40.095183 14.295588 41.678238 42.527582C921.931347 182.275649 921.368528 215.061356 920.572396 247.733477z"  horiz-adv-x="1024" />

    
    <glyph glyph-name="weixin" unicode="&#58956;" d="M512.73678-72.402751c-246.990301 0-447.905216 200.953801-447.905216 447.911356 0 246.943228 200.914916 447.898053 447.905216 447.898053 246.947322 0 447.904193-200.953801 447.904193-447.898053C960.640973 128.550027 759.684102-72.402751 512.73678-72.402751zM512.73678 806.167019c-237.487879 0-430.665577-193.171558-430.665577-430.658414s193.177698-430.658414 430.665577-430.658414c237.4449 0 430.664553 193.171558 430.664553 430.658414S750.180658 806.167019 512.73678 806.167019zM615.259782 441.373709c7.009647 0 13.96199-0.534166 20.772093-1.310855-18.720364 87.122243-111.826901 151.754263-217.995943 151.754263-118.79357 0-216.116129-80.980359-216.116129-183.831842 0-59.268872 32.413224-108.029412 86.48063-145.877415l-21.598924-64.989153 75.53944 37.912471c26.998911-5.342682 48.654117-10.849092 75.696006-10.849092 6.752798 0 13.477966 0.314155 20.117177 0.854461-4.188392 14.46034-6.639211 29.570479-6.639211 45.25674C431.512874 364.731144 512.564865 441.373709 615.259782 441.373709zM499.101225 499.943662c16.213263 0 27.027563-10.671037 27.027563-26.948769 0-16.2061-10.813277-27.055193-27.027563-27.055193-16.22759 0-32.483832 10.849092-32.483832 27.055193C466.618417 489.272625 482.873636 499.943662 499.101225 499.943662zM347.824847 445.939701c-16.213263 0-32.598442 10.849092-32.598442 27.055193 0 16.276708 16.384156 26.948769 32.598442 26.948769 16.184611 0 26.912953-10.671037 26.912953-26.948769C374.7378 456.788793 364.009458 445.939701 347.824847 445.939701zM812.484655 272.899646c0 86.424348-86.424348 156.841118-183.504384 156.841118-102.850459 0-183.874821-70.416769-183.874821-156.841118 0-86.573751 81.023338-156.798139 183.874821-156.798139 21.512966 0 43.169195 5.385661 64.796772 10.813277l59.311851-32.483832-16.299221 54.011124C780.214694 180.984237 812.484655 224.181061 812.484655 272.899646zM569.33994 299.955862c-10.770298 0-21.626553 10.714016-21.626553 21.606087 0 10.79281 10.856255 21.609157 21.626553 21.609157 16.3422 0 27.04189-10.81737 27.04189-21.609157C596.381829 310.668855 585.68214 299.955862 569.33994 299.955862zM688.205141 299.955862c-10.685363 0-21.456684 10.714016-21.456684 21.606087 0 10.79281 10.770298 21.609157 21.456684 21.609157 16.22759 0 27.083845-10.81737 27.083845-21.609157C715.290009 310.668855 704.432731 299.955862 688.205141 299.955862z"  horiz-adv-x="1024" />

    
    <glyph glyph-name="camera1" unicode="&#59022;" d="M578.782609 513.113043c97.947826 0 178.086957-80.13913 178.086957-178.086957s-80.13913-178.086957-178.086957-178.086957-178.086957 80.13913-178.086957 178.086957S480.834783 513.113043 578.782609 513.113043M578.782609 50.086957c-160.278261 0-293.843478 124.66087-293.843478 284.93913s133.565217 284.93913 293.843478 284.93913 293.843478-124.66087 293.843478-284.93913S747.965217 50.086957 578.782609 50.086957L578.782609 50.086957zM409.6 896 302.747826 780.243478 115.756522 780.243478C53.426087 780.243478 0 726.817391 0 664.486957l0-676.730435c0-62.330435 53.426087-115.756522 115.756522-115.756522l934.956522 0c62.330435 0 115.756522 53.426087 115.756522 115.756522L1166.469565 664.486957c0 62.330435-53.426087 115.756522-115.756522 115.756522L863.721739 780.243478 756.869565 896 409.6 896z"  horiz-adv-x="1167" />

    
    <glyph glyph-name="4041" unicode="&#58885;" d="M956.973956 826.689425 67.147818 826.689425c-35.529191 0-64.420195-28.891004-64.420195-64.420195l0-612.263541c0-35.496445 28.922726-64.418148 64.420195-64.418148l48.402383 0c2.931772-9.046027 8.30106-17.997909 16.359596-26.363438 1.972934-2.038426 4.504594-3.51915 7.252171-4.257977 80.68974-20.898982 100.724029-46.889937 105.47524-60.502979 5.279237-15.09479-3.456728-27.224038-4.01136-27.964912-5.187139-6.698562-4.013407-16.299221 2.593058-21.547759 6.697539-5.339612 16.359596-4.226255 21.699208 2.503007 7.313569 9.259898 17.470907 31.515784 9.138124 56.456826-11.45182 34.138518-52.722782 60.994166-122.638131 79.762625-5.804193 6.910387-7.562233 12.592806-7.562233 17.223267 0 0.030699 0 0.062422 0 0.092098 0.029676 6.17156 3.919263 12.377912 10.926864 17.751293 0.215918 0.149403 0.462534 0.306992 0.648776 0.461511 2.004657 1.481747 4.257977 2.901073 6.729262 4.195555 0.585331 0.339738 1.171686 0.6191 1.75804 0.896416 2.963495 1.480724 6.356778 2.623757 9.721409 3.828188 5.373381 1.296529 15.066137 3.02387 30.466895 3.02387 27.010167 0 58.525951-5.309936 93.623307-15.649422 5.863545-2.561335 11.728112-5.217838 17.657148-8.365528 1.786693-0.957815 3.578502-1.977028 5.369288-3.02387 7.440459-4.168949 14.877849-8.736988 22.379707-13.890358 0.648776-0.464581 1.26583-0.772596 1.914606-1.234107 118.039393-82.880639 104.85614-124.706233 104.948237-124.706233l0 0c-3.980661-7.532557-1.109264-16.886599 6.42227-20.866237 2.282996-1.204431 4.752234-1.791809 7.191796-1.791809 5.555529 0 10.896164 2.994194 13.643742 8.242731 4.845355 9.166777 20.989033 55.405891-76.920904 135.755894L673.451624 85.616192c-97.942683-80.379679-81.827657-126.616746-76.982302-135.755894 2.838651-5.342682 8.426927-8.549723 14.169721-8.549723 2.311649 0 4.688789 0.554632 6.910387 1.728364 7.53358 3.982708 10.619872 12.901845 6.637164 20.433378-0.154519 0.402159-14.013155 42.22673 104.611569 125.509529 8.271384 5.803169 16.482393 10.804067 24.694425 15.371082 1.482771 0.831948 2.994194 1.696642 4.474918 2.499937 6.172583 3.270487 12.257162 6.048763 18.368346 8.703219 34.972513 10.278087 66.424852 15.588023 93.372597 15.588023 15.432481 0 25.096585-1.760087 30.40652-2.994194 3.393283-1.203408 6.884804-2.37714 9.815553-3.888564 0.586354-0.279363 1.109264-0.555655 1.667989-0.802272 2.591011-1.387603 5.031597-2.871397 7.096628-4.475941 0.096191-0.063445 0.189312-0.12382 0.278339-0.185218 7.070023-5.371334 10.957563-11.607362 10.989285-17.810644 0-0.092098 0.060375-0.154519 0.060375-0.246617-0.060375-4.569062-1.880837-10.217712-7.590885-17.068747-69.947072-18.768459-111.186312-45.624107-122.639155-79.762625-8.365528-24.941042 1.822508-47.196928 9.137101-56.456826 5.309936-6.729262 15.001669-7.81192 21.669532-2.503007 6.698562 5.28026 7.810896 14.969946 2.499937 21.669532-0.092098 0.124843-9.1678 12.223393-4.042059 27.473725 4.568039 13.70514 24.415063 39.850613 105.598037 60.901045 2.777253 0.710175 5.278213 2.191922 7.253194 4.261047 8.087189 8.395204 13.491269 17.408485 16.391319 26.514887 34.848693 0.774643 62.97017 29.231765 62.97017 64.267722L1021.270331 762.269229C1021.365498 797.798421 992.471424 826.689425 956.973956 826.689425L956.973956 826.689425zM166.606017 530.514935 303.966455 530.514935c5.8001-20.403702 15.71082-72.260767-7.532557-137.732921l-1.664919-4.568039c-11.266601-31.331589-25.281803-70.316485 5.862521-150.883429 19.045775-49.171909 7.314593-77.16752-0.678452-89.082898 0 0.031722-0.031722 0.031722-0.063445 0.031722-1.388627 0.553609-2.745531 1.047866-4.105504 1.572822-18.425651 6.945179-36.20662 11.326976-53.030797 13.612019-1.450025 0.187265-2.90005 0.402159-4.350075 0.586354-7.904017 0.895393-15.558347 1.388627-22.968108 1.420349-1.664919 0-3.270487-0.094144-4.938476-0.154519-6.142907-0.151449-12.098549-0.585331-17.777899-1.296529-1.515516-0.187265-3.059686-0.309038-4.541433-0.523933-1.203408-0.187265-2.314719-0.493234-3.486404-0.680499 5.370311 25.561166 9.014304 63.340607-7.80885 88.621387-18.026562 27.225061-22.225187 111.064538-0.310062 174.373423C185.990506 453.096704 174.630784 502.361735 166.606017 530.514935L166.606017 530.514935zM773.279237 237.330546c31.17707 80.627319 17.10047 119.614262 5.803169 150.97655l-1.603521 4.474918c-23.2444 65.500806-13.305027 117.328195-7.501858 137.732921l137.360438 0c-8.055466-28.1532-19.414165-77.417207-9.970072-104.703667 21.853727-63.37233 17.686824-147.240459-0.309038-174.342724-16.85283-25.310456-13.20986-63.060221-7.840572-88.652086-1.204431 0.246617-2.313695 0.523933-3.547803 0.680499-0.988514 0.154519-2.038426 0.214894-3.088338 0.369414-6.389524 0.864694-13.119809 1.327228-20.09671 1.481747-0.924045 0.028653-1.817392 0.092098-2.745531 0.092098-25.807782 0.124843-55.005778-5.001921-85.751013-17.192567C765.962597 160.09958 754.234485 188.129984 773.279237 237.330546L773.279237 237.330546zM990.496443 150.005688c0-18.056238-14.322194-32.780591-32.196283-33.492812-2.069125 5.929036-5.340635 11.670807-9.908674 17.010419-0.648776 0.709151-1.421372 1.38965-2.068102 2.070148-0.24457 0.275269-0.525979 0.493234-0.73985 0.738827-2.284019 2.347464-4.846378 4.569062-7.656377 6.699586-0.86367 0.678452-1.788739 1.355881-2.714831 2.004657-2.191922 1.545192-4.569062 2.995217-7.068999 4.383844-1.049912 0.618077-1.945305 1.328251-3.056616 1.911536-0.339738 0.187265-0.77055 0.280386-1.111311 0.465604-0.028653 0.027629-0.061398 0.027629-0.091074 0.062422-5.866614 19.755949-14.570857 62.352093-1.081635 82.539878 25.681916 38.736233 27.440979 132.883473 3.764744 201.535039-6.390547 18.491143 3.550873 63.957661 12.997012 94.610798l6.048763 0c8.521071 0 15.433504 6.913457 15.433504 15.432481 0 8.520047-6.912433 15.434527-15.433504 15.434527l-17.315364 0L758.894621 561.412642l-13.334703 0c-8.518001 0-15.434527-6.91448-15.434527-15.434527 0-5.989411 3.490497-11.018961 8.458649-13.580297-6.945179-27.504424-14.383592-81.801051 9.784854-149.892869l1.669012-4.66423c10.06217-27.872814 21.452591-59.480696-5.556553-129.302925-21.917172-56.579623-10.434653-93.466742 1.232061-113.222691-10.278087-5.435803-20.679995-11.667737-31.115672-18.768459l-0.028653-0.033769L359.559611 116.512876c-0.98749 0.680499-1.978051 1.14508-2.994194 1.823532-8.457626 5.680373-16.916275 10.774391-25.281803 15.310707-1.017166 0.554632-2.036379 1.234107-3.084245 1.790786 11.667737 19.786649 23.11751 56.641021 1.235131 113.130593-27.010167 69.697385-15.620769 101.278661-5.621021 129.179105l1.699712 4.724605c24.168446 68.095911 16.73208 122.360815 9.784854 149.863193 5.000897 2.563382 8.489348 7.592932 8.489348 13.58132 0 8.521071-6.915503 15.434527-15.434527 15.434527L315.048861 561.351244 145.644613 561.351244l-17.315364 0c-8.520047 0-15.434527-6.913457-15.434527-15.434527 0-8.520047 6.91448-15.434527 15.434527-15.434527l6.04774 0c9.416464-30.651091 19.384489-76.119655 12.997012-94.608751-23.303752-67.385736-21.512966-163.41279 3.76679-201.535039 13.365402-20.09671 4.723581-62.783928-1.111311-82.540901-0.370437-0.218988-0.86367-0.339738-1.234107-0.525979-1.235131-0.648776-2.221598-1.419326-3.364631-2.068102-2.314719-1.325182-4.536316-2.654456-6.606465-4.107551-1.019213-0.708128-2.006703-1.449002-2.994194-2.190899-2.685155-2.065032-5.15644-4.226255-7.375991-6.511297-0.309038-0.306992-0.648776-0.618077-0.958838-0.926092-0.645706-0.64673-1.418302-1.296529-2.00568-1.977028-1.883907-2.190899-3.365654-4.505617-4.846378-6.789637-0.028653-0.092098-0.092098-0.154519-0.154519-0.214894-2.036379-3.272533-3.764744-6.637164-4.967128-10.064216L67.118142 116.421802c-18.522865 0-33.555234 15.033391-33.555234 33.55421L33.562908 762.269229c0 18.489096 15.064091 33.553187 33.555234 33.553187l889.824091 0c18.489096 0 33.522488-15.064091 33.522488-33.553187l0-612.263541L990.496443 150.005688 990.496443 150.005688zM479.387743 602.405265c0 8.519024-6.913457 15.434527-15.434527 15.434527-52.320623 0-96.6789 32.347732-118.005624 47.905056-4.9088 3.580548-8.766664 6.359848-11.42112 7.933693-7.349385 4.352121-16.792455 1.945305-21.145599-5.40101-4.352121-7.314593-1.946328-16.791431 5.372358-21.144576 2.067079-1.26583 5.122671-3.487428 9.012258-6.358825 23.953551-17.469883 73.80596-53.832046 136.187729-53.832046C472.474286 586.970738 479.387743 593.886241 479.387743 602.405265L479.387743 602.405265zM700.554912 673.678542c-2.623757-1.573845-6.512321-4.353145-11.45182-7.933693-21.298072-15.525602-65.655326-47.876404-117.976972-47.876404-8.519024 0-15.431457-6.913457-15.431457-15.431457 0-8.519024 6.912433-15.435551 15.431457-15.435551 62.384839 0 112.235201 36.33351 136.189775 53.803393 3.888564 2.839675 6.945179 5.124717 9.04398 6.358825 7.315616 4.351098 9.722432 13.82896 5.371334 21.143553C717.347366 675.654546 707.871551 678.062386 700.554912 673.678542L700.554912 673.678542zM622.244358 254.246821l-103.869672 46.610574c-4.26207 1.912559-9.138124 1.789763-13.30605-0.306992l-91.862197-46.611597c-7.622608-3.859911-10.648524-13.149485-6.789637-20.774139 3.825119-7.596002 13.117762-10.55745 20.741393-6.79066l85.286432 43.274596 97.111758-43.584658c2.038426-0.925069 4.229325-1.358951 6.329149-1.358951 5.865591 0 11.512195 3.364631 14.0766 9.106402C633.509936 241.591593 630.021485 250.727671 622.244358 254.246821L622.244358 254.246821z"  horiz-adv-x="1024" />

    
    <glyph glyph-name="plus" unicode="&#58971;" d="M512 896C229.691077 896 0 666.328615 0 384s229.691077-512 512-512 512 229.671385 512 512S794.308923 896 512 896z m0-984.615385C251.411692-88.615385 39.384615 123.411692 39.384615 384S251.411692 856.615385 512 856.615385s472.615385-212.027077 472.615385-472.615385-212.027077-472.615385-472.615385-472.615385zM758.153846 403.692308H531.692308V620.307692a19.692308 19.692308 0 1 1-39.384616 0v-216.615384H265.846154a19.692308 19.692308 0 1 1 0-39.384616H492.307692v-236.307692a19.692308 19.692308 0 1 1 39.384616 0V364.307692h226.461538a19.692308 19.692308 0 1 1 0 39.384616z"  horiz-adv-x="1024" />

    
    <glyph glyph-name="fanhui" unicode="&#58892;" d="M462.266 728.534l-328.098-284.381 328.098-284.359v191.379s454.799 147.683 362.705-311.707c0 0 293.586 557.828-368.422 519.544l5.719 169.527z"  horiz-adv-x="1024" />

    
    <glyph glyph-name="tubiao_dianzan" unicode="&#58896;" d="M897.6 580.8H707.2c-6.4 0-11.2 3.2-12.8 6.4-1.6 1.6-4.8 6.4-4.8 14.4l9.6 76.8c9.6 72-30.4 140.8-96 163.2-40 14.4-81.6 11.2-118.4-9.6-36.8-19.2-62.4-54.4-72-94.4-1.6-8-8-22.4-12.8-30.4l-16-30.4c-20.8-38.4-70.4-94.4-104-126.4-8-6.4-14.4-14.4-19.2-24H144c-67.2 0-121.6-54.4-121.6-121.6v-364.8c0-67.2 54.4-121.6 121.6-121.6h145.6V457.6c0 20.8 8 41.6 24 54.4 38.4 35.2 91.2 94.4 115.2 139.2l16 30.4c4.8 8 14.4 27.2 17.6 41.6 6.4 27.2 24 49.6 48 62.4 24 12.8 52.8 16 78.4 6.4 43.2-14.4 68.8-60.8 62.4-110.4l-9.6-73.6c-3.2-19.2 3.2-38.4 16-52.8 12.8-14.4 30.4-22.4 49.6-22.4H896c40 0 72-32 73.6-70.4l-94.4-403.2v-3.2c-6.4-32-30.4-88-121.6-88H483.2c-12.8 0-24-11.2-24-24s11.2-24 24-24h270.4c136 0 164.8 97.6 169.6 128l94.4 404.8v4.8c0 68.8-54.4 123.2-120 123.2zM241.6-32H144c-40 0-73.6 32-73.6 73.6V404.8c0 40 32 73.6 73.6 73.6h97.6V-32z"  horiz-adv-x="1024" />

    
    <glyph glyph-name="thumb-up" unicode="&#59108;" d="M42.666667 0h170.666666V512H42.666667v-512z m938.666666 469.333333c0 46.933333-38.4 85.333333-85.333333 85.333334h-268.8l42.666667 196.266666v12.8c0 17.066667-8.533333 34.133333-17.066667 46.933334l-46.933333 42.666666-281.6-281.6c-17.066667-12.8-25.6-34.133333-25.6-59.733333v-426.666667c0-46.933333 38.4-85.333333 85.333333-85.333333h384c34.133333 0 64 21.333333 76.8 51.2l128 302.933333c4.266667 8.533333 4.266667 21.333333 4.266667 29.866667v85.333333h4.266666c0-4.266667 0 0 0 0z"  horiz-adv-x="1024" />

    
    <glyph glyph-name="lingdang" unicode="&#59584;" d="M512-64c49.6 0 88 38.4 88 88H424c0-49.6 38.4-88 88-88z m288.8 286.4V451.2c0 137.6-97.6 252.8-224.8 283.2v28.8c0 32-17.6 60.8-48 67.2-44 10.4-80-23.2-80-66.4v-30.4C320.8 704 223.2 588.8 223.2 451.2v-228.8L136 132.8v-44.8h752v44.8l-87.2 89.6z"  horiz-adv-x="1024" />

    
    <glyph glyph-name="xinxinicon" unicode="&#58914;" d="M1340.805 449.008h-41.875c-19.005 0-39.459 14.978-45.096 33.339l-23.997 58.303c-9.019 16.911-5.315 41.714 8.214 55.243l29.634 29.634c13.529 13.529 13.529 35.755 0 49.283l-49.283 49.283c-13.529 13.529-35.755 13.529-49.283 0l-29.634-29.634c-13.529-13.529-38.493-17.233-55.404-8.214l-58.303 23.997c-18.199 5.637-33.178 25.93-33.178 45.257v41.714c0 19.166-15.784 34.788-34.788 34.788h-69.738c-19.166 0-34.788-15.623-34.788-34.788v-41.714c0-19.327-14.978-39.62-33.339-45.257l-58.303-23.997c-16.911-9.019-41.714-5.315-55.243 8.214l-29.796 29.634c-13.529 13.529-35.594 13.529-49.122 0l-49.283-49.283c-13.529-13.529-13.529-35.755 0-49.283l29.634-29.634c13.529-13.529 17.233-38.332 8.214-55.243l-23.997-58.464c-5.798-18.199-26.091-33.178-45.257-33.178h-41.714c-19.166 0-34.949-15.623-34.949-34.788v-69.738c0-19.166 15.784-34.788 34.949-34.788h41.714c19.166 0 39.459-14.978 45.096-33.339l24.159-58.303c9.019-16.911 5.315-41.875-8.214-55.243l-29.634-29.634c-13.529-13.529-13.529-35.755 0-49.283l49.283-49.283c13.529-13.529 35.594-13.529 49.122 0l29.796 29.634c13.368 13.529 38.332 17.233 55.081 8.053l58.464-23.997c18.36-5.637 33.339-25.93 33.339-45.096v-41.714c0-19.166 15.623-34.788 34.788-34.788h69.738c19.005 0 34.788 15.623 34.788 34.788v41.714c0 19.166 14.978 39.459 33.178 45.096l58.464 23.997c16.75 9.18 41.714 5.476 55.243-8.053l29.634-29.634c13.529-13.529 35.755-13.529 49.283 0l49.283 49.283c13.529 13.529 13.529 35.755 0 49.283l-29.634 29.634c-13.529 13.368-17.233 38.332-8.214 55.243l23.997 58.303c5.637 18.36 26.091 33.339 45.096 33.339h41.875c19.166 0 34.788 15.623 34.788 34.788v69.738c0 19.166-15.623 34.788-34.788 34.788zM1097.126 379.431c0-96.151-77.952-174.103-174.103-174.103s-174.103 77.952-174.103 174.103 77.952 174.103 174.103 174.103 174.103-77.952 174.103-174.103z"  horiz-adv-x="1832" />

    
    <glyph glyph-name="barrage" unicode="&#59107;" d="M288 320h128a32 32 0 0 1 0 64H288a32 32 0 0 1 0-64M288 192h128a32 32 0 0 1 0 64H288a32 32 0 0 1 0-64M288 448h256a32 32 0 0 1 0 64H288a32 32 0 0 1 0-64M831.936 128L192 127.776V640.224L192.096 640 832 640.224 831.936 128z m0 576H192.096A64 64 0 0 1 128 640.224v-512.448A64 64 0 0 1 192.096 64h639.84A64 64 0 0 1 896 127.776V640.224A64 64 0 0 1 831.936 704z"  horiz-adv-x="1024" />

    
    <glyph glyph-name="brush" unicode="&#59109;" d="M766.88 460.736l-176.608 176.64 66.72 66.752 176.544-176.704-66.656-66.688zM401.44 95.04L224.64 271.808l0.256-0.064L545.024 592.096l176.64-176.64L401.376 95.04zM224 94.08v87.872l87.712-87.68-87.68-0.192z m655.04 478.528l-176.768 176.736A60.96 60.96 0 0 1 656.96 768a63.968 63.968 0 0 1-45.12-18.848L179.584 316.992a63.936 63.936 0 0 1-17.92-54.368c-0.768-2.688-1.696-5.312-1.696-8.256v-160.288c0-35.136 28.576-63.68 63.712-63.68h160.32c2.88 0 5.504 0.896 8.192 1.632 2.976-0.416 5.952-0.832 8.96-0.832 16.416 0 32.896 6.272 45.44 18.816l432.16 432.16a64 64 0 0 1 0.224 90.432z"  horiz-adv-x="1024" />

    
    <glyph glyph-name="businesscard" unicode="&#59110;" d="M736 544h-192a32 32 0 1 1 0-64h192a32 32 0 1 1 0 64M736 416h-128a32 32 0 1 1 0-64h128a32 32 0 1 1 0 64M736 288h-128a32 32 0 1 1 0-64h128a32 32 0 1 1 0 64M831.936 128L192 127.776 192.096 640 832 640.224l0.224-512.192-0.32-0.032m0 576H192.128A64.032 64.032 0 0 1 128 640.224v-512.448C128 92.64 156.768 64 192.096 64h639.84A64 64 0 0 1 896 127.776V640.224A64 64 0 0 1 831.936 704M480 273.856H288v20.736c20.64 8.32 63.84 23.04 96 23.04 31.744 0 74.656-14.496 96-23.072v-20.704zM355.36 454.4c0 14.368 11.232 25.6 25.504 25.6a25.6 25.6 0 0 0 25.504-25.6v-41.92a25.28 25.28 0 0 0-25.504-25.632 25.6 25.6 0 0 0-25.504 25.6V454.4z m157.088-104a483.2 483.2 0 0 1-53.664 18.88c7.168 12.864 11.584 27.456 11.584 43.2V454.4c0 49.408-40.16 89.6-89.504 89.6a89.664 89.664 0 0 1-89.504-89.6v-41.92c0-16.352 4.736-31.52 12.416-44.736-26.56-8-46.272-16.512-47.296-16.992A53.152 53.152 0 0 1 224 302.4v-55.904l1.696-4.992c6.464-18.976 24.032-31.68 43.712-31.68h229.184a45.44 45.44 0 0 1 45.28 42.016L544 302.4c0 20.576-13.28 40.416-31.552 47.968z"  horiz-adv-x="1024" />

    
    <glyph glyph-name="group" unicode="&#59135;" d="M864 51.232a2.464 2.464 0 0 0-1.504-0.704L288 51.904V169.92c0 5.824 6.016 14.944 12.096 17.44C301.664 188 456.992 256 576 256c118.752 0 274.336-68 276.864-69.088 5.216-2.08 11.136-11.168 11.136-17.024v-118.656zM480.48 455.2v104.736A112.064 112.064 0 0 0 592.256 672 112 112 0 0 0 704 559.936v-104.736a112 112 0 0 0-111.744-112.064 112 112 0 0 0-111.776 112.064z m397.248-209.28c-4.992 2.176-92.64 40.384-191.008 61.056A176 176 0 0 1 768 455.2v104.736C768 657.024 689.152 736 592.256 736c-96.928 0-175.776-78.976-175.776-176.064v-104.736c0-59.136 29.344-111.456 74.112-143.36-108.16-18.72-210.752-63.488-215.552-65.6C245.952 234.24 224 201.44 224 169.856v-126.4h0.544a65.536 65.536 0 0 1 64.96-56.96h572.992c28.672 0 54.304 18.752 63.808 46.72l1.696 4.96V169.92c0 31.808-22.016 64.672-50.272 76zM360.384 322.56c1.024 0 1.952-0.288 2.976-0.288a32 32 0 1 1 0 64A68.736 68.736 0 0 0 294.72 455.04v84.256C294.72 577.152 325.504 608 363.36 608a32 32 0 0 1 0 64 132.832 132.832 0 0 1-132.64-132.736v-84.256c0-32.736 12.352-62.368 32.064-85.536-62.72-19.296-117.536-49.696-127.584-55.456C112.352 303.2 96 277.312 96 251.552v-91.904a32 32 0 1 1 64 0v91.744a11.424 11.424 0 0 0 2.336 4.672 28.992 28.992 0 0 1 3.584 1.824c30.432 17.728 123.84 63.712 189.76 63.712 1.632 0 3.104 0.704 4.704 0.96"  horiz-adv-x="1024" />

    
    <glyph glyph-name="interactive" unicode="&#59140;" d="M704 175.456c-14.688 0-27.104-9.92-30.848-23.36h-232.448c-23.904 0-49.152-14.048-62.4-34.016l-34.4-32.64-0.064 12.576a32.48 32.48 0 0 1-3.68 14.752c-12.032 22.752-39.584 39.296-65.6 39.296H224V512h10.656a32 32 0 1 1 0 64h-21.312C183.936 576 160 551.136 160 520.576v-377.12c0-30.56 24-55.36 53.472-55.36h61.056a14.144 14.144 0 0 0 5.376-2.144l0.288-45.856a31.936 31.936 0 0 1 6.624-19.328c10.144-13.216 24.992-20.8 40.704-20.768h0.032c14.752 0 28.768 6.72 38.816 18.464l59.104 56.192c1.952 1.856 4.768 5.824 6.176 8.128a15.968 15.968 0 0 0 9.056 5.28h241.984a53.12 53.12 0 0 1 47.296 29.824 31.68 31.68 0 0 1 6.016 18.688v6.88a32 32 0 0 1-32 32M832 344.064h-50.56c-16.032 0-32.224-6.752-45.44-16.896-3.04-2.336-6.24-4.448-8.896-7.168a68.736 68.736 0 0 1-11.264-15.232 32.256 32.256 0 0 1-3.68-14.72l-0.064-12.64-34.4 32.672c-2.4 3.616-5.536 6.752-8.64 9.92-14.048 14.4-34.176 24.064-53.76 24.064H384V704h448v-359.936zM890.848 736c-8.544 18.848-26.848 32-48.192 32H373.344c-21.344 0-39.648-13.152-48.192-32a56.96 56.96 0 0 1-5.152-23.392v-377.152c0-5.408 0.992-10.528 2.368-15.456 6.496-23.008 26.752-39.936 50.944-39.936h241.952a15.968 15.968 0 0 0 9.024-5.184 31.392 31.392 0 0 1 6.24-8.224l59.104-56.192c10.048-11.776 24.064-18.464 38.816-18.464h0.032c15.712 0 30.56 7.552 40.704 20.768a31.936 31.936 0 0 1 6.624 19.328l0.288 45.888a13.568 13.568 0 0 0 5.344 2.08h61.088c24.256 0 44.576 16.928 51.072 39.936 1.408 4.928 2.4 10.048 2.4 15.456V712.608A56.96 56.96 0 0 1 890.848 736zM528 576a48 48 0 1 1 0.032-96.032 48 48 0 0 1-0.032 96M688 576a48 48 0 1 1 0.032-96.032 48 48 0 0 1-0.032 96"  horiz-adv-x="1024" />

    
    <glyph glyph-name="like" unicode="&#59144;" d="M797.184 377.504l-284.384-294.016-284.16 292A162.752 162.752 0 0 0 192 478.4C192 567.488 263.808 640 352 640a159.36 159.36 0 0 0 133.28-72.16L512 527.36l26.72 40.48A159.488 159.488 0 0 0 672 640c88.224 0 160-72.512 160-161.6 0-37.536-12.992-74.08-34.816-100.896M672 704a222.72 222.72 0 0 1-160-67.712A222.624 222.624 0 0 1 352 704c-123.52 0-224-101.216-224-225.6 0-52.288 18.176-103.232 52.96-145.536l285.952-293.984a62.4 62.4 0 0 1 45.088-19.168c17.12 0 33.12 6.816 45.12 19.136l287.744 296.064A226.816 226.816 0 0 1 896 478.4C896 602.784 795.52 704 672 704"  horiz-adv-x="1024" />

    
    <glyph glyph-name="manage" unicode="&#59147;" d="M224 472.16V664.256l192 0.096 0.096-192.096L224 472.16z m192.096 256.096H223.904A64 64 0 0 1 160 664.32v-192.192a64 64 0 0 1 63.904-63.904h192.192A64 64 0 0 1 480 472.16V664.32a64 64 0 0 1-63.904 63.904zM224 88.16v192.096l192 0.096 0.096-192.096L224 88.16z m192.096 256.096H223.904A64 64 0 0 1 160 280.32v-192.192a64 64 0 0 1 63.904-63.904h192.192A64 64 0 0 1 480 88.16V280.32a64 64 0 0 1-63.904 63.904zM704.064 432.384l-135.84 135.84 135.712 135.84 135.904-135.744-135.776-135.936z m181.024 181.024l-135.904 135.904a64 64 0 0 1-90.368 0L522.912 613.44a63.456 63.456 0 0 1-18.656-45.056 63.456 63.456 0 0 1 18.656-45.312l135.904-135.936a63.904 63.904 0 0 1 90.368 0.032l135.904 135.904a63.936 63.936 0 0 1 0 90.368zM608 88.16v192.096l192 0.096 0.096-192.096-192.096-0.096z m192.096 256.096h-192.192A64 64 0 0 1 544 280.32v-192.192a64 64 0 0 1 63.904-63.904h192.192A64 64 0 0 1 864 88.16V280.32a64 64 0 0 1-63.904 63.904z"  horiz-adv-x="1024" />

    
    <glyph glyph-name="mobilephone" unicode="&#59151;" d="M735.968 96L288 95.744V224h447.968v-128zM288 672.256L288.032 672 736 672.256 735.968 288H288V672.256zM735.968 736H288.032A63.968 63.968 0 0 1 224 672.256v-576.512C224 60.608 252.704 32 288.032 32h447.936A63.968 63.968 0 0 1 800 95.744V672.256A63.968 63.968 0 0 1 735.968 736zM480 128h64a32 32 0 0 1 0 64h-64a32 32 0 0 1 0-64"  horiz-adv-x="1024" />

    
    <glyph glyph-name="search" unicode="&#59201;" d="M144.97185185 442.83614814a310.68918518 310.68918518 0 1 0 621.37837037 0 310.68918518 310.68918518 0 0 0-621.37837037 0m766.74207289-439.93588622l-173.79176296 173.75292683A386.49734637 386.49734637 0 0 1 844.02251851 442.83614814c0 214.49204622-173.86943525 388.36148148-388.36148148 388.36148149S67.29955555 657.32819437 67.29955555 442.83614814s173.86943525-388.36148148 388.36148148-388.36148147a385.9536403 385.9536403 0 0 1 223.5020326 71.10898725l177.59770548-177.63654163c15.18493392-15.14609778 39.7682157-15.14609778 54.95314963 0 15.14609778 15.18493392 15.14609778 39.7682157 0 54.95314963"  horiz-adv-x="1024" />

    
    <glyph glyph-name="fenxiang" unicode="&#58916;" d="M813.5 223c-64.7-1.4-119.1-46.1-135.4-106.1L347.9 336.6c-1.3 0.9-2.7 1.6-4.2 2.2 4.4 13.2 6.9 27.2 7.2 41.7 0.4 16.7-2.1 32.9-7.1 47.9 1.2 0.5 2.5 1.2 3.6 1.9L678 651c16.8-62 74.3-107.5 141.9-106 76.5 1.7 138.7 63.9 140.4 140.4 1.8 81.8-65.1 148.7-146.8 146.8C739 830.6 678.2 771.7 673.3 698c-3.1-0.5-6.1-1.6-8.8-3.4L324 467.3c-26.7 37.1-70.6 61.1-120 60-76.5-1.7-138.7-63.9-140.4-140.4-1.8-81.8 65.1-148.6 146.8-146.8 46.6 1 87.8 24.5 113.4 59.9l340.7-226.6c2.7-1.8 5.7-2.9 8.8-3.4 5-75.9 69.1-135.8 146.6-134.1 76.5 1.7 138.7 63.9 140.4 140.4 1.8 81.6-65.1 148.5-146.8 146.7z m7.9 565.3c51.2-2.4 92.7-43.8 95.1-95.1 2.7-58.8-45.7-107.1-104.4-104.4-51.2 2.4-92.7 43.8-95.1 95.1-2.8 58.8 45.6 107.1 104.4 104.4zM202.6 283.9c-51.2 2.4-92.7 43.8-95.1 95.1-2.7 58.8 45.7 107.1 104.4 104.4 51.2-2.4 92.7-43.8 95.1-95.1 2.8-58.7-45.6-107.1-104.4-104.4zM812-20.3c-51.2 2.4-92.7 43.8-95.1 95.1-2.7 58.8 45.7 107.1 104.4 104.4 51.2-2.4 92.7-43.8 95.1-95.1 2.7-58.8-45.6-107.2-104.4-104.4z"  horiz-adv-x="1024" />

    
    <glyph glyph-name="home" unicode="&#58897;" d="M996.464054 216.008328c-7.849985 0-15.58797 3.242994-21.276959 9.556981l-427.746164 481.109061c-9.613981 10.808979-22.186957 16.724967-35.384931 16.724967-13.197974 0-25.82795-5.972988-35.384931-16.781967L49.777903 225.50831000000005c-10.40998-11.774977-28.444944-12.742975-40.163922-2.388996-11.775977 10.46798-12.799975 28.387945-2.389995 40.163922l426.837166 481.10906c20.53696 23.152955 48.241906 35.89593 77.937848 35.89593h0.057c29.695942 0 57.399888-12.742975 77.879848-35.83993l427.804164-481.10906c10.46798-11.717977 9.386982-29.694942-2.389995-40.162922a28.498944 28.498944 0 0 0-18.885963-7.167986zM853.331333 270.22322199999996v-284.443444c0-31.402939-25.48595-56.889889-56.888889-56.889889H682.665667V156.44644400000004c0 62.805877-51.0299 113.777778-113.777778 113.777778H455.109111c-62.747877 0-113.777778-50.9719-113.777778-113.777778V-71.10811100000001H227.555556c-31.345939 0-56.889889 25.48595-56.889889 56.888889V270.22322199999996h-56.887889v-284.443444c0-62.748877 51.0299-113.777778 113.777778-113.777778h170.666666V156.44544399999995c0 31.345939 25.54195 56.889889 56.887889 56.889889H568.888889c31.402939 0 56.888889-25.54395 56.888889-56.889889V-127.99800000000005h170.665666c62.748877 0 113.777778 51.0299 113.777778 113.777778V270.22322199999996h-56.888889z"  horiz-adv-x="1024" />

    
    <glyph glyph-name="wait" unicode="&#58974;" d="M512.504-91.5C250.585-91.5 37.5 121.577 37.5 383.49300000000005c0 126.809 49.359 246.049 138.979 335.76 4.815 4.827 11.23 7.49 18.057 7.49 6.815 0 13.222-2.651 18.038-7.471 9.948-9.94 9.96-26.135 0.022-36.083-80-80.08-124.056-186.512-124.056-299.696 0-233.767 190.189-423.959 423.963-423.959 233.771 0 423.948 190.192 423.948 423.959 0 225.36-174.444 409.904-398.429 423.205v-142.275c0-14.075-11.449-25.524-25.52-25.524-14.074 0-25.528 11.45-25.528 25.524V858.5h25.528c126.674 0 245.898-49.464 335.723-139.285C938.036 629.402 987.5 510.166 987.5 383.49300000000005c0-261.916-213.092-474.993-474.996-474.993z m-0.008 412.004c-16.816 0-32.633 6.555-44.52 18.442-22.137 22.137-188.816 265.188-195.895 275.521l9.439 9.443c10.333-7.082 253.366-173.758 275.503-195.899 11.902-11.895 18.449-27.711 18.449-44.535 0-16.828-6.547-32.645-18.449-44.539-11.895-11.888-27.703-18.435-44.523-18.435h-0.004v0.002z"  horiz-adv-x="1024" />

    
    <glyph glyph-name="check" unicode="&#58975;" d="M957.84 737.667l-591.611-598.55L66.16 442.726 12 387.936l300.068-303.584-0.205-0.244 54.16-54.775L1012 682.896l-54.16 54.771z"  horiz-adv-x="1024" />

    
    <glyph glyph-name="angle-left" unicode="&#58976;" d="M262-15.284999999999968l57.902-60.058 384.196 398.314L762 383.01l-57.902 60.018L319.902 841.343 262 781.3050000000001 646.196 383.01 262-15.284999999999968M646.196 383.01"  horiz-adv-x="1024" />

    
    <glyph glyph-name="position" unicode="&#58977;" d="M828.063-24.440000000000055H595.037c40.187 41.286 101.778 104.527 155.371 167.799 56.248 68.738 101.779 165.021 101.779 167.738 0 2.749 2.688 5.528 2.688 8.275C876.311 368.87300000000005 887 418.388 887 470.652c0 211.773-168.748 382.291-374.993 382.291C305.747 852.942 137 682.425 137 473.4c0-52.264 10.719-104.527 32.14-151.279 0-2.749 2.671-5.496 2.671-8.275 2.688-2.749 45.546-99 101.795-167.738 85.716-104.527 195.542-206.275 198.214-211.773 13.39-11.024 26.795-16.52 40.186-16.52h316.056c16.092 0 29.498 13.741 29.498 30.262 0.002 13.741-13.405 27.483-29.497 27.483M319.152 181.865c-53.577 65.99-93.764 156.776-93.764 156.776-18.75 41.224-29.468 85.244-29.468 134.759 0 176.014 141.981 321.796 316.086 321.796 174.122 0 316.056-143.035 316.056-321.796 0-46.782-10.688-93.535-29.438-134.759 0 0-42.874-90.786-93.748-156.776C621.817 80.08699999999999 512.007-24.440000000000055 512.007-24.440000000000055S402.182 80.08699999999999 319.152 181.865m0 0M311.106-24.440000000000055H195.921c-16.063 0-29.452-13.741-29.452-30.232 0-16.52 13.39-30.262 29.452-30.262h115.185c16.078 0 29.468 13.742 29.468 30.262-2.672 16.49-13.39 30.232-29.468 30.232zM656.629 473.4c0 79.762-64.249 145.752-144.622 145.752-80.357 0-144.653-65.99-144.653-145.752 0-79.762 64.295-145.782 144.653-145.782 80.373 0 144.622 66.02 144.622 145.782m-230.339 0c0 49.5 37.5 88.007 85.717 88.007 48.218 0 85.717-38.506 85.717-88.007 0-49.515-37.499-88.007-85.717-88.007-48.217 0.001-85.717 38.492-85.717 88.007m0 0"  horiz-adv-x="1024" />

    
    <glyph glyph-name="comment-alt" unicode="&#58978;" d="M512 857.988c-262.299 0-475-212.736-475-475.081 0-83.68 21.697-162.419 59.745-230.698v-166.943c0-7.746 2.864-15.26 8.674-21.151 5.346-5.264 12.327-8.047 19.378-8.442v-0.161h180c62.609-30.453 132.894-47.5 207.204-47.5 262.299 0 475 212.656 475 474.989C987.071 645.252 774.369 857.988 512 857.988z m0.07-890.695c-69.578 0-135.133 17.277-192.779 47.659H156.258v53.321c0.069-0.14 0.069-0.14 0.232-0.301l-0.081 100.192c-38.048 62.783-59.896 136.165-59.896 214.672 0 229.25 186.354 415.627 415.487 415.627s415.488-186.459 415.557-415.557c0.001-229.005-186.423-415.452-415.487-415.613zM234.522 372.14599999999996c0-32.818 26.602-59.444 59.432-59.444 32.817 0 59.431 26.626 59.431 59.444 0 32.83-26.614 59.443-59.431 59.443-32.83-0.001-59.432-26.614-59.432-59.443M454.343 372.14599999999996c0-32.818 26.614-59.444 59.443-59.444 32.806 0 59.431 26.626 59.431 59.444 0 32.83-26.625 59.443-59.431 59.443-32.829-0.001-59.443-26.614-59.443-59.443M672.252 372.14599999999996c0-32.864 26.625-59.512 59.488-59.512 32.888 0 59.514 26.647 59.514 59.512 0 32.876-26.626 59.524-59.514 59.524-32.863 0-59.488-26.649-59.488-59.524"  horiz-adv-x="1024" />

    
    <glyph glyph-name="times-circle" unicode="&#58979;" d="M738.922 609.947c-10.763 10.764-28.293 10.764-39.058 0l-188.713-188.71-188.709 188.71c-10.76 10.764-28.298 10.764-39.062 0-10.76-10.76-10.76-28.298 0-39.058L472 382.082 283.291 193.37300000000005c-10.764-10.764-10.764-28.294 0-39.058 10.76-10.764 28.293-10.764 39.058 0l188.709 188.709 188.713-188.709c10.765-10.764 28.295-10.764 39.058 0 10.765 10.764 10.765 28.294 0 39.058L550.12 382.082l188.709 188.714c10.858 10.76 10.858 28.391 0.093 39.151zM848.031 719.056c-185.284 185.275-486.81 185.275-672.086 0-185.276-185.281-185.276-486.81 0-672.086s486.802-185.276 672.086 0c185.277 185.276 185.277 486.805 0 672.086zM812.77 82.22299999999996c-165.882-165.882-435.773-165.789-601.566 0-165.891 165.89-165.891 435.689 0 601.575 165.793 165.891 435.685 165.891 601.566 0 165.89-165.794 165.89-435.778 0-601.575z"  horiz-adv-x="1024" />

    
    <glyph glyph-name="venue" unicode="&#58980;" d="M777.536-116.5h193.498c21.925 0 40.462 18.537 40.462 40.482V117.45899999999995c0 21.945-18.537 40.482-40.462 40.482h-72.403V609.079h72.403c21.925 0 40.462 18.537 40.462 40.472V843.038c0 21.935-18.537 40.472-40.462 40.472H777.536c-21.945 0-40.461-18.537-40.461-40.472v-76.424H285.927V843.038c0 21.935-18.537 40.472-40.472 40.472H51.968c-21.945 0-40.472-18.537-40.472-40.472v-193.487c0-21.935 18.527-40.472 40.472-40.472h84.488v-451.137H51.968c-21.945 0-40.472-18.537-40.472-40.482v-193.477c0-21.945 18.527-40.482 40.472-40.482h193.487c21.935 0 40.472 18.537 40.472 40.482v76.435h451.148v-76.435c0-21.946 18.516-40.483 40.461-40.483z m193.478 241.877c4.8 0 7.896-3.117 7.896-7.897v-193.497c0-4.801-3.097-7.897-7.896-7.897H777.516c-4.779 0-7.876 3.097-7.876 7.897V117.47900000000004c0 4.78 3.097 7.897 7.876 7.897h193.498zM769.64 843.038c0 4.801 3.097 7.897 7.876 7.897h193.498c4.8 0 7.896-3.096 7.896-7.897v-193.487c0-4.79-3.097-7.897-7.896-7.897H777.516c-4.779 0-7.876 3.107-7.876 7.897V843.038zM51.968 641.654c-4.8 0-7.897 3.107-7.897 7.897V843.038c0 4.801 3.097 7.897 7.897 7.897h193.487c4.8 0 7.897-3.096 7.897-7.897v-193.487c0-4.79-3.097-7.897-7.897-7.897H51.968z m201.384-717.672c0-4.801-3.097-7.897-7.897-7.897H51.968c-4.8 0-7.897 3.097-7.897 7.897V117.47900000000004c0 4.78 3.097 7.897 7.897 7.897h193.487c4.8 0 7.897-3.117 7.897-7.897v-193.497z m32.575 108.999v84.478c0 21.945-18.537 40.482-40.483 40.482H169.02V609.079h76.424c21.946 0 40.483 18.537 40.483 40.472v84.487h451.148v-84.487c0-21.935 18.516-40.472 40.461-40.472h88.53v-451.137h-88.53c-21.945 0-40.461-18.537-40.461-40.482v-84.478H285.927z"  horiz-adv-x="1024" />

    
    <glyph glyph-name="activity" unicode="&#58981;" d="M991.226 408.134c18.38 17.735 24.862 43.748 16.962 67.928-7.79 23.803-28.969 41.482-53.555 45.009l-249.945 42.68c-10.718 1.538-19.981 8.232-24.604 17.449L571.446 817.5550000000001C560.064 840.317 537.1 854.461 511.51 854.461c-25.626 0-48.609-14.153-60.064-37.136L338.757 581.6610000000001c-4.853-9.678-14.162-16.372-25.285-17.974L68.775 521.136c-25.332-3.674-46.013-20.93-54.005-45.11-7.901-24.227-1.372-50.258 18.177-68.904l187.229-145.875c7.781-7.495 11.326-18.287 9.567-28.397l-51.805-249.503c-5.645-32.523 22.173-52.542 31.363-59.153 11.686-8.397 25.35-12.652 39.153-12.652 10.727 0 21.574 2.597 31.63 7.846l174.586 97.293c7.154 3.996 9.687 12.946 5.663 20.019-4.024 7.09-13.066 9.539-20.193 5.599l-174.245-97.091c-12.569-6.611-27.625-5.488-39.199 2.781-19.42 13.978-20.755 23.204-19.595 29.908L258.906 227.39999999999998c3.49 20.147-3.25 40.682-19.208 55.93L52.44 429.23c-10.221 9.797-13.831 24.282-9.438 37.716 4.438 13.444 15.958 23.058 30.479 25.157l244.696 42.551c20.35 2.947 37.965 15.626 47.265 34.162l112.708 235.7c6.326 12.68 19.107 20.543 33.361 20.543 14.227 0 27.007-7.864 33.14-20.12l108.638-236.336c9.134-18.324 26.759-31.003 46.74-33.886l249.945-42.68c13.886-1.989 25.672-11.823 30-25.046 4.383-13.453 0.755-27.919-8.748-37.173L791.594 277.269c-14.77-14.235-21.51-34.751-18.029-54.936l42.247-243.923c2.633-15.415 0.092-23.095-10.037-30.405-11.399-8.159-26.962-9.208-39.098-2.873L548.278 61.72500000000002l8.692 17.551a8.649 8.649 0 0 0 6.667 4.53c0.663-0.036 1.271-0.258 1.952-0.202l40.405 4.328c1.16 0.129 2.247 0.497 3.352 0.791l0.442 0.056c0.165 0.019 0.294 0.129 0.441 0.166a29.218 29.218 0 0 1 2.303 0.828c0.479 0.239 1.049 0.258 1.491 0.553 0.129 0.11 0.166 0.295 0.276 0.387 0.718 0.368 1.455 0.645 2.137 1.105 4.125 2.78 7.145 6.703 8.71 11.215 1.677 4.659 3.224 13.831-5.322 22.395l-24.678 25.156 8.601 32.21c1.731 8.601-1.565 17.274-8.655 22.652-6.979 5.267-16.225 6.15-23.831 2.505l-33.094-15.12-32.449 19.337c-7.634 4.218-17.201 3.72-24.125-1.087-7.403-4.936-11.206-13.425-9.899-22.412l6.022-37.017-25.378-24.659c-6.409-5.967-8.821-14.862-6.307-23.241 2.514-8.343 9.438-14.457 19.733-16.17l32.587-2.007 14.19-33.26c1.501-3.241 4.898-8.104 11.832-10.553 0.773-0.645 1.399-1.399 2.302-1.896l226.06-120.682c22.155-11.547 50.074-9.577 70.479 5.027 25.487 18.397 24.695 42.541 21.859 59.135l-42.265 243.96c-1.823 10.626 1.713 21.418 8.784 28.287l179.634 152.541z"  horiz-adv-x="1024" />

    
    <glyph glyph-name="train" unicode="&#58982;" d="M873.662 850.298c-18.385 5.971-39.405 5.869-60.754-0.266-43.945-12.607-156.415-44.763-264.324-74.956-9.61-2.699-18.915-4.069-29.211-4.1-6.268 0-12.525 0.082-18.783 0.174-10 0.122-19.733 1.503-28.956 4.11-102.674 28.833-215.492 61.398-260.5 74.424-24.754 7.156-50.212 6.073-71.868-3.18C92.03 826.352 61.51 778.88 61.51 725.58v-594.115c0-89.035 90.21-119.667 120.536-129.933 1.452-0.43 147.816-42.963 297.124-84.945a117.49 117.49 0 0 1 31.757-4.356c10.654 0 21.298 1.453 31.584 4.337 150.606 41.98 297.002 84.535 298.166 84.862 76.786 20.756 120.833 68.156 120.833 130.035V725.58c0 57.533-35.316 107.643-87.848 124.718zM191.678 34.86400000000003c-66.971 22.718-96.836 52.513-96.836 96.601V725.58c0 39.098 22.381 73.912 57.022 88.687 8.23 3.518 17.269 5.296 26.849 5.296 7.729 0 15.644-1.155 23.517-3.446 45.06-13.016 157.979-45.611 260.724-74.475 10.337-2.914 21.165-4.417 32.177-4.929-0.041-0.532-0.286-0.981-0.286-1.534v-785.363c0-0.389 0.184-0.717 0.214-1.085-2.423 0.45-4.857 0.839-7.228 1.493-149.156 41.942-295.397 84.416-296.153 84.64z m736.501 96.601c0-63.556-67.032-88.523-96.15-96.396-1.452-0.429-147.663-42.923-298.126-84.863-1.942-0.553-3.927-0.838-5.89-1.228 0.021 0.286 0.163 0.532 0.163 0.84V735.17c0 0.532-0.246 0.981-0.285 1.503 9.528 0.572 19.303 1.963 29.323 4.765 107.971 30.213 220.542 62.41 264.507 75.017 15.215 4.355 29.733 4.601 42.044 0.593 38.525-12.515 64.414-49.272 64.414-91.468v-594.115z"  horiz-adv-x="1024" />

    
    <glyph glyph-name="works" unicode="&#58983;" d="M463.303 408.19H245.988C117.042 408.19 12 512.55 12 640.887S117.042 873.583 245.988 873.583c129.047 0 233.989-104.359 233.989-232.696v-216.013c0-9.176-7.445-16.684-16.674-16.684zM245.988 840.33c-110.494 0-200.438-89.457-200.438-199.443 0-109.996 89.944-199.442 200.539-199.442h200.552V640.887C446.529 750.873 356.583 840.33 245.988 840.33z m532.024-432.14H560.684c-9.213 0-16.765 7.396-16.765 16.683V640.887c0 128.337 104.94 232.696 233.988 232.696 129.052 0 233.988-104.359 233.988-232.696 0.001-128.337-104.936-232.697-233.883-232.697z m-200.543 33.254h200.543c110.596 0 200.541 89.446 200.541 199.442 0 109.986-90.047 199.443-200.541 199.443-110.496 0-200.543-89.457-200.543-199.443v-199.442z m-331.481-547.027C117.042-105.58299999999997 12-1.2340000000000373 12 127.10400000000004c0 128.356 104.93 232.705 233.988 232.705h217.215c9.217 0 16.774-7.402 16.774-16.682v-216.023c0-128.338-104.942-232.687-233.989-232.687z m0 432.13c-110.494 0-200.438-89.44-200.438-199.443 0-109.984 89.944-199.424 200.539-199.424 110.596 0 200.441 89.538 200.441 199.424V326.547H245.988z m532.024-432.13c-129.049 0-233.988 104.349-233.988 232.687V343.22799999999995c0 9.179 7.447 16.686 16.783 16.686h217.205c129.047 0 233.988-104.351 233.988-232.687 0-128.338-105.041-232.81-233.988-232.81z m-200.543 432.13v-199.443c0-109.984 89.947-199.424 200.543-199.424s200.44 89.538 200.44 199.424c0 109.904-89.946 199.443-200.545 199.443H577.469z m0 0"  horiz-adv-x="1024" />

    
    <glyph glyph-name="download" unicode="&#58984;" d="M474.676 305.60400000000004V819.712c0 21.124 17.128 38.287 38.323 38.287 21.017 0 38.216-17.092 38.216-38.287v-511.931L808.981 565.62c14.951 14.916 39.036 14.916 54.131 0 14.914-14.915 14.914-39.179 0-54.022 0 0-324.529-325.6-324.958-326.135-6.243-5.459-14.165-8.991-23.014-9.563-1.535-0.107-2.82-0.107-4.389 0-8.885 0.571-16.914 3.961-23.016 9.563-0.5 0.535-326.848 325.813-326.848 325.813-14.915 14.915-14.915 39.179 0 53.952 14.951 14.844 39.25 14.844 54.058 0l259.731-259.624z m0 0M947.357 303.179c-21.874 0-39.501-17.733-39.501-39.606V66.32000000000005c0-43.532-35.538-79.035-79.178-79.035H195.393c-43.675 0-79.25 35.503-79.25 79.035V263.572c0 21.873-17.698 39.606-39.571 39.606C54.698 303.179 37 285.44500000000005 37 263.572V66.32000000000005c0-87.35 71.007-158.321 158.393-158.321H828.75c87.313 0 158.25 70.972 158.25 158.25V263.572c-0.071 21.873-17.733 39.607-39.643 39.607z m0 0"  horiz-adv-x="1024" />

    
    <glyph glyph-name="empty" unicode="&#58985;" d="M1009.368 449.453L904.82 635.963v1.096c-1.644 3.28-3.83 6.014-7.118 7.655L522.757 785.282l-1.097 0.545-1.09 0.548c-2.74 1.638-5.475 2.187-8.214 2.187-2.734 0-6.02-0.548-8.211-2.187l-1.093-0.548-1.096-0.545-373.85-141.113c-3.833-2.189-7.664-5.471-9.853-9.299L13.705 447.267c-4.378-9.845 0-21.33 9.305-26.254l84.843-42.115 8.759-4.373v-217.689c0-7.655 3.831-14.22 10.946-18.045l374.4-159.16c3.285-1.645 6.568-2.192 9.853-2.192s6.567 0.548 9.855 2.192l372.206 159.708h1.096c7.661 2.729 12.593 9.842 12.593 18.045v218.78l8.208 4.373 82.104 42.117 3.287 1.642h3.283c7.66 6.014 9.852 16.409 4.925 25.157z m-51.455 13.127l7.667-14.22-334.445-167.363-4.926-2.192-2.734 4.379-80.465 146.581-2.734 4.923 4.926 2.734L877.45 604.788l2.191-3.828 78.272-138.38zM830.378 632.681l14.779-4.921-304.34-154.239-7.66-3.828V734.961l5.474-1.641 291.747-100.639zM487.179 733.3199999999999l13.138 4.375v-264.723h-6.57l-1.642 1.096-308.169 155.333 10.4 3.828L487.179 733.3199999999999zM143.978 599.865l4.926 9.299 337.727-171.196 4.926-2.734-2.737-4.924-81.009-146.03-2.737-4.379-4.926 2.187L61.327 451.643l6.02 10.938 76.631 137.284z m22.99-436.465l-9.853 3.83V365.227l0.548-0.548 246.862-123.065c2.737-1.096 5.474-2.187 8.211-2.187 6.02 0 11.494 3.282 14.779 8.209l62.4 109.93 10.4 18.051v-349.501l-13.686 5.469L166.968 163.39999999999998z m701.177 14.226v-10.396l-9.305-3.83-319.66-131.816-6.022-2.734V375.616l10.4-18.051 62.946-110.483c2.739-4.921 8.214-7.655 13.688-7.655 2.734 0 5.475 0.548 8.209 2.187l240.298 120.331v-184.318h-0.554v-0.001z"  horiz-adv-x="1024" />

    
    <glyph glyph-name="comment" unicode="&#58986;" d="M829.167 829.712H187.498c-82.85 0-149.998-73.601-149.998-157.49v-416.441c0-83.889 65.574-140.003 148.438-140.003h59.375v-178.491l207.813 178.491h385.938c82.821 0 148.438 56.114 148.438 140.003V672.222c-0.002 83.889-75.514 157.49-158.335 157.49z m98.958-573.931c0-55.607-44.728-80.516-89.063-80.516H431.155l-16.685-14.31-109.782-94.291v108.6h-118.75c-44.334 0-89.063 24.908-89.063 80.516V672.222c0 52.206 42.353 98.002 90.623 98.002h641.669c50.856 0 98.958-47.624 98.958-98.002v-416.441zM215.625 472.731c0-21.225 11.315-40.876 29.688-51.503a59.28 59.28 0 0 1 59.375 0c18.358 10.627 29.688 30.278 29.688 51.503 0 21.282-11.33 40.905-29.688 51.531a59.275 59.275 0 0 1-59.375 0c-18.373-10.626-29.688-30.249-29.688-51.531M453.125 472.731c0-32.836 26.581-59.487 59.375-59.487 32.78 0 59.375 26.651 59.375 59.487 0 21.282-11.302 40.905-29.688 51.531a59.275 59.275 0 0 1-59.375 0c-18.372-10.626-29.687-30.249-29.687-51.531M690.625 472.731c0-21.225 11.302-40.876 29.688-51.503a59.28 59.28 0 0 1 59.375 0c18.386 10.627 29.688 30.278 29.688 51.503 0 21.282-11.302 40.905-29.688 51.531a59.275 59.275 0 0 1-59.375 0c-18.386-10.626-29.688-30.249-29.688-51.531"  horiz-adv-x="1024" />

    
    <glyph glyph-name="user" unicode="&#58987;" d="M930.191-82.51999999999998c-17.85 0-32.369 13.729-32.369 30.611 0 188.842-172.838 342.537-385.322 342.537-3.032 0-6.078-0.063-9.123-0.123-2.347-0.52-4.759-0.756-7.167-0.756-2.971 0-5.941 0.025-8.895 0.148C285.32 278.26199999999994 127.161 128.17999999999995 127.161-51.908000000000015c0-16.883-14.502-30.611-32.34-30.611-17.819 0-32.321 13.729-32.321 30.611 0 87.654 30.929 171.088 89.45 241.305 51.521 61.795 122.929 109.811 202.966 136.811-88.027 49.367-141.746 141.337-141.746 245.487 0 152.64 133.291 276.824 297.119 276.824 163.806 0 297.041-124.185 297.041-276.824 0-72.404-29.822-140.885-84.016-192.876-6.18-5.846-14.361-9.088-23.027-9.088-8.552 0-16.611 3.146-22.738 8.814-6.117 5.731-9.544 13.396-9.605 21.564-0.063 8.17 3.242 15.864 9.308 21.688 42.188 40.398 65.399 93.63 65.399 149.897 0 118.894-104.256 215.635-232.392 215.635-128.171 0-232.458-96.741-232.458-215.635 0-120.837 89.666-215.579 208.666-220.579 8.604 0.43 17.38 0.668 26.051 0.668 248.133 0 449.982-181.117 449.982-403.691 0-16.883-14.484-30.612-32.309-30.612z"  horiz-adv-x="1024" />

    
    <glyph glyph-name="camera" unicode="&#58988;" d="M901.471-27.95399999999995H123.23c-61.154 0-110.88 49.879-110.88 111.224V591.879c0 61.345 49.754 111.262 110.88 111.262h111.099c1.978 4.396 8.466 18.729 12.852 29.774 18.938 47.929 32.918 61.039 65.014 61.039h403.253c32.755 0 42.521-13.606 58.497-47.126 5.37-11.275 16.703-37.399 19.397-43.687H901.47c61.153 0 110.88-49.859 110.88-111.262V83.26999999999998c0.001-61.307-49.764-111.224-110.879-111.224z m70.116 619.871c0 38.794-31.437 70.403-70.116 70.403H780.5c-8.294 0-16.167 5.581-19.607 13.855-1.968 4.777-8.638 19.798-15.059 34.342l-10.091 22.761-0.688 1.644c-3.688 8.523-7.836 18.212-20.965 18.212H312.195c-14.973 0-21.347-16.358-25.168-26.181a117.807 117.807 0 0 0-1.453-3.631l-6.498-15.537c-3.803-9.173-7.75-18.671-13.473-31.628-3.182-7.205-8.179-13.836-22.98-13.836H123.23c-38.699 0-70.155-31.628-70.155-70.403h-0.019v-508.59c0-38.813 31.447-70.385 70.146-70.385h778.27c38.68 0 70.116 31.571 70.116 70.385V591.9169999999999z m-115.332-67.078H805.44a20.464 20.464 0 0 0-14.428 6.02 20.339 20.339 0 0 0-5.943 14.428c0 11.256 9.153 20.391 20.371 20.391h50.815c11.218 0 20.372-9.154 20.372-20.391 0-5.408-2.121-10.587-5.943-14.428s-9.021-6.001-14.429-6.02zM512.35 109.04999999999995c-125.327 0-227.272 102.414-227.272 228.314 0 125.881 101.945 228.295 227.272 228.295 125.318 0 227.273-102.414 227.273-228.295 0-125.9-101.955-228.314-227.273-228.314z m0 417.031c-103.58 0-187.829-84.66-187.829-188.717 0-104.058 84.278-188.698 187.829-188.698s187.809 84.641 187.809 188.698S615.92 526.081 512.35 526.081z m0 0"  horiz-adv-x="1024" />

    
    <glyph glyph-name="collect" unicode="&#58989;" d="M574.582-23.710000000000036l0.371 0.176c0.742 0.332 62.461 27.695 141.894 86.073 73.378 53.945 177.342 146.151 255.935 279.158 30.742 52.011 44.395 120.145 37.441 186.941-5.41 52.128-25.664 127.84-91.444 192.459-53.75 52.793-125.215 81.865-201.229 81.865-76.034 0-147.499-29.072-201.238-81.864l-5.01-4.932-5.02 4.932C452.591 773.9 381.167 802.981 305.171 803.001c-76.093 0-147.577-29.091-201.346-81.903C52 670.1800000000001 20.799 605.356 13.602 533.6379999999999c-6.406-63.808 6.533-132.127 36.455-192.371 28.682-57.813 67.919-113.065 116.61-164.218 39.003-40.995 84.14-79.472 134.139-114.354 85.106-59.374 155.545-88.007 156.249-88.28l0.303-0.137c33.094-15.8 85.623-14.882 117.224 2.012z m-103.104 32.559c-2.939 1.172-8.398 3.613-17.656 7.91-16.279 7.656-33.3 16.406-50.615 26.016-55.917 31.112-107.89 67.401-154.471 107.851-71.942 62.382-127.313 131.971-164.549 206.853-28.545 57.539-39.658 119.248-32.139 178.456 7.734 60.966 34.97 115.927 78.769 158.954 46.611 45.791 108.553 71.005 174.402 71.005 65.859 0 127.802-25.215 174.422-71.005l31.884-31.357 31.885 31.357c46.542 45.771 108.417 70.986 174.236 71.005 65.917 0 127.87-25.215 174.471-71.005 43.262-42.451 71.679-100.653 79.999-163.866 8.105-61.581-3.223-122.225-31.913-170.77-36.211-61.327-81.444-119.314-134.394-172.342-51.366-51.464-108.788-97.187-170.721-135.878-19.082-11.835-37.813-22.577-55.723-31.913-11.816-6.133-18.066-8.926-19.688-9.629l-3.729-1.719c-10.176-5.43-25.645-8.535-42.441-8.535-15.342 0-29.746 2.676-39.511 7.383l-2.518 1.229z"  horiz-adv-x="1024" />

    
    <glyph glyph-name="check-circle" unicode="&#58990;" d="M973.166 578.1659999999999c-25.242 59.599-61.259 113.035-107.111 158.889-45.854 45.853-99.409 81.989-158.889 107.108C645.436 870.229 580.031 883.5 512.5 883.5c-67.535 0-132.938-13.271-194.669-39.337-59.596-25.235-113.032-61.255-158.886-107.108-45.853-45.854-81.989-99.409-107.111-158.889C25.771 516.4359999999999 12.5 451.035 12.5 383.5c0-67.531 13.271-132.941 39.334-194.666 25.239-59.603 61.258-113.035 107.111-158.889 45.854-45.853 99.409-81.992 158.886-107.111 61.614-26.063 127.134-39.334 194.669-39.334 67.531 0 132.936 13.271 194.666 39.334 59.596 25.235 113.035 61.259 158.889 107.111 45.853 45.854 81.992 99.409 107.111 158.889 26.063 61.607 39.334 127.135 39.334 194.666 0 67.535-13.271 132.938-39.334 194.666zM512.5-64.37300000000005c-246.921 0-447.87 200.951-447.87 447.873 0 246.918 200.949 447.867 447.87 447.867 246.922 0 447.867-200.949 447.867-447.867 0-246.922-200.945-447.873-447.867-447.873z m222.869 617.898c-10.664 9.594-27.253 8.647-36.851-2.018l-248.46-276.892-127.606 114.453c-10.665 9.598-27.253 8.65-36.851-2.015-9.594-10.661-8.646-27.25 2.015-36.848l146.449-131.279c0.117-0.116 0.236-0.116 0.353-0.239l0.239-0.233c10.665-9.597 27.25-8.653 36.848 2.012l265.877 296.329c9.597 10.544 8.652 27.133-2.013 36.73z"  horiz-adv-x="1024" />

    
    <glyph glyph-name="up" unicode="&#58991;" d="M947.007 116.36699999999996l65.494 61.784-434.505 409.766-65.495 61.719-65.495-61.719L12.501 178.15099999999995l65.462-61.784 434.538 409.798 434.506-409.798M512.501 526.1659999999999"  horiz-adv-x="1024" />

    
    <glyph glyph-name="clock" unicode="&#58992;" d="M512-92.029c-64.138 0-126.342 12.555-184.897 37.325-56.561 23.905-107.354 58.139-150.989 101.804-43.619 43.634-77.884 94.412-101.804 150.973C49.556 256.644 37 318.86400000000003 37 382.986c0 64.152 12.556 126.357 37.31 184.928 23.92 56.561 58.185 107.354 101.804 150.989 43.635 43.635 94.428 77.883 150.989 101.819C385.658 845.477 447.862 858.032 512 858.032c64.137 0 126.327-12.555 184.897-37.311 56.529-23.936 107.339-58.184 150.973-101.819 43.636-43.634 77.869-94.428 101.805-150.989C974.445 509.343 987 447.139 987 382.986c0-64.122-12.555-126.343-37.325-184.913-23.936-56.561-58.169-107.339-101.805-150.973-43.634-43.665-94.443-77.898-150.973-101.804-58.57-24.771-120.76-37.325-184.897-37.325z m0 904.308c-236.696 0-429.248-192.566-429.248-429.293 0-236.712 192.551-429.278 429.248-429.278 236.695 0 429.232 192.566 429.232 429.278 0 236.727-192.567 429.293-429.232 429.293z m174.291-675.22c-7.886 0-15.277 3.062-20.844 8.628L482.9 328.265c-5.49 5.474-8.628 13.081-8.628 20.813V671.094c0 16.235 13.22 29.456 29.456 29.456 16.25 0 29.455-13.205 29.455-29.456v-142.855l-0.339-166.605 174.289-174.291c5.536-5.566 8.628-12.957 8.628-20.812 0-7.886-3.092-15.277-8.628-20.844-5.567-5.567-12.988-8.628-20.842-8.628z"  horiz-adv-x="1024" />

    
    <glyph glyph-name="phone" unicode="&#58993;" d="M327.877 522.658c3.337 3.622 14.754 15.817 16.625 17.837 6.569 7.092 11.521 12.599 16.101 18.076 52.747 63.027 47.435 122.134-34.043 217.543-46.478 54.408-92.012 75.417-137.427 64.973-33.804-7.796-59.9-28.82-95.933-69.223 0.165 0.21-20.62-23.433-26.067-29.329-84.635-91.713 23.972-354.372 251.735-568.861 227.824-214.461 494.927-305.561 579.592-213.833 5.386 5.837 27.981 29.149 26.365 27.443 37.798 39.444 56.803 66.978 62.34 101.604 7.481 46.657-16.4 91.309-73.622 134.524-102.173 77.213-160.591 76.764-220.984 15.502-7.124-7.213-40.582-43.784-29.509-31.843-17.538-18.854-95.17 28.312-197.941 125.037-102.727 96.636-154.77 171.604-137.248 190.534l0.016 0.016z m-35.778 33.698c-49.246-53.226 9.742-138.175 139.657-260.399 129.96-122.283 217.828-175.675 267.028-122.613-10.085-10.924 22.087 24.271 28.461 30.706 42.169 42.767 73.322 43.006 156.971-20.201 43.964-33.189 58.837-60.993 54.647-87.089-3.412-21.398-18.076-42.647-49.2-75.119 2.034 2.126-21.129-21.727-26.995-28.102-59.018-63.954-300.113 18.316-510.429 216.286-210.242 197.987-308.3 435.102-249.312 499.012 5.911 6.404 27.145 30.556 26.621 29.958 29.568 33.16 49.635 49.32 70.464 54.109 25.379 5.836 53.78-7.272 89.483-49.066 66.783-78.186 69.686-110.418 33.728-153.364-3.936-4.714-8.38-9.681-14.439-16.221-1.736-1.855-13.229-14.126-16.715-17.896h0.03v-0.001z"  horiz-adv-x="1024" />

    
    <glyph glyph-name="down" unicode="&#58994;" d="M77.837 648.388l-65.495-61.556 434.505-408.171 65.495-61.458 65.495 61.458 434.506 408.171-65.495 61.556-434.506-408.203L77.837 648.388m434.505-408.203"  horiz-adv-x="1024" />

    
    <glyph glyph-name="calendar" unicode="&#58880;" d="M866.013-50.605999999999995H156.468c-45.163 0-81.838 36.669-81.838 81.839V658.887c0 45.222 36.675 81.89 81.838 81.89h109.146v-54.576H129.206v-682.23h764.069V686.1469999999999H756.808v54.63H865.96c45.223 0 81.89-36.668 81.89-81.89v-627.602c0-45.222-36.667-81.89-81.837-81.89zM647.707 495.158H756.86v-81.839H647.707v81.839zM756.86 140.385H647.707v81.837H756.86v-81.837zM647.707 358.69100000000003H756.86v-81.839H647.707v81.839z m40.92 245.62c-22.584 0-40.92 18.333-40.92 40.918V781.696c0 22.585 18.282 40.92 40.92 40.92s40.92-18.335 40.92-40.92V645.23c-0.001-22.585-18.336-40.919-40.92-40.919zM456.665 495.157h109.153v-81.839H456.664v81.839z m109.153-354.773H456.664v81.837h109.153v-81.837zM456.664 358.69100000000003h109.153v-81.839H456.664v81.839z m-54.576 382.086h218.305v-54.576H402.088v54.576zM265.614 222.27599999999995h109.16v-81.838h-109.16v81.838z m0 136.415h109.16v-81.839h-109.16v81.839z m0 136.467h109.16v-81.839h-109.16v81.839z m68.241 109.152c-22.585 0-40.919 18.334-40.919 40.92V781.6949999999999c0 22.585 18.334 40.92 40.92 40.92 22.57 0 40.918-18.335 40.918-40.92V645.23c0-22.585-18.281-40.919-40.919-40.919z m0 0"  horiz-adv-x="1024" />

    


  </font>
</defs>
</svg>
